<ttFont>
    <TTGlyph name=".notdef" xMin="93" yMin="0" xMax="543" yMax="660">
      <contour>
        <pt x="93" y="660" on="1"/>
        <pt x="543" y="660" on="1"/>
        <pt x="543" y="0" on="1"/>
        <pt x="93" y="0" on="1"/>
      </contour>
      <contour>
        <pt x="320" y="375" on="1"/>
        <pt x="372" y="467" on="1"/>
        <pt x="455" y="615" on="1"/>
        <pt x="180" y="615" on="1"/>
        <pt x="263" y="467" on="1"/>
        <pt x="316" y="375" on="1"/>
      </contour>
      <contour>
        <pt x="285" y="340" on="1"/>
        <pt x="142" y="595" on="1"/>
        <pt x="142" y="89" on="1"/>
      </contour>
      <contour>
        <pt x="492" y="595" on="1"/>
        <pt x="351" y="340" on="1"/>
        <pt x="492" y="89" on="1"/>
      </contour>
      <contour>
        <pt x="467" y="43" on="1"/>
        <pt x="379" y="201" on="1"/>
        <pt x="320" y="305" on="1"/>
        <pt x="316" y="305" on="1"/>
        <pt x="257" y="201" on="1"/>
        <pt x="166" y="43" on="1"/>
      </contour>
    </TTGlyph>
    <TTGlyph name="A" xMin="7" yMin="0" xMax="523" yMax="658">
      <contour>
        <pt x="392" y="221" on="1"/>
        <pt x="136" y="221" on="1"/>
        <pt x="61" y="0" on="1"/>
        <pt x="7" y="0" on="1"/>
        <pt x="237" y="658" on="1"/>
        <pt x="292" y="658" on="1"/>
        <pt x="523" y="0" on="1"/>
        <pt x="466" y="0" on="1"/>
      </contour>
      <contour>
        <pt x="378" y="265" on="1"/>
        <pt x="338" y="384" on="1"/>
        <pt x="293" y="517" on="0"/>
        <pt x="266" y="610" on="1"/>
        <pt x="262" y="610" on="1"/>
        <pt x="237" y="520" on="0"/>
        <pt x="191" y="384" on="1"/>
        <pt x="151" y="265" on="1"/>
      </contour>
    </TTGlyph>
    <TTGlyph name="AE" xMin="19" yMin="0" xMax="765" yMax="658">
      <contour>
        <pt x="765" y="45" on="1"/>
        <pt x="765" y="0" on="1"/>
        <pt x="409" y="0" on="1"/>
        <pt x="409" y="212" on="1"/>
        <pt x="190" y="212" on="1"/>
        <pt x="75" y="0" on="1"/>
        <pt x="19" y="0" on="1"/>
        <pt x="380" y="658" on="1"/>
        <pt x="755" y="658" on="1"/>
        <pt x="755" y="613" on="1"/>
        <pt x="462" y="613" on="1"/>
        <pt x="462" y="372" on="1"/>
        <pt x="705" y="372" on="1"/>
        <pt x="705" y="326" on="1"/>
        <pt x="462" y="326" on="1"/>
        <pt x="462" y="45" on="1"/>
      </contour>
      <contour>
        <pt x="409" y="256" on="1"/>
        <pt x="409" y="614" on="1"/>
        <pt x="405" y="614" on="1"/>
        <pt x="284" y="385" on="1"/>
        <pt x="214" y="256" on="1"/>
      </contour>
    </TTGlyph>
    <TTGlyph name="Aacute" xMin="7" yMin="0" xMax="523" yMax="855">
      <component glyphName="A" x="0" y="0" flags="0x0"/>
      <component glyphName="acutecomb.cap" x="264" y="0" flags="0x0"/>
    </TTGlyph>
    <TTGlyph name="Abreve" xMin="7" yMin="0" xMax="523" yMax="840">
      <component glyphName="A" x="0" y="0" flags="0x0"/>
      <component glyphName="uni0306.cap" x="264" y="0" flags="0x0"/>
    </TTGlyph>
    <TTGlyph name="Acircumflex" xMin="7" yMin="0" xMax="523" yMax="839">
      <component glyphName="A" x="0" y="0" flags="0x0"/>
      <component glyphName="uni0302.cap" x="264" y="0" flags="0x0"/>
    </TTGlyph>
    <TTGlyph name="Adieresis" xMin="7" yMin="0" xMax="523" yMax="801">
      <component glyphName="A" x="0" y="0" flags="0x0"/>
      <component glyphName="uni0308.cap" x="264" y="0" flags="0x0"/>
    </TTGlyph>
    <TTGlyph name="Agrave" xMin="7" yMin="0" xMax="523" yMax="855">
      <component glyphName="A" x="0" y="0" flags="0x0"/>
      <component glyphName="gravecomb.cap" x="264" y="0" flags="0x0"/>
    </TTGlyph>
    <TTGlyph name="Amacron" xMin="7" yMin="0" xMax="523" yMax="781">
      <component glyphName="A" x="0" y="0" flags="0x0"/>
      <component glyphName="uni0304.cap" x="264" y="0" flags="0x0"/>
    </TTGlyph>
    <TTGlyph name="Aring" xMin="7" yMin="0" xMax="523" yMax="873">
      <component glyphName="A" x="0" y="0" flags="0x0"/>
      <component glyphName="uni030A.cap" x="264" y="0" flags="0x0"/>
    </TTGlyph>
    <TTGlyph name="Atilde" xMin="7" yMin="0" xMax="523" yMax="836">
      <component glyphName="A" x="0" y="0" flags="0x0"/>
      <component glyphName="tildecomb.cap" x="264" y="0" flags="0x0"/>
    </TTGlyph>
    <TTGlyph name="B" xMin="96" yMin="0" xMax="536" yMax="658">
      <contour>
        <pt x="96" y="658" on="1"/>
        <pt x="277" y="658" on="1"/>
        <pt x="380" y="658" on="0"/>
        <pt x="496" y="579" on="0"/>
        <pt x="496" y="498" on="1"/>
        <pt x="496" y="446" on="0"/>
        <pt x="444" y="370" on="0"/>
        <pt x="395" y="355" on="1"/>
        <pt x="395" y="351" on="1"/>
        <pt x="461" y="339" on="0"/>
        <pt x="536" y="258" on="0"/>
        <pt x="536" y="192" on="1"/>
        <pt x="536" y="99" on="0"/>
        <pt x="405" y="0" on="0"/>
        <pt x="291" y="0" on="1"/>
        <pt x="96" y="0" on="1"/>
      </contour>
      <contour>
        <pt x="260" y="371" on="1"/>
        <pt x="444" y="371" on="0"/>
        <pt x="444" y="493" on="1"/>
        <pt x="444" y="558" on="0"/>
        <pt x="355" y="615" on="0"/>
        <pt x="265" y="615" on="1"/>
        <pt x="149" y="615" on="1"/>
        <pt x="149" y="371" on="1"/>
      </contour>
      <contour>
        <pt x="278" y="44" on="1"/>
        <pt x="377" y="44" on="0"/>
        <pt x="484" y="117" on="0"/>
        <pt x="484" y="192" on="1"/>
        <pt x="484" y="260" on="0"/>
        <pt x="378" y="328" on="0"/>
        <pt x="278" y="328" on="1"/>
        <pt x="149" y="328" on="1"/>
        <pt x="149" y="44" on="1"/>
      </contour>
    </TTGlyph>
    <TTGlyph name="C" xMin="54" yMin="-12" xMax="529" yMax="671">
      <contour>
        <pt x="251" y="-12" on="0"/>
        <pt x="125" y="72" on="0"/>
        <pt x="54" y="227" on="0"/>
        <pt x="54" y="330" on="1"/>
        <pt x="54" y="433" on="0"/>
        <pt x="125" y="588" on="0"/>
        <pt x="254" y="671" on="0"/>
        <pt x="337" y="671" on="1"/>
        <pt x="391" y="671" on="0"/>
        <pt x="481" y="625" on="0"/>
        <pt x="510" y="591" on="1"/>
        <pt x="480" y="556" on="1"/>
        <pt x="421" y="623" on="0"/>
        <pt x="338" y="623" on="1"/>
        <pt x="268" y="623" on="0"/>
        <pt x="165" y="552" on="0"/>
        <pt x="109" y="420" on="0"/>
        <pt x="109" y="331" on="1"/>
        <pt x="109" y="242" on="0"/>
        <pt x="164" y="108" on="0"/>
        <pt x="266" y="36" on="0"/>
        <pt x="334" y="36" on="1"/>
        <pt x="383" y="36" on="0"/>
        <pt x="462" y="75" on="0"/>
        <pt x="498" y="116" on="1"/>
        <pt x="529" y="82" on="1"/>
        <pt x="489" y="36" on="0"/>
        <pt x="394" y="-12" on="0"/>
        <pt x="332" y="-12" on="1"/>
      </contour>
    </TTGlyph>
    <TTGlyph name="Ccaron" xMin="54" yMin="-12" xMax="529" yMax="842">
      <component glyphName="C" x="0" y="0" flags="0x0"/>
      <component glyphName="uni030C.cap" x="322" y="0" flags="0x0"/>
    </TTGlyph>
    <TTGlyph name="Ccedilla" xMin="54" yMin="-12" xMax="529" yMax="671">
      <contour>
        <pt x="251" y="-12" on="0"/>
        <pt x="125" y="72" on="0"/>
        <pt x="54" y="227" on="0"/>
        <pt x="54" y="330" on="1"/>
        <pt x="54" y="433" on="0"/>
        <pt x="125" y="588" on="0"/>
        <pt x="254" y="671" on="0"/>
        <pt x="337" y="671" on="1"/>
        <pt x="391" y="671" on="0"/>
        <pt x="481" y="625" on="0"/>
        <pt x="510" y="591" on="1"/>
        <pt x="480" y="556" on="1"/>
        <pt x="421" y="623" on="0"/>
        <pt x="338" y="623" on="1"/>
        <pt x="268" y="623" on="0"/>
        <pt x="165" y="552" on="0"/>
        <pt x="109" y="420" on="0"/>
        <pt x="109" y="331" on="1"/>
        <pt x="109" y="242" on="0"/>
        <pt x="164" y="108" on="0"/>
        <pt x="266" y="36" on="0"/>
        <pt x="334" y="36" on="1"/>
        <pt x="383" y="36" on="0"/>
        <pt x="462" y="75" on="0"/>
        <pt x="498" y="116" on="1"/>
        <pt x="529" y="82" on="1"/>
        <pt x="489" y="36" on="0"/>
        <pt x="394" y="-12" on="0"/>
        <pt x="332" y="-12" on="1"/>
      </contour>
    </TTGlyph>
    <TTGlyph name="D" xMin="96" yMin="0" xMax="552" yMax="658">
      <contour>
        <pt x="96" y="658" on="1"/>
        <pt x="251" y="658" on="1"/>
        <pt x="400" y="658" on="0"/>
        <pt x="552" y="486" on="0"/>
        <pt x="552" y="331" on="1"/>
        <pt x="552" y="176" on="0"/>
        <pt x="400" y="0" on="0"/>
        <pt x="252" y="0" on="1"/>
        <pt x="96" y="0" on="1"/>
      </contour>
      <contour>
        <pt x="246" y="45" on="1"/>
        <pt x="372" y="45" on="0"/>
        <pt x="497" y="198" on="0"/>
        <pt x="497" y="331" on="1"/>
        <pt x="497" y="464" on="0"/>
        <pt x="372" y="614" on="0"/>
        <pt x="246" y="614" on="1"/>
        <pt x="149" y="614" on="1"/>
        <pt x="149" y="45" on="1"/>
      </contour>
    </TTGlyph>
    <TTGlyph name="E" xMin="96" yMin="0" xMax="470" yMax="658">
      <contour>
        <pt x="96" y="658" on="1"/>
        <pt x="460" y="658" on="1"/>
        <pt x="460" y="613" on="1"/>
        <pt x="149" y="613" on="1"/>
        <pt x="149" y="372" on="1"/>
        <pt x="410" y="372" on="1"/>
        <pt x="410" y="326" on="1"/>
        <pt x="149" y="326" on="1"/>
        <pt x="149" y="45" on="1"/>
        <pt x="470" y="45" on="1"/>
        <pt x="470" y="0" on="1"/>
        <pt x="96" y="0" on="1"/>
      </contour>
    </TTGlyph>
    <TTGlyph name="Eacute" xMin="96" yMin="0" xMax="470" yMax="855">
      <component glyphName="E" x="0" y="0" flags="0x0"/>
      <component glyphName="acutecomb.cap" x="283" y="0" flags="0x0"/>
    </TTGlyph>
    <TTGlyph name="Ebreve" xMin="96" yMin="0" xMax="470" yMax="840">
      <component glyphName="E" x="0" y="0" flags="0x0"/>
      <component glyphName="uni0306.cap" x="283" y="0" flags="0x0"/>
    </TTGlyph>
    <TTGlyph name="Ecircumflex" xMin="96" yMin="0" xMax="470" yMax="839">
      <component glyphName="E" x="0" y="0" flags="0x0"/>
      <component glyphName="uni0302.cap" x="283" y="0" flags="0x0"/>
    </TTGlyph>
    <TTGlyph name="Edieresis" xMin="96" yMin="0" xMax="470" yMax="801">
      <component glyphName="E" x="0" y="0" flags="0x0"/>
      <component glyphName="uni0308.cap" x="283" y="0" flags="0x0"/>
    </TTGlyph>
    <TTGlyph name="Egrave" xMin="96" yMin="0" xMax="470" yMax="855">
      <component glyphName="E" x="0" y="0" flags="0x0"/>
      <component glyphName="gravecomb.cap" x="283" y="0" flags="0x0"/>
    </TTGlyph>
    <TTGlyph name="Emacron" xMin="96" yMin="0" xMax="470" yMax="781">
      <component glyphName="E" x="0" y="0" flags="0x0"/>
      <component glyphName="uni0304.cap" x="283" y="0" flags="0x0"/>
    </TTGlyph>
    <TTGlyph name="Eogonek" xMin="96" yMin="-206" xMax="483" yMax="658">
      <contour>
        <pt x="378" y="-206" on="0"/>
        <pt x="329" y="-163" on="0"/>
        <pt x="329" y="-123" on="1"/>
        <pt x="329" y="-86" on="0"/>
        <pt x="371" y="-20" on="0"/>
        <pt x="402" y="0" on="1"/>
        <pt x="96" y="0" on="1"/>
        <pt x="96" y="658" on="1"/>
        <pt x="460" y="658" on="1"/>
        <pt x="460" y="613" on="1"/>
        <pt x="149" y="613" on="1"/>
        <pt x="149" y="372" on="1"/>
        <pt x="410" y="372" on="1"/>
        <pt x="410" y="326" on="1"/>
        <pt x="149" y="326" on="1"/>
        <pt x="149" y="45" on="1"/>
        <pt x="470" y="45" on="1"/>
        <pt x="470" y="0" on="1"/>
        <pt x="467" y="0" on="1"/>
        <pt x="431" y="-6" on="0"/>
        <pt x="373" y="-73" on="0"/>
        <pt x="373" y="-115" on="1"/>
        <pt x="373" y="-139" on="0"/>
        <pt x="403" y="-166" on="0"/>
        <pt x="423" y="-166" on="1"/>
        <pt x="446" y="-166" on="0"/>
        <pt x="466" y="-152" on="1"/>
        <pt x="483" y="-181" on="1"/>
        <pt x="471" y="-192" on="0"/>
        <pt x="432" y="-206" on="0"/>
        <pt x="415" y="-206" on="1"/>
      </contour>
    </TTGlyph>
    <TTGlyph name="Eth" xMin="36" yMin="0" xMax="573" yMax="658">
      <contour>
        <pt x="421" y="658" on="0"/>
        <pt x="573" y="486" on="0"/>
        <pt x="573" y="331" on="1"/>
        <pt x="573" y="176" on="0"/>
        <pt x="421" y="0" on="0"/>
        <pt x="273" y="0" on="1"/>
        <pt x="117" y="0" on="1"/>
        <pt x="117" y="330" on="1"/>
        <pt x="36" y="330" on="1"/>
        <pt x="36" y="363" on="1"/>
        <pt x="117" y="366" on="1"/>
        <pt x="117" y="658" on="1"/>
        <pt x="272" y="658" on="1"/>
      </contour>
      <contour>
        <pt x="393" y="45" on="0"/>
        <pt x="518" y="198" on="0"/>
        <pt x="518" y="331" on="1"/>
        <pt x="518" y="464" on="0"/>
        <pt x="393" y="614" on="0"/>
        <pt x="267" y="614" on="1"/>
        <pt x="170" y="614" on="1"/>
        <pt x="170" y="366" on="1"/>
        <pt x="330" y="366" on="1"/>
        <pt x="330" y="330" on="1"/>
        <pt x="170" y="330" on="1"/>
        <pt x="170" y="45" on="1"/>
        <pt x="267" y="45" on="1"/>
      </contour>
    </TTGlyph>
    <TTGlyph name="Euro" xMin="23" yMin="-12" xMax="477" yMax="651">
      <contour>
        <pt x="477" y="82" on="1"/>
        <pt x="444" y="36" on="0"/>
        <pt x="363" y="-12" on="0"/>
        <pt x="310" y="-12" on="1"/>
        <pt x="222" y="-12" on="0"/>
        <pt x="104" y="125" on="0"/>
        <pt x="89" y="244" on="1"/>
        <pt x="23" y="244" on="1"/>
        <pt x="23" y="276" on="1"/>
        <pt x="85" y="280" on="1"/>
        <pt x="84" y="293" on="0"/>
        <pt x="84" y="320" on="1"/>
        <pt x="84" y="344" on="0"/>
        <pt x="85" y="355" on="1"/>
        <pt x="23" y="355" on="1"/>
        <pt x="23" y="387" on="1"/>
        <pt x="88" y="391" on="1"/>
        <pt x="103" y="513" on="0"/>
        <pt x="228" y="651" on="0"/>
        <pt x="325" y="651" on="1"/>
        <pt x="368" y="651" on="0"/>
        <pt x="443" y="607" on="0"/>
        <pt x="468" y="573" on="1"/>
        <pt x="435" y="542" on="1"/>
        <pt x="387" y="607" on="0"/>
        <pt x="324" y="607" on="1"/>
        <pt x="249" y="607" on="0"/>
        <pt x="155" y="493" on="0"/>
        <pt x="143" y="391" on="1"/>
        <pt x="416" y="391" on="1"/>
        <pt x="416" y="355" on="1"/>
        <pt x="140" y="355" on="1"/>
        <pt x="139" y="344" on="0"/>
        <pt x="139" y="321" on="1"/>
        <pt x="139" y="293" on="0"/>
        <pt x="140" y="280" on="1"/>
        <pt x="376" y="280" on="1"/>
        <pt x="376" y="244" on="1"/>
        <pt x="144" y="244" on="1"/>
        <pt x="156" y="144" on="0"/>
        <pt x="244" y="32" on="0"/>
        <pt x="313" y="32" on="1"/>
        <pt x="353" y="32" on="0"/>
        <pt x="415" y="70" on="0"/>
        <pt x="445" y="110" on="1"/>
      </contour>
    </TTGlyph>
    <TTGlyph name="Euro.001" xMin="23" yMin="-12" xMax="477" yMax="651">
      <contour>
        <pt x="477" y="82" on="1"/>
        <pt x="444" y="36" on="0"/>
        <pt x="363" y="-12" on="0"/>
        <pt x="310" y="-12" on="1"/>
        <pt x="222" y="-12" on="0"/>
        <pt x="104" y="125" on="0"/>
        <pt x="89" y="244" on="1"/>
        <pt x="23" y="244" on="1"/>
        <pt x="23" y="276" on="1"/>
        <pt x="85" y="280" on="1"/>
        <pt x="84" y="293" on="0"/>
        <pt x="84" y="320" on="1"/>
        <pt x="84" y="344" on="0"/>
        <pt x="85" y="355" on="1"/>
        <pt x="23" y="355" on="1"/>
        <pt x="23" y="387" on="1"/>
        <pt x="88" y="391" on="1"/>
        <pt x="103" y="513" on="0"/>
        <pt x="228" y="651" on="0"/>
        <pt x="325" y="651" on="1"/>
        <pt x="368" y="651" on="0"/>
        <pt x="443" y="607" on="0"/>
        <pt x="468" y="573" on="1"/>
        <pt x="435" y="542" on="1"/>
        <pt x="387" y="607" on="0"/>
        <pt x="324" y="607" on="1"/>
        <pt x="249" y="607" on="0"/>
        <pt x="155" y="493" on="0"/>
        <pt x="143" y="391" on="1"/>
        <pt x="416" y="391" on="1"/>
        <pt x="416" y="355" on="1"/>
        <pt x="140" y="355" on="1"/>
        <pt x="139" y="344" on="0"/>
        <pt x="139" y="321" on="1"/>
        <pt x="139" y="293" on="0"/>
        <pt x="140" y="280" on="1"/>
        <pt x="376" y="280" on="1"/>
        <pt x="376" y="244" on="1"/>
        <pt x="144" y="244" on="1"/>
        <pt x="156" y="144" on="0"/>
        <pt x="244" y="32" on="0"/>
        <pt x="313" y="32" on="1"/>
        <pt x="353" y="32" on="0"/>
        <pt x="415" y="70" on="0"/>
        <pt x="445" y="110" on="1"/>
      </contour>
    </TTGlyph>
    <TTGlyph name="Euro.lat" xMin="23" yMin="-12" xMax="477" yMax="651">
      <contour>
        <pt x="477" y="82" on="1"/>
        <pt x="444" y="36" on="0"/>
        <pt x="363" y="-12" on="0"/>
        <pt x="310" y="-12" on="1"/>
        <pt x="222" y="-12" on="0"/>
        <pt x="104" y="125" on="0"/>
        <pt x="89" y="244" on="1"/>
        <pt x="23" y="244" on="1"/>
        <pt x="23" y="276" on="1"/>
        <pt x="85" y="280" on="1"/>
        <pt x="84" y="293" on="0"/>
        <pt x="84" y="320" on="1"/>
        <pt x="84" y="344" on="0"/>
        <pt x="85" y="355" on="1"/>
        <pt x="23" y="355" on="1"/>
        <pt x="23" y="387" on="1"/>
        <pt x="88" y="391" on="1"/>
        <pt x="103" y="513" on="0"/>
        <pt x="228" y="651" on="0"/>
        <pt x="325" y="651" on="1"/>
        <pt x="368" y="651" on="0"/>
        <pt x="443" y="607" on="0"/>
        <pt x="468" y="573" on="1"/>
        <pt x="435" y="542" on="1"/>
        <pt x="387" y="607" on="0"/>
        <pt x="324" y="607" on="1"/>
        <pt x="249" y="607" on="0"/>
        <pt x="155" y="493" on="0"/>
        <pt x="143" y="391" on="1"/>
        <pt x="416" y="391" on="1"/>
        <pt x="416" y="355" on="1"/>
        <pt x="140" y="355" on="1"/>
        <pt x="139" y="344" on="0"/>
        <pt x="139" y="321" on="1"/>
        <pt x="139" y="293" on="0"/>
        <pt x="140" y="280" on="1"/>
        <pt x="376" y="280" on="1"/>
        <pt x="376" y="244" on="1"/>
        <pt x="144" y="244" on="1"/>
        <pt x="156" y="144" on="0"/>
        <pt x="244" y="32" on="0"/>
        <pt x="313" y="32" on="1"/>
        <pt x="353" y="32" on="0"/>
        <pt x="415" y="70" on="0"/>
        <pt x="445" y="110" on="1"/>
      </contour>
    </TTGlyph>
    <TTGlyph name="Euro.lat.001" xMin="23" yMin="-12" xMax="477" yMax="651">
      <contour>
        <pt x="477" y="82" on="1"/>
        <pt x="444" y="36" on="0"/>
        <pt x="363" y="-12" on="0"/>
        <pt x="310" y="-12" on="1"/>
        <pt x="222" y="-12" on="0"/>
        <pt x="104" y="125" on="0"/>
        <pt x="89" y="244" on="1"/>
        <pt x="23" y="244" on="1"/>
        <pt x="23" y="276" on="1"/>
        <pt x="85" y="280" on="1"/>
        <pt x="84" y="293" on="0"/>
        <pt x="84" y="320" on="1"/>
        <pt x="84" y="344" on="0"/>
        <pt x="85" y="355" on="1"/>
        <pt x="23" y="355" on="1"/>
        <pt x="23" y="387" on="1"/>
        <pt x="88" y="391" on="1"/>
        <pt x="103" y="513" on="0"/>
        <pt x="228" y="651" on="0"/>
        <pt x="325" y="651" on="1"/>
        <pt x="368" y="651" on="0"/>
        <pt x="443" y="607" on="0"/>
        <pt x="468" y="573" on="1"/>
        <pt x="435" y="542" on="1"/>
        <pt x="387" y="607" on="0"/>
        <pt x="324" y="607" on="1"/>
        <pt x="249" y="607" on="0"/>
        <pt x="155" y="493" on="0"/>
        <pt x="143" y="391" on="1"/>
        <pt x="416" y="391" on="1"/>
        <pt x="416" y="355" on="1"/>
        <pt x="140" y="355" on="1"/>
        <pt x="139" y="344" on="0"/>
        <pt x="139" y="321" on="1"/>
        <pt x="139" y="293" on="0"/>
        <pt x="140" y="280" on="1"/>
        <pt x="376" y="280" on="1"/>
        <pt x="376" y="244" on="1"/>
        <pt x="144" y="244" on="1"/>
        <pt x="156" y="144" on="0"/>
        <pt x="244" y="32" on="0"/>
        <pt x="313" y="32" on="1"/>
        <pt x="353" y="32" on="0"/>
        <pt x="415" y="70" on="0"/>
        <pt x="445" y="110" on="1"/>
      </contour>
    </TTGlyph>
    <TTGlyph name="F" xMin="96" yMin="0" xMax="459" yMax="658">
      <contour>
        <pt x="96" y="658" on="1"/>
        <pt x="459" y="658" on="1"/>
        <pt x="459" y="613" on="1"/>
        <pt x="149" y="613" on="1"/>
        <pt x="149" y="358" on="1"/>
        <pt x="411" y="358" on="1"/>
        <pt x="411" y="313" on="1"/>
        <pt x="149" y="313" on="1"/>
        <pt x="149" y="0" on="1"/>
        <pt x="96" y="0" on="1"/>
      </contour>
    </TTGlyph>
    <TTGlyph name="G" xMin="54" yMin="-12" xMax="536" yMax="671">
      <contour>
        <pt x="255" y="-12" on="0"/>
        <pt x="125" y="72" on="0"/>
        <pt x="54" y="226" on="0"/>
        <pt x="54" y="330" on="1"/>
        <pt x="54" y="433" on="0"/>
        <pt x="128" y="588" on="0"/>
        <pt x="260" y="671" on="0"/>
        <pt x="347" y="671" on="1"/>
        <pt x="453" y="671" on="0"/>
        <pt x="529" y="591" on="1"/>
        <pt x="498" y="556" on="1"/>
        <pt x="438" y="623" on="0"/>
        <pt x="348" y="623" on="1"/>
        <pt x="275" y="623" on="0"/>
        <pt x="167" y="552" on="0"/>
        <pt x="109" y="420" on="0"/>
        <pt x="109" y="331" on="1"/>
        <pt x="109" y="195" on="0"/>
        <pt x="234" y="36" on="0"/>
        <pt x="344" y="36" on="1"/>
        <pt x="387" y="36" on="0"/>
        <pt x="463" y="61" on="0"/>
        <pt x="486" y="83" on="1"/>
        <pt x="486" y="282" on="1"/>
        <pt x="332" y="282" on="1"/>
        <pt x="332" y="327" on="1"/>
        <pt x="536" y="327" on="1"/>
        <pt x="536" y="63" on="1"/>
        <pt x="504" y="29" on="0"/>
        <pt x="402" y="-12" on="0"/>
        <pt x="340" y="-12" on="1"/>
      </contour>
    </TTGlyph>
    <TTGlyph name="Gcaron" xMin="54" yMin="-12" xMax="536" yMax="842">
      <component glyphName="G" x="0" y="0" flags="0x0"/>
      <component glyphName="uni030C.cap" x="346" y="0" flags="0x0"/>
    </TTGlyph>
    <TTGlyph name="Gdotaccent" xMin="54" yMin="-12" xMax="536" yMax="805">
      <component glyphName="G" x="0" y="0" flags="0x0"/>
      <component glyphName="uni0307.cap" x="346" y="0" flags="0x0"/>
    </TTGlyph>
    <TTGlyph name="H" xMin="96" yMin="0" xMax="546" yMax="658">
      <contour>
        <pt x="96" y="658" on="1"/>
        <pt x="149" y="658" on="1"/>
        <pt x="149" y="372" on="1"/>
        <pt x="493" y="372" on="1"/>
        <pt x="493" y="658" on="1"/>
        <pt x="546" y="658" on="1"/>
        <pt x="546" y="0" on="1"/>
        <pt x="493" y="0" on="1"/>
        <pt x="493" y="326" on="1"/>
        <pt x="149" y="326" on="1"/>
        <pt x="149" y="0" on="1"/>
        <pt x="96" y="0" on="1"/>
      </contour>
    </TTGlyph>
    <TTGlyph name="Hbar" xMin="36" yMin="0" xMax="639" yMax="658">
      <contour>
        <pt x="639" y="494" on="1"/>
        <pt x="566" y="494" on="1"/>
        <pt x="566" y="0" on="1"/>
        <pt x="513" y="0" on="1"/>
        <pt x="513" y="326" on="1"/>
        <pt x="169" y="326" on="1"/>
        <pt x="169" y="0" on="1"/>
        <pt x="116" y="0" on="1"/>
        <pt x="116" y="494" on="1"/>
        <pt x="36" y="494" on="1"/>
        <pt x="36" y="526" on="1"/>
        <pt x="116" y="530" on="1"/>
        <pt x="116" y="658" on="1"/>
        <pt x="169" y="658" on="1"/>
        <pt x="169" y="530" on="1"/>
        <pt x="513" y="530" on="1"/>
        <pt x="513" y="658" on="1"/>
        <pt x="566" y="658" on="1"/>
        <pt x="566" y="530" on="1"/>
        <pt x="639" y="530" on="1"/>
      </contour>
      <contour>
        <pt x="513" y="494" on="1"/>
        <pt x="169" y="494" on="1"/>
        <pt x="169" y="372" on="1"/>
        <pt x="513" y="372" on="1"/>
      </contour>
    </TTGlyph>
    <TTGlyph name="I" xMin="96" yMin="0" xMax="149" yMax="658">
      <contour>
        <pt x="96" y="658" on="1"/>
        <pt x="149" y="658" on="1"/>
        <pt x="149" y="0" on="1"/>
        <pt x="96" y="0" on="1"/>
      </contour>
    </TTGlyph>
    <TTGlyph name="Iacute" xMin="79" yMin="0" xMax="238" yMax="855">
      <component glyphName="I" x="0" y="0" flags="0x0"/>
      <component glyphName="acutecomb.cap" x="122" y="0" flags="0x0"/>
    </TTGlyph>
    <TTGlyph name="Icircumflex" xMin="-15" yMin="0" xMax="259" yMax="839">
      <component glyphName="I" x="0" y="0" flags="0x0"/>
      <component glyphName="uni0302.cap" x="122" y="0" flags="0x0"/>
    </TTGlyph>
    <TTGlyph name="Idieresis" xMin="-15" yMin="0" xMax="260" yMax="801">
      <component glyphName="I" x="0" y="0" flags="0x0"/>
      <component glyphName="uni0308.cap" x="122" y="0" flags="0x0"/>
    </TTGlyph>
    <TTGlyph name="Igrave" xMin="6" yMin="0" xMax="166" yMax="855">
      <component glyphName="I" x="0" y="0" flags="0x0"/>
      <component glyphName="gravecomb.cap" x="122" y="0" flags="0x0"/>
    </TTGlyph>
    <TTGlyph name="Imacron" xMin="-3" yMin="0" xMax="248" yMax="781">
      <component glyphName="I" x="0" y="0" flags="0x0"/>
      <component glyphName="uni0304.cap" x="122" y="0" flags="0x0"/>
    </TTGlyph>
    <TTGlyph name="J" xMin="39" yMin="-12" xMax="372" yMax="658">
      <contour>
        <pt x="149" y="-12" on="0"/>
        <pt x="65" y="38" on="0"/>
        <pt x="39" y="86" on="1"/>
        <pt x="79" y="113" on="1"/>
        <pt x="102" y="72" on="0"/>
        <pt x="162" y="36" on="0"/>
        <pt x="203" y="36" on="1"/>
        <pt x="262" y="36" on="0"/>
        <pt x="319" y="109" on="0"/>
        <pt x="319" y="187" on="1"/>
        <pt x="319" y="658" on="1"/>
        <pt x="372" y="658" on="1"/>
        <pt x="372" y="182" on="1"/>
        <pt x="372" y="95" on="0"/>
        <pt x="291" y="-12" on="0"/>
        <pt x="205" y="-12" on="1"/>
      </contour>
    </TTGlyph>
    <TTGlyph name="K" xMin="96" yMin="0" xMax="553" yMax="658">
      <contour>
        <pt x="96" y="658" on="1"/>
        <pt x="149" y="658" on="1"/>
        <pt x="149" y="299" on="1"/>
        <pt x="151" y="299" on="1"/>
        <pt x="462" y="658" on="1"/>
        <pt x="524" y="658" on="1"/>
        <pt x="314" y="413" on="1"/>
        <pt x="553" y="0" on="1"/>
        <pt x="493" y="0" on="1"/>
        <pt x="279" y="372" on="1"/>
        <pt x="149" y="223" on="1"/>
        <pt x="149" y="0" on="1"/>
        <pt x="96" y="0" on="1"/>
      </contour>
    </TTGlyph>
    <TTGlyph name="L" xMin="96" yMin="0" xMax="449" yMax="658">
      <contour>
        <pt x="96" y="658" on="1"/>
        <pt x="149" y="658" on="1"/>
        <pt x="149" y="45" on="1"/>
        <pt x="449" y="45" on="1"/>
        <pt x="449" y="0" on="1"/>
        <pt x="96" y="0" on="1"/>
      </contour>
    </TTGlyph>
    <TTGlyph name="Lslash" xMin="2" yMin="0" xMax="454" yMax="658">
      <contour>
        <pt x="454" y="45" on="1"/>
        <pt x="454" y="0" on="1"/>
        <pt x="101" y="0" on="1"/>
        <pt x="101" y="254" on="1"/>
        <pt x="23" y="212" on="1"/>
        <pt x="2" y="248" on="1"/>
        <pt x="101" y="300" on="1"/>
        <pt x="101" y="658" on="1"/>
        <pt x="154" y="658" on="1"/>
        <pt x="154" y="324" on="1"/>
        <pt x="337" y="421" on="1"/>
        <pt x="358" y="385" on="1"/>
        <pt x="154" y="279" on="1"/>
        <pt x="154" y="45" on="1"/>
      </contour>
    </TTGlyph>
    <TTGlyph name="M" xMin="96" yMin="0" xMax="614" yMax="658">
      <contour>
        <pt x="96" y="658" on="1"/>
        <pt x="168" y="658" on="1"/>
        <pt x="303" y="279" on="1"/>
        <pt x="354" y="134" on="1"/>
        <pt x="358" y="134" on="1"/>
        <pt x="372" y="174" on="0"/>
        <pt x="378" y="194" on="1"/>
        <pt x="383" y="209" on="0"/>
        <pt x="398" y="252" on="0"/>
        <pt x="408" y="279" on="1"/>
        <pt x="542" y="658" on="1"/>
        <pt x="614" y="658" on="1"/>
        <pt x="614" y="0" on="1"/>
        <pt x="564" y="0" on="1"/>
        <pt x="564" y="420" on="1"/>
        <pt x="564" y="489" on="0"/>
        <pt x="570" y="601" on="1"/>
        <pt x="566" y="601" on="1"/>
        <pt x="515" y="453" on="1"/>
        <pt x="376" y="71" on="1"/>
        <pt x="333" y="71" on="1"/>
        <pt x="194" y="453" on="1"/>
        <pt x="142" y="601" on="1"/>
        <pt x="138" y="601" on="1"/>
        <pt x="145" y="470" on="0"/>
        <pt x="145" y="420" on="1"/>
        <pt x="145" y="0" on="1"/>
        <pt x="96" y="0" on="1"/>
      </contour>
    </TTGlyph>
    <TTGlyph name="N" xMin="96" yMin="0" xMax="542" yMax="658">
      <contour>
        <pt x="96" y="658" on="1"/>
        <pt x="151" y="658" on="1"/>
        <pt x="421" y="204" on="1"/>
        <pt x="495" y="71" on="1"/>
        <pt x="499" y="71" on="1"/>
        <pt x="497" y="109" on="1"/>
        <pt x="496" y="129" on="0"/>
        <pt x="492" y="228" on="0"/>
        <pt x="492" y="267" on="1"/>
        <pt x="492" y="658" on="1"/>
        <pt x="542" y="658" on="1"/>
        <pt x="542" y="0" on="1"/>
        <pt x="487" y="0" on="1"/>
        <pt x="217" y="455" on="1"/>
        <pt x="143" y="587" on="1"/>
        <pt x="139" y="587" on="1"/>
        <pt x="141" y="549" on="1"/>
        <pt x="142" y="531" on="0"/>
        <pt x="146" y="436" on="0"/>
        <pt x="146" y="397" on="1"/>
        <pt x="146" y="0" on="1"/>
        <pt x="96" y="0" on="1"/>
      </contour>
    </TTGlyph>
    <TTGlyph name="Ntilde" xMin="96" yMin="0" xMax="542" yMax="836">
      <component glyphName="N" x="0" y="0" flags="0x0"/>
      <component glyphName="tildecomb.cap" x="324" y="0" flags="0x0"/>
    </TTGlyph>
    <TTGlyph name="O" xMin="54" yMin="-12" xMax="600" yMax="671">
      <contour>
        <pt x="248" y="-12" on="0"/>
        <pt x="124" y="73" on="0"/>
        <pt x="54" y="228" on="0"/>
        <pt x="54" y="331" on="1"/>
        <pt x="54" y="434" on="0"/>
        <pt x="124" y="588" on="0"/>
        <pt x="248" y="671" on="0"/>
        <pt x="327" y="671" on="1"/>
        <pt x="407" y="671" on="0"/>
        <pt x="531" y="588" on="0"/>
        <pt x="600" y="434" on="0"/>
        <pt x="600" y="331" on="1"/>
        <pt x="600" y="228" on="0"/>
        <pt x="531" y="73" on="0"/>
        <pt x="407" y="-12" on="0"/>
        <pt x="327" y="-12" on="1"/>
      </contour>
      <contour>
        <pt x="392" y="36" on="0"/>
        <pt x="490" y="109" on="0"/>
        <pt x="545" y="243" on="0"/>
        <pt x="545" y="331" on="1"/>
        <pt x="545" y="420" on="0"/>
        <pt x="490" y="552" on="0"/>
        <pt x="392" y="623" on="0"/>
        <pt x="327" y="623" on="1"/>
        <pt x="262" y="623" on="0"/>
        <pt x="163" y="552" on="0"/>
        <pt x="109" y="420" on="0"/>
        <pt x="109" y="331" on="1"/>
        <pt x="109" y="242" on="0"/>
        <pt x="163" y="109" on="0"/>
        <pt x="262" y="36" on="0"/>
        <pt x="327" y="36" on="1"/>
      </contour>
    </TTGlyph>
    <TTGlyph name="OE" xMin="54" yMin="0" xMax="788" yMax="658">
      <contour>
        <pt x="215" y="0" on="0"/>
        <pt x="54" y="177" on="0"/>
        <pt x="54" y="331" on="1"/>
        <pt x="54" y="485" on="0"/>
        <pt x="215" y="658" on="0"/>
        <pt x="369" y="658" on="1"/>
        <pt x="778" y="658" on="1"/>
        <pt x="778" y="613" on="1"/>
        <pt x="486" y="613" on="1"/>
        <pt x="486" y="372" on="1"/>
        <pt x="729" y="372" on="1"/>
        <pt x="729" y="326" on="1"/>
        <pt x="486" y="326" on="1"/>
        <pt x="486" y="45" on="1"/>
        <pt x="788" y="45" on="1"/>
        <pt x="788" y="0" on="1"/>
        <pt x="367" y="0" on="1"/>
      </contour>
      <contour>
        <pt x="433" y="45" on="1"/>
        <pt x="433" y="614" on="1"/>
        <pt x="373" y="614" on="1"/>
        <pt x="242" y="614" on="0"/>
        <pt x="109" y="463" on="0"/>
        <pt x="109" y="331" on="1"/>
        <pt x="109" y="198" on="0"/>
        <pt x="243" y="45" on="0"/>
        <pt x="373" y="45" on="1"/>
      </contour>
    </TTGlyph>
    <TTGlyph name="Oacute" xMin="54" yMin="-12" xMax="600" yMax="855">
      <component glyphName="O" x="0" y="0" flags="0x0"/>
      <component glyphName="acutecomb.cap" x="327" y="0" flags="0x0"/>
    </TTGlyph>
    <TTGlyph name="Obreve" xMin="54" yMin="-12" xMax="600" yMax="840">
      <component glyphName="O" x="0" y="0" flags="0x0"/>
      <component glyphName="uni0306.cap" x="327" y="0" flags="0x0"/>
    </TTGlyph>
    <TTGlyph name="Ocircumflex" xMin="54" yMin="-12" xMax="600" yMax="839">
      <component glyphName="O" x="0" y="0" flags="0x0"/>
      <component glyphName="uni0302.cap" x="327" y="0" flags="0x0"/>
    </TTGlyph>
    <TTGlyph name="Odieresis" xMin="54" yMin="-12" xMax="600" yMax="801">
      <component glyphName="O" x="0" y="0" flags="0x0"/>
      <component glyphName="uni0308.cap" x="327" y="0" flags="0x0"/>
    </TTGlyph>
    <TTGlyph name="Ograve" xMin="54" yMin="-12" xMax="600" yMax="855">
      <component glyphName="O" x="0" y="0" flags="0x0"/>
      <component glyphName="gravecomb.cap" x="327" y="0" flags="0x0"/>
    </TTGlyph>
    <TTGlyph name="Omacron" xMin="54" yMin="-12" xMax="600" yMax="781">
      <component glyphName="O" x="0" y="0" flags="0x0"/>
      <component glyphName="uni0304.cap" x="327" y="0" flags="0x0"/>
    </TTGlyph>
    <TTGlyph name="Oslash" xMin="55" yMin="-24" xMax="603" yMax="682">
      <contour>
        <pt x="567" y="526" on="0"/>
        <pt x="603" y="404" on="0"/>
        <pt x="603" y="331" on="1"/>
        <pt x="603" y="228" on="0"/>
        <pt x="534" y="73" on="0"/>
        <pt x="410" y="-12" on="0"/>
        <pt x="330" y="-12" on="1"/>
        <pt x="278" y="-12" on="0"/>
        <pt x="186" y="26" on="0"/>
        <pt x="151" y="62" on="1"/>
        <pt x="87" y="-24" on="1"/>
        <pt x="55" y="0" on="1"/>
        <pt x="125" y="93" on="1"/>
        <pt x="57" y="186" on="0"/>
        <pt x="57" y="331" on="1"/>
        <pt x="57" y="434" on="0"/>
        <pt x="127" y="588" on="0"/>
        <pt x="251" y="671" on="0"/>
        <pt x="330" y="671" on="1"/>
        <pt x="434" y="671" on="0"/>
        <pt x="507" y="601" on="1"/>
        <pt x="568" y="682" on="1"/>
        <pt x="600" y="659" on="1"/>
        <pt x="534" y="570" on="1"/>
      </contour>
      <contour>
        <pt x="112" y="216" on="0"/>
        <pt x="158" y="137" on="1"/>
        <pt x="476" y="559" on="1"/>
        <pt x="417" y="623" on="0"/>
        <pt x="330" y="623" on="1"/>
        <pt x="265" y="623" on="0"/>
        <pt x="166" y="552" on="0"/>
        <pt x="112" y="420" on="0"/>
        <pt x="112" y="331" on="1"/>
      </contour>
      <contour>
        <pt x="395" y="36" on="0"/>
        <pt x="493" y="109" on="0"/>
        <pt x="548" y="243" on="0"/>
        <pt x="548" y="331" on="1"/>
        <pt x="548" y="450" on="0"/>
        <pt x="500" y="526" on="1"/>
        <pt x="182" y="103" on="1"/>
        <pt x="241" y="36" on="0"/>
        <pt x="330" y="36" on="1"/>
      </contour>
    </TTGlyph>
    <TTGlyph name="Otilde" xMin="54" yMin="-12" xMax="600" yMax="836">
      <component glyphName="O" x="0" y="0" flags="0x0"/>
      <component glyphName="tildecomb.cap" x="327" y="0" flags="0x0"/>
    </TTGlyph>
    <TTGlyph name="P" xMin="96" yMin="0" xMax="506" yMax="658">
      <contour>
        <pt x="96" y="658" on="1"/>
        <pt x="266" y="658" on="1"/>
        <pt x="383" y="658" on="0"/>
        <pt x="506" y="572" on="0"/>
        <pt x="506" y="473" on="1"/>
        <pt x="506" y="377" on="0"/>
        <pt x="382" y="279" on="0"/>
        <pt x="270" y="279" on="1"/>
        <pt x="149" y="279" on="1"/>
        <pt x="149" y="0" on="1"/>
        <pt x="96" y="0" on="1"/>
      </contour>
      <contour>
        <pt x="259" y="323" on="1"/>
        <pt x="357" y="323" on="0"/>
        <pt x="452" y="395" on="0"/>
        <pt x="452" y="473" on="1"/>
        <pt x="452" y="551" on="0"/>
        <pt x="358" y="614" on="0"/>
        <pt x="255" y="614" on="1"/>
        <pt x="149" y="614" on="1"/>
        <pt x="149" y="323" on="1"/>
      </contour>
    </TTGlyph>
    <TTGlyph name="Q" xMin="54" yMin="-157" xMax="605" yMax="671">
      <contour>
        <pt x="605" y="-145" on="1"/>
        <pt x="571" y="-157" on="0"/>
        <pt x="522" y="-157" on="1"/>
        <pt x="441" y="-157" on="0"/>
        <pt x="326" y="-77" on="0"/>
        <pt x="299" y="-11" on="1"/>
        <pt x="227" y="-4" on="0"/>
        <pt x="116" y="85" on="0"/>
        <pt x="54" y="234" on="0"/>
        <pt x="54" y="331" on="1"/>
        <pt x="54" y="434" on="0"/>
        <pt x="124" y="588" on="0"/>
        <pt x="248" y="671" on="0"/>
        <pt x="327" y="671" on="1"/>
        <pt x="407" y="671" on="0"/>
        <pt x="531" y="588" on="0"/>
        <pt x="600" y="434" on="0"/>
        <pt x="600" y="331" on="1"/>
        <pt x="600" y="235" on="0"/>
        <pt x="539" y="86" on="0"/>
        <pt x="429" y="-2" on="0"/>
        <pt x="358" y="-10" on="1"/>
        <pt x="380" y="-58" on="0"/>
        <pt x="467" y="-110" on="0"/>
        <pt x="527" y="-110" on="1"/>
        <pt x="565" y="-110" on="0"/>
        <pt x="594" y="-101" on="1"/>
      </contour>
      <contour>
        <pt x="109" y="242" on="0"/>
        <pt x="163" y="107" on="0"/>
        <pt x="262" y="33" on="0"/>
        <pt x="327" y="33" on="1"/>
        <pt x="391" y="33" on="0"/>
        <pt x="490" y="107" on="0"/>
        <pt x="545" y="242" on="0"/>
        <pt x="545" y="331" on="1"/>
        <pt x="545" y="420" on="0"/>
        <pt x="490" y="552" on="0"/>
        <pt x="392" y="623" on="0"/>
        <pt x="327" y="623" on="1"/>
        <pt x="262" y="623" on="0"/>
        <pt x="163" y="552" on="0"/>
        <pt x="109" y="420" on="0"/>
        <pt x="109" y="331" on="1"/>
      </contour>
    </TTGlyph>
    <TTGlyph name="R" xMin="96" yMin="0" xMax="521" yMax="658">
      <contour>
        <pt x="459" y="0" on="1"/>
        <pt x="285" y="298" on="1"/>
        <pt x="149" y="298" on="1"/>
        <pt x="149" y="0" on="1"/>
        <pt x="96" y="0" on="1"/>
        <pt x="96" y="658" on="1"/>
        <pt x="288" y="658" on="1"/>
        <pt x="507" y="658" on="0"/>
        <pt x="507" y="482" on="1"/>
        <pt x="507" y="406" on="0"/>
        <pt x="420" y="314" on="0"/>
        <pt x="342" y="302" on="1"/>
        <pt x="521" y="0" on="1"/>
      </contour>
      <contour>
        <pt x="149" y="342" on="1"/>
        <pt x="276" y="342" on="1"/>
        <pt x="362" y="342" on="0"/>
        <pt x="453" y="412" on="0"/>
        <pt x="453" y="482" on="1"/>
        <pt x="453" y="552" on="0"/>
        <pt x="364" y="614" on="0"/>
        <pt x="276" y="614" on="1"/>
        <pt x="149" y="614" on="1"/>
      </contour>
    </TTGlyph>
    <TTGlyph name="S" xMin="46" yMin="-12" xMax="483" yMax="671">
      <contour>
        <pt x="201" y="-12" on="0"/>
        <pt x="88" y="41" on="0"/>
        <pt x="46" y="87" on="1"/>
        <pt x="79" y="123" on="1"/>
        <pt x="116" y="82" on="0"/>
        <pt x="215" y="36" on="0"/>
        <pt x="271" y="36" on="1"/>
        <pt x="343" y="36" on="0"/>
        <pt x="429" y="106" on="0"/>
        <pt x="429" y="163" on="1"/>
        <pt x="429" y="201" on="0"/>
        <pt x="400" y="249" on="0"/>
        <pt x="353" y="279" on="0"/>
        <pt x="313" y="297" on="1"/>
        <pt x="214" y="341" on="1"/>
        <pt x="156" y="366" on="0"/>
        <pt x="80" y="441" on="0"/>
        <pt x="80" y="506" on="1"/>
        <pt x="80" y="553" on="0"/>
        <pt x="131" y="629" on="0"/>
        <pt x="220" y="671" on="0"/>
        <pt x="275" y="671" on="1"/>
        <pt x="331" y="671" on="0"/>
        <pt x="427" y="627" on="0"/>
        <pt x="460" y="591" on="1"/>
        <pt x="430" y="556" on="1"/>
        <pt x="366" y="623" on="0"/>
        <pt x="275" y="623" on="1"/>
        <pt x="211" y="623" on="0"/>
        <pt x="134" y="561" on="0"/>
        <pt x="134" y="509" on="1"/>
        <pt x="134" y="475" on="0"/>
        <pt x="167" y="428" on="0"/>
        <pt x="211" y="401" on="0"/>
        <pt x="246" y="385" on="1"/>
        <pt x="345" y="342" on="1"/>
        <pt x="411" y="313" on="0"/>
        <pt x="483" y="235" on="0"/>
        <pt x="483" y="167" on="1"/>
        <pt x="483" y="117" on="0"/>
        <pt x="430" y="35" on="0"/>
        <pt x="334" y="-12" on="0"/>
        <pt x="270" y="-12" on="1"/>
      </contour>
    </TTGlyph>
    <TTGlyph name="Sacute" xMin="46" yMin="-12" xMax="483" yMax="855">
      <component glyphName="S" x="0" y="0" flags="0x0"/>
      <component glyphName="acutecomb.cap" x="272" y="0" flags="0x0"/>
    </TTGlyph>
    <TTGlyph name="Scaron" xMin="46" yMin="-12" xMax="483" yMax="842">
      <component glyphName="S" x="0" y="0" flags="0x0"/>
      <component glyphName="uni030C.cap" x="272" y="0" flags="0x0"/>
    </TTGlyph>
    <TTGlyph name="T" xMin="29" yMin="0" xMax="497" yMax="658">
      <contour>
        <pt x="237" y="613" on="1"/>
        <pt x="29" y="613" on="1"/>
        <pt x="29" y="658" on="1"/>
        <pt x="497" y="658" on="1"/>
        <pt x="497" y="613" on="1"/>
        <pt x="290" y="613" on="1"/>
        <pt x="290" y="0" on="1"/>
        <pt x="237" y="0" on="1"/>
      </contour>
    </TTGlyph>
    <TTGlyph name="Thorn" xMin="96" yMin="0" xMax="516" yMax="658">
      <contour>
        <pt x="96" y="658" on="1"/>
        <pt x="149" y="658" on="1"/>
        <pt x="149" y="542" on="1"/>
        <pt x="280" y="542" on="1"/>
        <pt x="396" y="542" on="0"/>
        <pt x="516" y="456" on="0"/>
        <pt x="516" y="357" on="1"/>
        <pt x="516" y="261" on="0"/>
        <pt x="392" y="163" on="0"/>
        <pt x="280" y="163" on="1"/>
        <pt x="149" y="163" on="1"/>
        <pt x="149" y="0" on="1"/>
        <pt x="96" y="0" on="1"/>
      </contour>
      <contour>
        <pt x="269" y="207" on="1"/>
        <pt x="368" y="207" on="0"/>
        <pt x="462" y="278" on="0"/>
        <pt x="462" y="357" on="1"/>
        <pt x="462" y="435" on="0"/>
        <pt x="370" y="498" on="0"/>
        <pt x="269" y="498" on="1"/>
        <pt x="149" y="498" on="1"/>
        <pt x="149" y="207" on="1"/>
      </contour>
    </TTGlyph>
    <TTGlyph name="U" xMin="93" yMin="-12" xMax="542" yMax="658">
      <contour>
        <pt x="218" y="-12" on="0"/>
        <pt x="93" y="113" on="0"/>
        <pt x="93" y="256" on="1"/>
        <pt x="93" y="658" on="1"/>
        <pt x="146" y="658" on="1"/>
        <pt x="146" y="260" on="1"/>
        <pt x="146" y="140" on="0"/>
        <pt x="240" y="36" on="0"/>
        <pt x="317" y="36" on="1"/>
        <pt x="396" y="36" on="0"/>
        <pt x="492" y="140" on="0"/>
        <pt x="492" y="260" on="1"/>
        <pt x="492" y="658" on="1"/>
        <pt x="542" y="658" on="1"/>
        <pt x="542" y="256" on="1"/>
        <pt x="542" y="113" on="0"/>
        <pt x="416" y="-12" on="0"/>
        <pt x="317" y="-12" on="1"/>
      </contour>
    </TTGlyph>
    <TTGlyph name="Uacute" xMin="93" yMin="-12" xMax="542" yMax="855">
      <component glyphName="U" x="0" y="0" flags="0x0"/>
      <component glyphName="acutecomb.cap" x="317" y="0" flags="0x0"/>
    </TTGlyph>
    <TTGlyph name="Ucircumflex" xMin="93" yMin="-12" xMax="542" yMax="839">
      <component glyphName="U" x="0" y="0" flags="0x0"/>
      <component glyphName="uni0302.cap" x="317" y="0" flags="0x0"/>
    </TTGlyph>
    <TTGlyph name="Udieresis" xMin="93" yMin="-12" xMax="542" yMax="801">
      <component glyphName="U" x="0" y="0" flags="0x0"/>
      <component glyphName="uni0308.cap" x="317" y="0" flags="0x0"/>
    </TTGlyph>
    <TTGlyph name="Ugrave" xMin="93" yMin="-12" xMax="542" yMax="855">
      <component glyphName="U" x="0" y="0" flags="0x0"/>
      <component glyphName="gravecomb.cap" x="317" y="0" flags="0x0"/>
    </TTGlyph>
    <TTGlyph name="Umacron" xMin="93" yMin="-12" xMax="542" yMax="781">
      <component glyphName="U" x="0" y="0" flags="0x0"/>
      <component glyphName="uni0304.cap" x="317" y="0" flags="0x0"/>
    </TTGlyph>
    <TTGlyph name="V" xMin="4" yMin="0" xMax="492" yMax="658">
      <contour>
        <pt x="4" y="658" on="1"/>
        <pt x="60" y="658" on="1"/>
        <pt x="179" y="279" on="1"/>
        <pt x="202" y="205" on="1"/>
        <pt x="224" y="130" on="0"/>
        <pt x="248" y="59" on="1"/>
        <pt x="252" y="59" on="1"/>
        <pt x="260" y="85" on="0"/>
        <pt x="293" y="192" on="1"/>
        <pt x="320" y="279" on="1"/>
        <pt x="439" y="658" on="1"/>
        <pt x="492" y="658" on="1"/>
        <pt x="278" y="0" on="1"/>
        <pt x="220" y="0" on="1"/>
      </contour>
    </TTGlyph>
    <TTGlyph name="W" xMin="27" yMin="0" xMax="744" yMax="658">
      <contour>
        <pt x="27" y="658" on="1"/>
        <pt x="82" y="658" on="1"/>
        <pt x="163" y="276" on="1"/>
        <pt x="180" y="190" on="0"/>
        <pt x="207" y="62" on="1"/>
        <pt x="211" y="62" on="1"/>
        <pt x="228" y="141" on="0"/>
        <pt x="260" y="276" on="1"/>
        <pt x="361" y="658" on="1"/>
        <pt x="413" y="658" on="1"/>
        <pt x="515" y="276" on="1"/>
        <pt x="566" y="62" on="1"/>
        <pt x="570" y="62" on="1"/>
        <pt x="585" y="133" on="0"/>
        <pt x="597" y="201" on="1"/>
        <pt x="612" y="276" on="1"/>
        <pt x="692" y="658" on="1"/>
        <pt x="744" y="658" on="1"/>
        <pt x="599" y="0" on="1"/>
        <pt x="539" y="0" on="1"/>
        <pt x="423" y="442" on="1"/>
        <pt x="418" y="462" on="1"/>
        <pt x="389" y="590" on="1"/>
        <pt x="384" y="590" on="1"/>
        <pt x="378" y="560" on="0"/>
        <pt x="367" y="516" on="1"/>
        <pt x="349" y="442" on="1"/>
        <pt x="234" y="0" on="1"/>
        <pt x="175" y="0" on="1"/>
      </contour>
    </TTGlyph>
    <TTGlyph name="X" xMin="17" yMin="0" xMax="471" yMax="658">
      <contour>
        <pt x="213" y="341" on="1"/>
        <pt x="30" y="658" on="1"/>
        <pt x="88" y="658" on="1"/>
        <pt x="193" y="469" on="1"/>
        <pt x="246" y="378" on="1"/>
        <pt x="250" y="378" on="1"/>
        <pt x="283" y="443" on="0"/>
        <pt x="299" y="469" on="1"/>
        <pt x="403" y="658" on="1"/>
        <pt x="458" y="658" on="1"/>
        <pt x="275" y="338" on="1"/>
        <pt x="471" y="0" on="1"/>
        <pt x="413" y="0" on="1"/>
        <pt x="302" y="198" on="1"/>
        <pt x="242" y="302" on="1"/>
        <pt x="238" y="302" on="1"/>
        <pt x="199" y="227" on="1"/>
        <pt x="183" y="198" on="1"/>
        <pt x="72" y="0" on="1"/>
        <pt x="17" y="0" on="1"/>
      </contour>
    </TTGlyph>
    <TTGlyph name="Y" xMin="2" yMin="0" xMax="450" yMax="658">
      <contour>
        <pt x="200" y="265" on="1"/>
        <pt x="2" y="658" on="1"/>
        <pt x="59" y="658" on="1"/>
        <pt x="156" y="456" on="1"/>
        <pt x="179" y="408" on="1"/>
        <pt x="188" y="390" on="0"/>
        <pt x="210" y="343" on="0"/>
        <pt x="224" y="314" on="1"/>
        <pt x="228" y="314" on="1"/>
        <pt x="230" y="319" on="0"/>
        <pt x="237" y="331" on="0"/>
        <pt x="241" y="339" on="1"/>
        <pt x="248" y="353" on="0"/>
        <pt x="286" y="425" on="0"/>
        <pt x="299" y="456" on="1"/>
        <pt x="396" y="658" on="1"/>
        <pt x="450" y="658" on="1"/>
        <pt x="253" y="265" on="1"/>
        <pt x="253" y="0" on="1"/>
        <pt x="200" y="0" on="1"/>
      </contour>
    </TTGlyph>
    <TTGlyph name="Yacute" xMin="2" yMin="0" xMax="450" yMax="855">
      <component glyphName="Y" x="0" y="0" flags="0x0"/>
      <component glyphName="acutecomb.cap" x="226" y="0" flags="0x0"/>
    </TTGlyph>
    <TTGlyph name="Ydieresis" xMin="2" yMin="0" xMax="450" yMax="801">
      <component glyphName="Y" x="0" y="0" flags="0x0"/>
      <component glyphName="uni0308.cap" x="226" y="0" flags="0x0"/>
    </TTGlyph>
    <TTGlyph name="Z" xMin="49" yMin="0" xMax="492" yMax="658">
      <contour>
        <pt x="49" y="31" on="1"/>
        <pt x="422" y="613" on="1"/>
        <pt x="82" y="613" on="1"/>
        <pt x="82" y="658" on="1"/>
        <pt x="488" y="658" on="1"/>
        <pt x="488" y="628" on="1"/>
        <pt x="115" y="45" on="1"/>
        <pt x="492" y="45" on="1"/>
        <pt x="492" y="0" on="1"/>
        <pt x="49" y="0" on="1"/>
      </contour>
    </TTGlyph>
    <TTGlyph name="ZWJ" xMin="-150" yMin="785" xMax="151" yMax="894">
      <contour>
        <pt x="-150" y="894" on="1"/>
        <pt x="151" y="894" on="1"/>
        <pt x="151" y="785" on="1"/>
        <pt x="117" y="785" on="1"/>
        <pt x="117" y="858" on="1"/>
        <pt x="-116" y="858" on="1"/>
        <pt x="-116" y="785" on="1"/>
        <pt x="-150" y="785" on="1"/>
      </contour>
    </TTGlyph>
    <TTGlyph name="ZWNJ" xMin="-104" yMin="767" xMax="103" yMax="984">
      <contour>
        <pt x="-104" y="792" on="1"/>
        <pt x="-26" y="875" on="1"/>
        <pt x="-104" y="957" on="1"/>
        <pt x="-81" y="984" on="1"/>
        <pt x="0" y="900" on="1"/>
        <pt x="79" y="982" on="1"/>
        <pt x="103" y="957" on="1"/>
        <pt x="24" y="875" on="1"/>
        <pt x="103" y="792" on="1"/>
        <pt x="79" y="768" on="1"/>
        <pt x="0" y="848" on="1"/>
        <pt x="-81" y="767" on="1"/>
      </contour>
    </TTGlyph>
    <TTGlyph name="Zcaron" xMin="49" yMin="0" xMax="492" yMax="842">
      <component glyphName="Z" x="0" y="0" flags="0x0"/>
      <component glyphName="uni030C.cap" x="279" y="0" flags="0x0"/>
    </TTGlyph>
    <TTGlyph name="a" xMin="57" yMin="-12" xMax="416" yMax="493">
      <contour>
        <pt x="136" y="-12" on="0"/>
        <pt x="57" y="56" on="0"/>
        <pt x="57" y="121" on="1"/>
        <pt x="57" y="200" on="0"/>
        <pt x="204" y="285" on="0"/>
        <pt x="365" y="302" on="1"/>
        <pt x="367" y="449" on="0"/>
        <pt x="254" y="449" on="1"/>
        <pt x="178" y="449" on="0"/>
        <pt x="102" y="393" on="1"/>
        <pt x="80" y="431" on="1"/>
        <pt x="116" y="456" on="0"/>
        <pt x="209" y="493" on="0"/>
        <pt x="261" y="493" on="1"/>
        <pt x="342" y="493" on="0"/>
        <pt x="416" y="391" on="0"/>
        <pt x="416" y="305" on="1"/>
        <pt x="416" y="0" on="1"/>
        <pt x="373" y="0" on="1"/>
        <pt x="368" y="62" on="1"/>
        <pt x="365" y="62" on="1"/>
        <pt x="276" y="-12" on="0"/>
        <pt x="197" y="-12" on="1"/>
      </contour>
      <contour>
        <pt x="246" y="32" on="0"/>
        <pt x="320" y="68" on="0"/>
        <pt x="364" y="106" on="1"/>
        <pt x="364" y="264" on="1"/>
        <pt x="224" y="248" on="0"/>
        <pt x="108" y="181" on="0"/>
        <pt x="108" y="124" on="1"/>
        <pt x="108" y="77" on="0"/>
        <pt x="163" y="32" on="0"/>
        <pt x="207" y="32" on="1"/>
      </contour>
    </TTGlyph>
    <TTGlyph name="a.sups" xMin="41" yMin="396" xMax="287" yMax="730">
      <contour>
        <pt x="95" y="396" on="0"/>
        <pt x="41" y="445" on="0"/>
        <pt x="41" y="487" on="1"/>
        <pt x="41" y="540" on="0"/>
        <pt x="138" y="595" on="0"/>
        <pt x="245" y="606" on="1"/>
        <pt x="245" y="647" on="0"/>
        <pt x="215" y="694" on="0"/>
        <pt x="177" y="694" on="1"/>
        <pt x="150" y="694" on="0"/>
        <pt x="92" y="672" on="0"/>
        <pt x="71" y="657" on="1"/>
        <pt x="54" y="688" on="1"/>
        <pt x="119" y="730" on="0"/>
        <pt x="182" y="730" on="1"/>
        <pt x="238" y="730" on="0"/>
        <pt x="287" y="664" on="0"/>
        <pt x="287" y="603" on="1"/>
        <pt x="287" y="404" on="1"/>
        <pt x="254" y="404" on="1"/>
        <pt x="247" y="442" on="1"/>
        <pt x="243" y="442" on="1"/>
        <pt x="189" y="396" on="0"/>
        <pt x="138" y="396" on="1"/>
      </contour>
      <contour>
        <pt x="195" y="431" on="0"/>
        <pt x="246" y="478" on="1"/>
        <pt x="246" y="577" on="1"/>
        <pt x="159" y="568" on="0"/>
        <pt x="84" y="525" on="0"/>
        <pt x="84" y="491" on="1"/>
        <pt x="84" y="461" on="0"/>
        <pt x="118" y="431" on="0"/>
        <pt x="150" y="431" on="1"/>
      </contour>
    </TTGlyph>
    <TTGlyph name="aacute" xMin="57" yMin="-12" xMax="416" yMax="759">
      <component glyphName="a" x="0" y="0" flags="0x0"/>
      <component glyphName="acutecomb" x="265" y="0" flags="0x0"/>
    </TTGlyph>
    <TTGlyph name="abreve" xMin="57" yMin="-12" xMax="416" yMax="724">
      <component glyphName="a" x="0" y="0" flags="0x0"/>
      <component glyphName="uni0306" x="265" y="0" flags="0x0"/>
    </TTGlyph>
    <TTGlyph name="acircumflex" xMin="57" yMin="-12" xMax="416" yMax="737">
      <component glyphName="a" x="0" y="0" flags="0x0"/>
      <component glyphName="uni0302" x="265" y="0" flags="0x0"/>
    </TTGlyph>
    <TTGlyph name="acute" xMin="214" yMin="574" xMax="388" yMax="759">
      <component glyphName="acutecomb" x="268" y="0" flags="0x0"/>
    </TTGlyph>
    <TTGlyph name="acutecomb" xMin="-54" yMin="574" xMax="120" yMax="759">
      <contour>
        <pt x="-54" y="600" on="1"/>
        <pt x="82" y="759" on="1"/>
        <pt x="120" y="725" on="1"/>
        <pt x="-26" y="574" on="1"/>
      </contour>
    </TTGlyph>
    <TTGlyph name="acutecomb.cap" xMin="-43" yMin="705" xMax="116" yMax="855">
      <contour>
        <pt x="-43" y="731" on="1"/>
        <pt x="84" y="855" on="1"/>
        <pt x="116" y="818" on="1"/>
        <pt x="-20" y="705" on="1"/>
      </contour>
    </TTGlyph>
    <TTGlyph name="adieresis" xMin="57" yMin="-12" xMax="416" yMax="674">
      <component glyphName="a" x="0" y="0" flags="0x0"/>
      <component glyphName="uni0308" x="265" y="0" flags="0x0"/>
    </TTGlyph>
    <TTGlyph name="ae" xMin="64" yMin="-12" xMax="746" yMax="493">
      <contour>
        <pt x="143" y="-12" on="0"/>
        <pt x="64" y="56" on="0"/>
        <pt x="64" y="120" on="1"/>
        <pt x="64" y="199" on="0"/>
        <pt x="210" y="284" on="0"/>
        <pt x="366" y="302" on="1"/>
        <pt x="368" y="449" on="0"/>
        <pt x="256" y="449" on="1"/>
        <pt x="217" y="449" on="0"/>
        <pt x="141" y="416" on="0"/>
        <pt x="109" y="393" on="1"/>
        <pt x="87" y="431" on="1"/>
        <pt x="123" y="456" on="0"/>
        <pt x="213" y="493" on="0"/>
        <pt x="261" y="493" on="1"/>
        <pt x="317" y="493" on="0"/>
        <pt x="388" y="431" on="0"/>
        <pt x="401" y="377" on="1"/>
        <pt x="428" y="430" on="0"/>
        <pt x="515" y="493" on="0"/>
        <pt x="567" y="493" on="1"/>
        <pt x="652" y="493" on="0"/>
        <pt x="746" y="375" on="0"/>
        <pt x="746" y="269" on="1"/>
        <pt x="746" y="244" on="0"/>
        <pt x="744" y="232" on="1"/>
        <pt x="415" y="232" on="1"/>
        <pt x="415" y="174" on="0"/>
        <pt x="460" y="83" on="0"/>
        <pt x="535" y="32" on="0"/>
        <pt x="582" y="32" on="1"/>
        <pt x="618" y="32" on="0"/>
        <pt x="676" y="53" on="0"/>
        <pt x="706" y="74" on="1"/>
        <pt x="727" y="36" on="1"/>
        <pt x="691" y="13" on="0"/>
        <pt x="624" y="-12" on="0"/>
        <pt x="577" y="-12" on="1"/>
        <pt x="519" y="-12" on="0"/>
        <pt x="437" y="41" on="0"/>
        <pt x="405" y="85" on="1"/>
        <pt x="358" y="40" on="0"/>
        <pt x="250" y="-12" on="0"/>
        <pt x="204" y="-12" on="1"/>
      </contour>
      <contour>
        <pt x="699" y="270" on="1"/>
        <pt x="699" y="358" on="0"/>
        <pt x="629" y="450" on="0"/>
        <pt x="566" y="450" on="1"/>
        <pt x="507" y="450" on="0"/>
        <pt x="422" y="350" on="0"/>
        <pt x="415" y="270" on="1"/>
      </contour>
      <contour>
        <pt x="254" y="32" on="0"/>
        <pt x="349" y="80" on="0"/>
        <pt x="387" y="121" on="1"/>
        <pt x="377" y="142" on="0"/>
        <pt x="367" y="204" on="0"/>
        <pt x="367" y="238" on="1"/>
        <pt x="366" y="264" on="1"/>
        <pt x="233" y="248" on="0"/>
        <pt x="116" y="181" on="0"/>
        <pt x="116" y="124" on="1"/>
        <pt x="116" y="77" on="0"/>
        <pt x="171" y="32" on="0"/>
        <pt x="215" y="32" on="1"/>
      </contour>
    </TTGlyph>
    <TTGlyph name="agrave" xMin="57" yMin="-12" xMax="416" yMax="759">
      <component glyphName="a" x="0" y="0" flags="0x0"/>
      <component glyphName="gravecomb" x="265" y="0" flags="0x0"/>
    </TTGlyph>
    <TTGlyph name="alphalatin" xMin="51" yMin="-12" xMax="497" yMax="493">
      <contour>
        <pt x="158" y="-12" on="0"/>
        <pt x="51" y="120" on="0"/>
        <pt x="51" y="240" on="1"/>
        <pt x="51" y="315" on="0"/>
        <pt x="109" y="430" on="0"/>
        <pt x="207" y="493" on="0"/>
        <pt x="264" y="493" on="1"/>
        <pt x="305" y="493" on="0"/>
        <pt x="370" y="465" on="0"/>
        <pt x="405" y="435" on="1"/>
        <pt x="408" y="435" on="1"/>
        <pt x="411" y="481" on="1"/>
        <pt x="455" y="481" on="1"/>
        <pt x="455" y="63" on="1"/>
        <pt x="455" y="33" on="0"/>
        <pt x="475" y="33" on="1"/>
        <pt x="483" y="33" on="0"/>
        <pt x="492" y="35" on="1"/>
        <pt x="497" y="-7" on="1"/>
        <pt x="482" y="-12" on="0"/>
        <pt x="465" y="-12" on="1"/>
        <pt x="436" y="-12" on="0"/>
        <pt x="410" y="24" on="0"/>
        <pt x="408" y="62" on="1"/>
        <pt x="406" y="62" on="1"/>
        <pt x="332" y="-12" on="0"/>
        <pt x="250" y="-12" on="1"/>
      </contour>
      <contour>
        <pt x="296" y="33" on="0"/>
        <pt x="367" y="71" on="0"/>
        <pt x="404" y="110" on="1"/>
        <pt x="404" y="389" on="1"/>
        <pt x="369" y="420" on="0"/>
        <pt x="304" y="448" on="0"/>
        <pt x="269" y="448" on="1"/>
        <pt x="223" y="448" on="0"/>
        <pt x="148" y="394" on="0"/>
        <pt x="105" y="299" on="0"/>
        <pt x="105" y="240" on="1"/>
        <pt x="105" y="144" on="0"/>
        <pt x="186" y="33" on="0"/>
        <pt x="259" y="33" on="1"/>
      </contour>
    </TTGlyph>
    <TTGlyph name="amacron" xMin="57" yMin="-12" xMax="416" yMax="645">
      <component glyphName="a" x="0" y="0" flags="0x0"/>
      <component glyphName="uni0304" x="265" y="0" flags="0x0"/>
    </TTGlyph>
    <TTGlyph name="ampersand" xMin="36" yMin="-12" xMax="568" yMax="671">
      <contour>
        <pt x="552" y="-12" on="1"/>
        <pt x="484" y="11" on="0"/>
        <pt x="410" y="70" on="1"/>
        <pt x="328" y="-12" on="0"/>
        <pt x="228" y="-12" on="1"/>
        <pt x="174" y="-12" on="0"/>
        <pt x="87" y="33" on="0"/>
        <pt x="36" y="114" on="0"/>
        <pt x="36" y="167" on="1"/>
        <pt x="36" y="226" on="0"/>
        <pt x="107" y="315" on="0"/>
        <pt x="170" y="361" on="1"/>
        <pt x="126" y="452" on="0"/>
        <pt x="126" y="522" on="1"/>
        <pt x="126" y="586" on="0"/>
        <pt x="203" y="671" on="0"/>
        <pt x="264" y="671" on="1"/>
        <pt x="318" y="671" on="0"/>
        <pt x="379" y="603" on="0"/>
        <pt x="379" y="549" on="1"/>
        <pt x="379" y="509" on="0"/>
        <pt x="337" y="441" on="0"/>
        <pt x="278" y="389" on="0"/>
        <pt x="227" y="351" on="1"/>
        <pt x="260" y="293" on="0"/>
        <pt x="354" y="180" on="0"/>
        <pt x="407" y="134" on="1"/>
        <pt x="475" y="219" on="0"/>
        <pt x="509" y="347" on="1"/>
        <pt x="558" y="347" on="1"/>
        <pt x="516" y="202" on="0"/>
        <pt x="442" y="106" on="1"/>
        <pt x="505" y="55" on="0"/>
        <pt x="568" y="33" on="1"/>
      </contour>
      <contour>
        <pt x="172" y="462" on="0"/>
        <pt x="208" y="388" on="1"/>
        <pt x="270" y="432" on="0"/>
        <pt x="334" y="503" on="0"/>
        <pt x="334" y="547" on="1"/>
        <pt x="334" y="582" on="0"/>
        <pt x="299" y="630" on="0"/>
        <pt x="263" y="630" on="1"/>
        <pt x="221" y="630" on="0"/>
        <pt x="172" y="569" on="0"/>
        <pt x="172" y="523" on="1"/>
      </contour>
      <contour>
        <pt x="88" y="109" on="0"/>
        <pt x="172" y="31" on="0"/>
        <pt x="233" y="31" on="1"/>
        <pt x="305" y="31" on="0"/>
        <pt x="375" y="99" on="1"/>
        <pt x="321" y="147" on="0"/>
        <pt x="224" y="263" on="0"/>
        <pt x="190" y="323" on="1"/>
        <pt x="142" y="286" on="0"/>
        <pt x="88" y="214" on="0"/>
        <pt x="88" y="171" on="1"/>
      </contour>
    </TTGlyph>
    <TTGlyph name="ampersand.lat" xMin="36" yMin="-12" xMax="568" yMax="671">
      <contour>
        <pt x="552" y="-12" on="1"/>
        <pt x="484" y="11" on="0"/>
        <pt x="410" y="70" on="1"/>
        <pt x="328" y="-12" on="0"/>
        <pt x="228" y="-12" on="1"/>
        <pt x="174" y="-12" on="0"/>
        <pt x="87" y="33" on="0"/>
        <pt x="36" y="114" on="0"/>
        <pt x="36" y="167" on="1"/>
        <pt x="36" y="226" on="0"/>
        <pt x="107" y="315" on="0"/>
        <pt x="170" y="361" on="1"/>
        <pt x="126" y="452" on="0"/>
        <pt x="126" y="522" on="1"/>
        <pt x="126" y="586" on="0"/>
        <pt x="203" y="671" on="0"/>
        <pt x="264" y="671" on="1"/>
        <pt x="318" y="671" on="0"/>
        <pt x="379" y="603" on="0"/>
        <pt x="379" y="549" on="1"/>
        <pt x="379" y="509" on="0"/>
        <pt x="337" y="441" on="0"/>
        <pt x="278" y="389" on="0"/>
        <pt x="227" y="351" on="1"/>
        <pt x="260" y="293" on="0"/>
        <pt x="354" y="180" on="0"/>
        <pt x="407" y="134" on="1"/>
        <pt x="475" y="219" on="0"/>
        <pt x="509" y="347" on="1"/>
        <pt x="558" y="347" on="1"/>
        <pt x="516" y="202" on="0"/>
        <pt x="442" y="106" on="1"/>
        <pt x="505" y="55" on="0"/>
        <pt x="568" y="33" on="1"/>
      </contour>
      <contour>
        <pt x="172" y="462" on="0"/>
        <pt x="208" y="388" on="1"/>
        <pt x="270" y="432" on="0"/>
        <pt x="334" y="503" on="0"/>
        <pt x="334" y="547" on="1"/>
        <pt x="334" y="582" on="0"/>
        <pt x="299" y="630" on="0"/>
        <pt x="263" y="630" on="1"/>
        <pt x="221" y="630" on="0"/>
        <pt x="172" y="569" on="0"/>
        <pt x="172" y="523" on="1"/>
      </contour>
      <contour>
        <pt x="88" y="109" on="0"/>
        <pt x="172" y="31" on="0"/>
        <pt x="233" y="31" on="1"/>
        <pt x="305" y="31" on="0"/>
        <pt x="375" y="99" on="1"/>
        <pt x="321" y="147" on="0"/>
        <pt x="224" y="263" on="0"/>
        <pt x="190" y="323" on="1"/>
        <pt x="142" y="286" on="0"/>
        <pt x="88" y="214" on="0"/>
        <pt x="88" y="171" on="1"/>
      </contour>
    </TTGlyph>
    <TTGlyph name="approxequal" xMin="40" yMin="162" xMax="443" yMax="498">
      <component glyphName="asciitilde" x="0" y="103" flags="0x4"/>
      <component glyphName="asciitilde" x="0" y="-103" flags="0x4"/>
    </TTGlyph>
    <TTGlyph name="aring" xMin="57" yMin="-12" xMax="416" yMax="741">
      <component glyphName="a" x="0" y="0" flags="0x0"/>
      <component glyphName="uni030A" x="265" y="0" flags="0x0"/>
    </TTGlyph>
    <TTGlyph name="asciicircum" xMin="65" yMin="289" xMax="418" yMax="670">
      <contour>
        <pt x="216" y="670" on="1"/>
        <pt x="267" y="670" on="1"/>
        <pt x="418" y="289" on="1"/>
        <pt x="370" y="289" on="1"/>
        <pt x="243" y="620" on="1"/>
        <pt x="239" y="620" on="1"/>
        <pt x="189" y="487" on="1"/>
        <pt x="113" y="289" on="1"/>
        <pt x="65" y="289" on="1"/>
      </contour>
    </TTGlyph>
    <TTGlyph name="asciicircum.lat" xMin="65" yMin="289" xMax="418" yMax="670">
      <contour>
        <pt x="216" y="670" on="1"/>
        <pt x="267" y="670" on="1"/>
        <pt x="418" y="289" on="1"/>
        <pt x="370" y="289" on="1"/>
        <pt x="243" y="620" on="1"/>
        <pt x="239" y="620" on="1"/>
        <pt x="189" y="487" on="1"/>
        <pt x="113" y="289" on="1"/>
        <pt x="65" y="289" on="1"/>
      </contour>
    </TTGlyph>
    <TTGlyph name="asciitilde" xMin="40" yMin="265" xMax="443" yMax="395">
      <contour>
        <pt x="303" y="265" on="0"/>
        <pt x="259" y="289" on="0"/>
        <pt x="227" y="314" on="1"/>
        <pt x="202" y="334" on="0"/>
        <pt x="168" y="354" on="0"/>
        <pt x="150" y="354" on="1"/>
        <pt x="104" y="354" on="0"/>
        <pt x="72" y="291" on="1"/>
        <pt x="40" y="311" on="1"/>
        <pt x="62" y="353" on="0"/>
        <pt x="121" y="395" on="0"/>
        <pt x="152" y="395" on="1"/>
        <pt x="180" y="395" on="0"/>
        <pt x="224" y="371" on="0"/>
        <pt x="256" y="346" on="1"/>
        <pt x="281" y="326" on="0"/>
        <pt x="315" y="306" on="0"/>
        <pt x="333" y="306" on="1"/>
        <pt x="380" y="306" on="0"/>
        <pt x="411" y="369" on="1"/>
        <pt x="443" y="347" on="1"/>
        <pt x="421" y="306" on="0"/>
        <pt x="362" y="265" on="0"/>
        <pt x="331" y="265" on="1"/>
      </contour>
    </TTGlyph>
    <TTGlyph name="asterisk" xMin="67" yMin="454" xMax="331" yMax="712">
      <contour>
        <pt x="104" y="476" on="1"/>
        <pt x="159" y="565" on="1"/>
        <pt x="67" y="602" on="1"/>
        <pt x="78" y="634" on="1"/>
        <pt x="174" y="609" on="1"/>
        <pt x="181" y="712" on="1"/>
        <pt x="217" y="712" on="1"/>
        <pt x="224" y="610" on="1"/>
        <pt x="320" y="634" on="1"/>
        <pt x="331" y="602" on="1"/>
        <pt x="239" y="565" on="1"/>
        <pt x="294" y="476" on="1"/>
        <pt x="265" y="454" on="1"/>
        <pt x="200" y="538" on="1"/>
        <pt x="133" y="454" on="1"/>
      </contour>
    </TTGlyph>
    <TTGlyph name="asterisk.lat" xMin="67" yMin="454" xMax="331" yMax="712">
      <contour>
        <pt x="104" y="476" on="1"/>
        <pt x="159" y="565" on="1"/>
        <pt x="67" y="602" on="1"/>
        <pt x="78" y="634" on="1"/>
        <pt x="174" y="609" on="1"/>
        <pt x="181" y="712" on="1"/>
        <pt x="217" y="712" on="1"/>
        <pt x="224" y="610" on="1"/>
        <pt x="320" y="634" on="1"/>
        <pt x="331" y="602" on="1"/>
        <pt x="239" y="565" on="1"/>
        <pt x="294" y="476" on="1"/>
        <pt x="265" y="454" on="1"/>
        <pt x="200" y="538" on="1"/>
        <pt x="133" y="454" on="1"/>
      </contour>
    </TTGlyph>
    <TTGlyph name="at" xMin="51" yMin="-147" xMax="768" yMax="636">
      <contour>
        <pt x="292" y="-147" on="0"/>
        <pt x="138" y="-64" on="0"/>
        <pt x="51" y="94" on="0"/>
        <pt x="51" y="203" on="1"/>
        <pt x="51" y="330" on="0"/>
        <pt x="161" y="527" on="0"/>
        <pt x="345" y="636" on="0"/>
        <pt x="452" y="636" on="1"/>
        <pt x="548" y="636" on="0"/>
        <pt x="691" y="556" on="0"/>
        <pt x="768" y="411" on="0"/>
        <pt x="768" y="315" on="1"/>
        <pt x="768" y="234" on="0"/>
        <pt x="712" y="116" on="0"/>
        <pt x="626" y="54" on="0"/>
        <pt x="582" y="54" on="1"/>
        <pt x="540" y="54" on="0"/>
        <pt x="488" y="93" on="0"/>
        <pt x="484" y="130" on="1"/>
        <pt x="482" y="130" on="1"/>
        <pt x="418" y="61" on="0"/>
        <pt x="360" y="61" on="1"/>
        <pt x="310" y="61" on="0"/>
        <pt x="244" y="133" on="0"/>
        <pt x="244" y="198" on="1"/>
        <pt x="244" y="249" on="0"/>
        <pt x="290" y="355" on="0"/>
        <pt x="376" y="424" on="0"/>
        <pt x="432" y="424" on="1"/>
        <pt x="486" y="424" on="0"/>
        <pt x="514" y="376" on="1"/>
        <pt x="516" y="376" on="1"/>
        <pt x="525" y="416" on="1"/>
        <pt x="563" y="416" on="1"/>
        <pt x="527" y="226" on="1"/>
        <pt x="518" y="192" on="0"/>
        <pt x="518" y="166" on="1"/>
        <pt x="518" y="94" on="0"/>
        <pt x="586" y="94" on="1"/>
        <pt x="619" y="94" on="0"/>
        <pt x="684" y="147" on="0"/>
        <pt x="727" y="247" on="0"/>
        <pt x="727" y="313" on="1"/>
        <pt x="727" y="398" on="0"/>
        <pt x="660" y="526" on="0"/>
        <pt x="534" y="596" on="0"/>
        <pt x="448" y="596" on="1"/>
        <pt x="357" y="596" on="0"/>
        <pt x="194" y="498" on="0"/>
        <pt x="94" y="319" on="0"/>
        <pt x="94" y="205" on="1"/>
        <pt x="94" y="109" on="0"/>
        <pt x="170" y="-32" on="0"/>
        <pt x="306" y="-108" on="0"/>
        <pt x="394" y="-108" on="1"/>
        <pt x="483" y="-108" on="0"/>
        <pt x="561" y="-60" on="1"/>
        <pt x="578" y="-95" on="1"/>
        <pt x="493" y="-147" on="0"/>
        <pt x="390" y="-147" on="1"/>
      </contour>
      <contour>
        <pt x="417" y="101" on="0"/>
        <pt x="473" y="166" on="1"/>
        <pt x="503" y="336" on="1"/>
        <pt x="486" y="363" on="0"/>
        <pt x="454" y="384" on="0"/>
        <pt x="431" y="384" on="1"/>
        <pt x="389" y="384" on="0"/>
        <pt x="324" y="329" on="0"/>
        <pt x="289" y="244" on="0"/>
        <pt x="289" y="201" on="1"/>
        <pt x="289" y="149" on="0"/>
        <pt x="332" y="101" on="0"/>
        <pt x="367" y="101" on="1"/>
      </contour>
    </TTGlyph>
    <TTGlyph name="at.lat" xMin="51" yMin="-147" xMax="768" yMax="636">
      <contour>
        <pt x="292" y="-147" on="0"/>
        <pt x="138" y="-64" on="0"/>
        <pt x="51" y="94" on="0"/>
        <pt x="51" y="203" on="1"/>
        <pt x="51" y="330" on="0"/>
        <pt x="161" y="527" on="0"/>
        <pt x="345" y="636" on="0"/>
        <pt x="452" y="636" on="1"/>
        <pt x="548" y="636" on="0"/>
        <pt x="691" y="556" on="0"/>
        <pt x="768" y="411" on="0"/>
        <pt x="768" y="315" on="1"/>
        <pt x="768" y="234" on="0"/>
        <pt x="712" y="116" on="0"/>
        <pt x="626" y="54" on="0"/>
        <pt x="582" y="54" on="1"/>
        <pt x="540" y="54" on="0"/>
        <pt x="488" y="93" on="0"/>
        <pt x="484" y="130" on="1"/>
        <pt x="482" y="130" on="1"/>
        <pt x="418" y="61" on="0"/>
        <pt x="360" y="61" on="1"/>
        <pt x="310" y="61" on="0"/>
        <pt x="244" y="133" on="0"/>
        <pt x="244" y="198" on="1"/>
        <pt x="244" y="249" on="0"/>
        <pt x="290" y="355" on="0"/>
        <pt x="376" y="424" on="0"/>
        <pt x="432" y="424" on="1"/>
        <pt x="486" y="424" on="0"/>
        <pt x="514" y="376" on="1"/>
        <pt x="516" y="376" on="1"/>
        <pt x="525" y="416" on="1"/>
        <pt x="563" y="416" on="1"/>
        <pt x="527" y="226" on="1"/>
        <pt x="518" y="192" on="0"/>
        <pt x="518" y="166" on="1"/>
        <pt x="518" y="94" on="0"/>
        <pt x="586" y="94" on="1"/>
        <pt x="619" y="94" on="0"/>
        <pt x="684" y="147" on="0"/>
        <pt x="727" y="247" on="0"/>
        <pt x="727" y="313" on="1"/>
        <pt x="727" y="398" on="0"/>
        <pt x="660" y="526" on="0"/>
        <pt x="534" y="596" on="0"/>
        <pt x="448" y="596" on="1"/>
        <pt x="357" y="596" on="0"/>
        <pt x="194" y="498" on="0"/>
        <pt x="94" y="319" on="0"/>
        <pt x="94" y="205" on="1"/>
        <pt x="94" y="109" on="0"/>
        <pt x="170" y="-32" on="0"/>
        <pt x="306" y="-108" on="0"/>
        <pt x="394" y="-108" on="1"/>
        <pt x="483" y="-108" on="0"/>
        <pt x="561" y="-60" on="1"/>
        <pt x="578" y="-95" on="1"/>
        <pt x="493" y="-147" on="0"/>
        <pt x="390" y="-147" on="1"/>
      </contour>
      <contour>
        <pt x="417" y="101" on="0"/>
        <pt x="473" y="166" on="1"/>
        <pt x="503" y="336" on="1"/>
        <pt x="486" y="363" on="0"/>
        <pt x="454" y="384" on="0"/>
        <pt x="431" y="384" on="1"/>
        <pt x="389" y="384" on="0"/>
        <pt x="324" y="329" on="0"/>
        <pt x="289" y="244" on="0"/>
        <pt x="289" y="201" on="1"/>
        <pt x="289" y="149" on="0"/>
        <pt x="332" y="101" on="0"/>
        <pt x="367" y="101" on="1"/>
      </contour>
    </TTGlyph>
    <TTGlyph name="atilde" xMin="57" yMin="-12" xMax="430" yMax="712">
      <component glyphName="a" x="0" y="0" flags="0x0"/>
      <component glyphName="tildecomb" x="265" y="0" flags="0x0"/>
    </TTGlyph>
    <TTGlyph name="b" xMin="90" yMin="-12" xMax="494" yMax="718">
      <contour>
        <pt x="249" y="-12" on="0"/>
        <pt x="175" y="21" on="0"/>
        <pt x="140" y="49" on="1"/>
        <pt x="138" y="49" on="1"/>
        <pt x="132" y="0" on="1"/>
        <pt x="90" y="0" on="1"/>
        <pt x="90" y="718" on="1"/>
        <pt x="141" y="718" on="1"/>
        <pt x="141" y="512" on="1"/>
        <pt x="139" y="419" on="1"/>
        <pt x="226" y="493" on="0"/>
        <pt x="302" y="493" on="1"/>
        <pt x="396" y="493" on="0"/>
        <pt x="494" y="362" on="0"/>
        <pt x="494" y="248" on="1"/>
        <pt x="494" y="169" on="0"/>
        <pt x="437" y="51" on="0"/>
        <pt x="340" y="-12" on="0"/>
        <pt x="283" y="-12" on="1"/>
      </contour>
      <contour>
        <pt x="326" y="33" on="0"/>
        <pt x="400" y="87" on="0"/>
        <pt x="441" y="184" on="0"/>
        <pt x="441" y="247" on="1"/>
        <pt x="441" y="340" on="0"/>
        <pt x="370" y="448" on="0"/>
        <pt x="293" y="448" on="1"/>
        <pt x="226" y="448" on="0"/>
        <pt x="142" y="372" on="1"/>
        <pt x="142" y="93" on="1"/>
        <pt x="178" y="62" on="0"/>
        <pt x="249" y="33" on="0"/>
        <pt x="279" y="33" on="1"/>
      </contour>
    </TTGlyph>
    <TTGlyph name="backslash" xMin="7" yMin="-160" xMax="347" yMax="710">
      <contour>
        <pt x="7" y="710" on="1"/>
        <pt x="49" y="710" on="1"/>
        <pt x="347" y="-160" on="1"/>
        <pt x="305" y="-160" on="1"/>
      </contour>
    </TTGlyph>
    <TTGlyph name="backslash.lat" xMin="7" yMin="-160" xMax="347" yMax="710">
      <contour>
        <pt x="7" y="710" on="1"/>
        <pt x="49" y="710" on="1"/>
        <pt x="347" y="-160" on="1"/>
        <pt x="305" y="-160" on="1"/>
      </contour>
    </TTGlyph>
    <TTGlyph name="bar" xMin="94" yMin="-250" xMax="134" yMax="750">
      <contour>
        <pt x="94" y="750" on="1"/>
        <pt x="134" y="750" on="1"/>
        <pt x="134" y="-250" on="1"/>
        <pt x="94" y="-250" on="1"/>
      </contour>
    </TTGlyph>
    <TTGlyph name="braceleft" xMin="35" yMin="-152" xMax="260" yMax="708">
      <contour>
        <pt x="165" y="-152" on="0"/>
        <pt x="113" y="-96" on="0"/>
        <pt x="113" y="-23" on="1"/>
        <pt x="113" y="15" on="0"/>
        <pt x="117" y="81" on="1"/>
        <pt x="121" y="147" on="0"/>
        <pt x="121" y="180" on="1"/>
        <pt x="121" y="260" on="0"/>
        <pt x="35" y="260" on="1"/>
        <pt x="35" y="296" on="1"/>
        <pt x="121" y="296" on="0"/>
        <pt x="121" y="374" on="1"/>
        <pt x="121" y="409" on="0"/>
        <pt x="117" y="475" on="1"/>
        <pt x="113" y="543" on="0"/>
        <pt x="113" y="579" on="1"/>
        <pt x="113" y="653" on="0"/>
        <pt x="165" y="708" on="0"/>
        <pt x="224" y="708" on="1"/>
        <pt x="260" y="708" on="1"/>
        <pt x="260" y="676" on="1"/>
        <pt x="231" y="676" on="1"/>
        <pt x="188" y="676" on="0"/>
        <pt x="156" y="629" on="0"/>
        <pt x="156" y="575" on="1"/>
        <pt x="156" y="545" on="0"/>
        <pt x="158" y="485" on="1"/>
        <pt x="161" y="439" on="0"/>
        <pt x="161" y="385" on="1"/>
        <pt x="161" y="338" on="0"/>
        <pt x="138" y="289" on="0"/>
        <pt x="108" y="280" on="1"/>
        <pt x="108" y="276" on="1"/>
        <pt x="138" y="267" on="0"/>
        <pt x="161" y="217" on="0"/>
        <pt x="161" y="171" on="1"/>
        <pt x="161" y="118" on="0"/>
        <pt x="158" y="71" on="1"/>
        <pt x="156" y="11" on="0"/>
        <pt x="156" y="-19" on="1"/>
        <pt x="156" y="-73" on="0"/>
        <pt x="188" y="-120" on="0"/>
        <pt x="231" y="-120" on="1"/>
        <pt x="260" y="-120" on="1"/>
        <pt x="260" y="-152" on="1"/>
        <pt x="224" y="-152" on="1"/>
      </contour>
    </TTGlyph>
    <TTGlyph name="braceleft.lat" xMin="35" yMin="-152" xMax="260" yMax="708">
      <contour>
        <pt x="165" y="-152" on="0"/>
        <pt x="113" y="-96" on="0"/>
        <pt x="113" y="-23" on="1"/>
        <pt x="113" y="15" on="0"/>
        <pt x="117" y="81" on="1"/>
        <pt x="121" y="147" on="0"/>
        <pt x="121" y="180" on="1"/>
        <pt x="121" y="260" on="0"/>
        <pt x="35" y="260" on="1"/>
        <pt x="35" y="296" on="1"/>
        <pt x="121" y="296" on="0"/>
        <pt x="121" y="374" on="1"/>
        <pt x="121" y="409" on="0"/>
        <pt x="117" y="475" on="1"/>
        <pt x="113" y="543" on="0"/>
        <pt x="113" y="579" on="1"/>
        <pt x="113" y="653" on="0"/>
        <pt x="165" y="708" on="0"/>
        <pt x="224" y="708" on="1"/>
        <pt x="260" y="708" on="1"/>
        <pt x="260" y="676" on="1"/>
        <pt x="231" y="676" on="1"/>
        <pt x="188" y="676" on="0"/>
        <pt x="156" y="629" on="0"/>
        <pt x="156" y="575" on="1"/>
        <pt x="156" y="545" on="0"/>
        <pt x="158" y="485" on="1"/>
        <pt x="161" y="439" on="0"/>
        <pt x="161" y="385" on="1"/>
        <pt x="161" y="338" on="0"/>
        <pt x="138" y="289" on="0"/>
        <pt x="108" y="280" on="1"/>
        <pt x="108" y="276" on="1"/>
        <pt x="138" y="267" on="0"/>
        <pt x="161" y="217" on="0"/>
        <pt x="161" y="171" on="1"/>
        <pt x="161" y="118" on="0"/>
        <pt x="158" y="71" on="1"/>
        <pt x="156" y="11" on="0"/>
        <pt x="156" y="-19" on="1"/>
        <pt x="156" y="-73" on="0"/>
        <pt x="188" y="-120" on="0"/>
        <pt x="231" y="-120" on="1"/>
        <pt x="260" y="-120" on="1"/>
        <pt x="260" y="-152" on="1"/>
        <pt x="224" y="-152" on="1"/>
      </contour>
    </TTGlyph>
    <TTGlyph name="braceright" xMin="23" yMin="-152" xMax="248" yMax="708">
      <contour>
        <pt x="23" y="-120" on="1"/>
        <pt x="53" y="-120" on="1"/>
        <pt x="96" y="-120" on="0"/>
        <pt x="128" y="-73" on="0"/>
        <pt x="128" y="-19" on="1"/>
        <pt x="128" y="26" on="0"/>
        <pt x="125" y="71" on="1"/>
        <pt x="125" y="85" on="0"/>
        <pt x="122" y="146" on="0"/>
        <pt x="122" y="171" on="1"/>
        <pt x="122" y="216" on="0"/>
        <pt x="146" y="267" on="0"/>
        <pt x="175" y="276" on="1"/>
        <pt x="175" y="280" on="1"/>
        <pt x="146" y="289" on="0"/>
        <pt x="122" y="339" on="0"/>
        <pt x="122" y="385" on="1"/>
        <pt x="122" y="410" on="0"/>
        <pt x="125" y="471" on="0"/>
        <pt x="125" y="485" on="1"/>
        <pt x="128" y="530" on="0"/>
        <pt x="128" y="575" on="1"/>
        <pt x="128" y="629" on="0"/>
        <pt x="96" y="676" on="0"/>
        <pt x="53" y="676" on="1"/>
        <pt x="23" y="676" on="1"/>
        <pt x="23" y="708" on="1"/>
        <pt x="59" y="708" on="1"/>
        <pt x="118" y="708" on="0"/>
        <pt x="171" y="653" on="0"/>
        <pt x="171" y="579" on="1"/>
        <pt x="171" y="532" on="0"/>
        <pt x="166" y="475" on="1"/>
        <pt x="162" y="409" on="0"/>
        <pt x="162" y="374" on="1"/>
        <pt x="162" y="296" on="0"/>
        <pt x="248" y="296" on="1"/>
        <pt x="248" y="260" on="1"/>
        <pt x="162" y="260" on="0"/>
        <pt x="162" y="180" on="1"/>
        <pt x="162" y="147" on="0"/>
        <pt x="166" y="81" on="1"/>
        <pt x="171" y="26" on="0"/>
        <pt x="171" y="-23" on="1"/>
        <pt x="171" y="-96" on="0"/>
        <pt x="118" y="-152" on="0"/>
        <pt x="59" y="-152" on="1"/>
        <pt x="23" y="-152" on="1"/>
      </contour>
    </TTGlyph>
    <TTGlyph name="braceright.lat" xMin="23" yMin="-152" xMax="248" yMax="708">
      <contour>
        <pt x="23" y="-120" on="1"/>
        <pt x="53" y="-120" on="1"/>
        <pt x="96" y="-120" on="0"/>
        <pt x="128" y="-73" on="0"/>
        <pt x="128" y="-19" on="1"/>
        <pt x="128" y="26" on="0"/>
        <pt x="125" y="71" on="1"/>
        <pt x="125" y="85" on="0"/>
        <pt x="122" y="146" on="0"/>
        <pt x="122" y="171" on="1"/>
        <pt x="122" y="216" on="0"/>
        <pt x="146" y="267" on="0"/>
        <pt x="175" y="276" on="1"/>
        <pt x="175" y="280" on="1"/>
        <pt x="146" y="289" on="0"/>
        <pt x="122" y="339" on="0"/>
        <pt x="122" y="385" on="1"/>
        <pt x="122" y="410" on="0"/>
        <pt x="125" y="471" on="0"/>
        <pt x="125" y="485" on="1"/>
        <pt x="128" y="530" on="0"/>
        <pt x="128" y="575" on="1"/>
        <pt x="128" y="629" on="0"/>
        <pt x="96" y="676" on="0"/>
        <pt x="53" y="676" on="1"/>
        <pt x="23" y="676" on="1"/>
        <pt x="23" y="708" on="1"/>
        <pt x="59" y="708" on="1"/>
        <pt x="118" y="708" on="0"/>
        <pt x="171" y="653" on="0"/>
        <pt x="171" y="579" on="1"/>
        <pt x="171" y="532" on="0"/>
        <pt x="166" y="475" on="1"/>
        <pt x="162" y="409" on="0"/>
        <pt x="162" y="374" on="1"/>
        <pt x="162" y="296" on="0"/>
        <pt x="248" y="296" on="1"/>
        <pt x="248" y="260" on="1"/>
        <pt x="162" y="260" on="0"/>
        <pt x="162" y="180" on="1"/>
        <pt x="162" y="147" on="0"/>
        <pt x="166" y="81" on="1"/>
        <pt x="171" y="26" on="0"/>
        <pt x="171" y="-23" on="1"/>
        <pt x="171" y="-96" on="0"/>
        <pt x="118" y="-152" on="0"/>
        <pt x="59" y="-152" on="1"/>
        <pt x="23" y="-152" on="1"/>
      </contour>
    </TTGlyph>
    <TTGlyph name="bracketleft" xMin="98" yMin="-152" xMax="261" yMax="708">
      <contour>
        <pt x="98" y="708" on="1"/>
        <pt x="261" y="708" on="1"/>
        <pt x="261" y="676" on="1"/>
        <pt x="138" y="676" on="1"/>
        <pt x="138" y="-120" on="1"/>
        <pt x="261" y="-120" on="1"/>
        <pt x="261" y="-152" on="1"/>
        <pt x="98" y="-152" on="1"/>
      </contour>
    </TTGlyph>
    <TTGlyph name="bracketleft.lat" xMin="98" yMin="-152" xMax="261" yMax="708">
      <contour>
        <pt x="98" y="708" on="1"/>
        <pt x="261" y="708" on="1"/>
        <pt x="261" y="676" on="1"/>
        <pt x="138" y="676" on="1"/>
        <pt x="138" y="-120" on="1"/>
        <pt x="261" y="-120" on="1"/>
        <pt x="261" y="-152" on="1"/>
        <pt x="98" y="-152" on="1"/>
      </contour>
    </TTGlyph>
    <TTGlyph name="bracketright" xMin="23" yMin="-152" xMax="186" yMax="708">
      <contour>
        <pt x="23" y="-120" on="1"/>
        <pt x="146" y="-120" on="1"/>
        <pt x="146" y="676" on="1"/>
        <pt x="23" y="676" on="1"/>
        <pt x="23" y="708" on="1"/>
        <pt x="186" y="708" on="1"/>
        <pt x="186" y="-152" on="1"/>
        <pt x="23" y="-152" on="1"/>
      </contour>
    </TTGlyph>
    <TTGlyph name="bracketright.lat" xMin="23" yMin="-152" xMax="186" yMax="708">
      <contour>
        <pt x="23" y="-120" on="1"/>
        <pt x="146" y="-120" on="1"/>
        <pt x="146" y="676" on="1"/>
        <pt x="23" y="676" on="1"/>
        <pt x="23" y="708" on="1"/>
        <pt x="186" y="708" on="1"/>
        <pt x="186" y="-152" on="1"/>
        <pt x="23" y="-152" on="1"/>
      </contour>
    </TTGlyph>
    <TTGlyph name="breve" xMin="118" yMin="570" xMax="418" yMax="724">
      <component glyphName="uni0306" x="268" y="0" flags="0x0"/>
    </TTGlyph>
    <TTGlyph name="brokenbar" xMin="94" yMin="-164" xMax="134" yMax="667">
      <contour>
        <pt x="134" y="667" on="1"/>
        <pt x="134" y="-164" on="1"/>
        <pt x="94" y="-164" on="1"/>
        <pt x="94" y="667" on="1"/>
      </contour>
    </TTGlyph>
    <TTGlyph name="bullet" xMin="40" yMin="152" xMax="245" yMax="376">
      <contour>
        <pt x="101" y="152" on="0"/>
        <pt x="40" y="214" on="0"/>
        <pt x="40" y="264" on="1"/>
        <pt x="40" y="313" on="0"/>
        <pt x="102" y="376" on="0"/>
        <pt x="143" y="376" on="1"/>
        <pt x="184" y="376" on="0"/>
        <pt x="245" y="313" on="0"/>
        <pt x="245" y="264" on="1"/>
        <pt x="245" y="214" on="0"/>
        <pt x="184" y="152" on="0"/>
        <pt x="143" y="152" on="1"/>
      </contour>
    </TTGlyph>
    <TTGlyph name="bullet.lat" xMin="40" yMin="152" xMax="245" yMax="376">
      <contour>
        <pt x="101" y="152" on="0"/>
        <pt x="40" y="214" on="0"/>
        <pt x="40" y="264" on="1"/>
        <pt x="40" y="313" on="0"/>
        <pt x="102" y="376" on="0"/>
        <pt x="143" y="376" on="1"/>
        <pt x="184" y="376" on="0"/>
        <pt x="245" y="313" on="0"/>
        <pt x="245" y="264" on="1"/>
        <pt x="245" y="214" on="0"/>
        <pt x="184" y="152" on="0"/>
        <pt x="143" y="152" on="1"/>
      </contour>
    </TTGlyph>
    <TTGlyph name="c" xMin="51" yMin="-12" xMax="425" yMax="493">
      <contour>
        <pt x="208" y="-12" on="0"/>
        <pt x="108" y="48" on="0"/>
        <pt x="51" y="162" on="0"/>
        <pt x="51" y="240" on="1"/>
        <pt x="51" y="318" on="0"/>
        <pt x="112" y="433" on="0"/>
        <pt x="213" y="493" on="0"/>
        <pt x="273" y="493" on="1"/>
        <pt x="318" y="493" on="0"/>
        <pt x="385" y="461" on="0"/>
        <pt x="414" y="434" on="1"/>
        <pt x="385" y="399" on="1"/>
        <pt x="331" y="449" on="0"/>
        <pt x="275" y="449" on="1"/>
        <pt x="227" y="449" on="0"/>
        <pt x="149" y="396" on="0"/>
        <pt x="105" y="300" on="0"/>
        <pt x="105" y="240" on="1"/>
        <pt x="105" y="147" on="0"/>
        <pt x="198" y="33" on="0"/>
        <pt x="274" y="33" on="1"/>
        <pt x="341" y="33" on="0"/>
        <pt x="400" y="87" on="1"/>
        <pt x="425" y="51" on="1"/>
        <pt x="353" y="-12" on="0"/>
        <pt x="271" y="-12" on="1"/>
      </contour>
    </TTGlyph>
    <TTGlyph name="caron" xMin="126" yMin="573" xMax="409" yMax="739">
      <component glyphName="uni030C" x="268" y="0" flags="0x0"/>
    </TTGlyph>
    <TTGlyph name="ccaron" xMin="51" yMin="-12" xMax="425" yMax="739">
      <component glyphName="c" x="0" y="0" flags="0x0"/>
      <component glyphName="uni030C" x="270" y="0" flags="0x0"/>
    </TTGlyph>
    <TTGlyph name="ccedilla" xMin="51" yMin="-220" xMax="425" yMax="493">
      <contour>
        <pt x="301" y="-73" on="0"/>
        <pt x="338" y="-105" on="0"/>
        <pt x="338" y="-134" on="1"/>
        <pt x="338" y="-174" on="0"/>
        <pt x="263" y="-215" on="0"/>
        <pt x="189" y="-220" on="1"/>
        <pt x="182" y="-188" on="1"/>
        <pt x="245" y="-184" on="0"/>
        <pt x="294" y="-159" on="0"/>
        <pt x="294" y="-136" on="1"/>
        <pt x="294" y="-115" on="0"/>
        <pt x="258" y="-92" on="0"/>
        <pt x="216" y="-86" on="1"/>
        <pt x="252" y="-11" on="1"/>
        <pt x="194" y="-6" on="0"/>
        <pt x="102" y="56" on="0"/>
        <pt x="51" y="166" on="0"/>
        <pt x="51" y="240" on="1"/>
        <pt x="51" y="318" on="0"/>
        <pt x="112" y="433" on="0"/>
        <pt x="213" y="493" on="0"/>
        <pt x="273" y="493" on="1"/>
        <pt x="318" y="493" on="0"/>
        <pt x="385" y="461" on="0"/>
        <pt x="414" y="434" on="1"/>
        <pt x="385" y="399" on="1"/>
        <pt x="331" y="449" on="0"/>
        <pt x="275" y="449" on="1"/>
        <pt x="227" y="449" on="0"/>
        <pt x="149" y="396" on="0"/>
        <pt x="105" y="300" on="0"/>
        <pt x="105" y="240" on="1"/>
        <pt x="105" y="147" on="0"/>
        <pt x="198" y="33" on="0"/>
        <pt x="274" y="33" on="1"/>
        <pt x="341" y="33" on="0"/>
        <pt x="400" y="87" on="1"/>
        <pt x="425" y="51" on="1"/>
        <pt x="363" y="-4" on="0"/>
        <pt x="290" y="-11" on="1"/>
        <pt x="267" y="-65" on="1"/>
      </contour>
    </TTGlyph>
    <TTGlyph name="cedilla" xMin="182" yMin="-220" xMax="338" yMax="2">
      <component glyphName="uni0327" x="268" y="0" flags="0x0"/>
    </TTGlyph>
    <TTGlyph name="cent" xMin="62" yMin="-29" xMax="439" yMax="653">
      <contour>
        <pt x="374" y="82" on="0"/>
        <pt x="294" y="78" on="1"/>
        <pt x="294" y="-29" on="1"/>
        <pt x="256" y="-29" on="1"/>
        <pt x="256" y="79" on="1"/>
        <pt x="168" y="88" on="0"/>
        <pt x="62" y="210" on="0"/>
        <pt x="62" y="311" on="1"/>
        <pt x="62" y="410" on="0"/>
        <pt x="172" y="532" on="0"/>
        <pt x="256" y="542" on="1"/>
        <pt x="256" y="653" on="1"/>
        <pt x="294" y="653" on="1"/>
        <pt x="294" y="544" on="1"/>
        <pt x="368" y="542" on="0"/>
        <pt x="428" y="485" on="1"/>
        <pt x="401" y="452" on="1"/>
        <pt x="352" y="497" on="0"/>
        <pt x="294" y="500" on="1"/>
        <pt x="294" y="123" on="1"/>
        <pt x="358" y="126" on="0"/>
        <pt x="414" y="175" on="1"/>
        <pt x="439" y="142" on="1"/>
      </contour>
      <contour>
        <pt x="114" y="235" on="0"/>
        <pt x="191" y="136" on="0"/>
        <pt x="256" y="125" on="1"/>
        <pt x="256" y="497" on="1"/>
        <pt x="192" y="486" on="0"/>
        <pt x="114" y="385" on="0"/>
        <pt x="114" y="311" on="1"/>
      </contour>
    </TTGlyph>
    <TTGlyph name="cent.lat" xMin="62" yMin="-29" xMax="439" yMax="653">
      <contour>
        <pt x="374" y="82" on="0"/>
        <pt x="294" y="78" on="1"/>
        <pt x="294" y="-29" on="1"/>
        <pt x="256" y="-29" on="1"/>
        <pt x="256" y="79" on="1"/>
        <pt x="168" y="88" on="0"/>
        <pt x="62" y="210" on="0"/>
        <pt x="62" y="311" on="1"/>
        <pt x="62" y="410" on="0"/>
        <pt x="172" y="532" on="0"/>
        <pt x="256" y="542" on="1"/>
        <pt x="256" y="653" on="1"/>
        <pt x="294" y="653" on="1"/>
        <pt x="294" y="544" on="1"/>
        <pt x="368" y="542" on="0"/>
        <pt x="428" y="485" on="1"/>
        <pt x="401" y="452" on="1"/>
        <pt x="352" y="497" on="0"/>
        <pt x="294" y="500" on="1"/>
        <pt x="294" y="123" on="1"/>
        <pt x="358" y="126" on="0"/>
        <pt x="414" y="175" on="1"/>
        <pt x="439" y="142" on="1"/>
      </contour>
      <contour>
        <pt x="114" y="235" on="0"/>
        <pt x="191" y="136" on="0"/>
        <pt x="256" y="125" on="1"/>
        <pt x="256" y="497" on="1"/>
        <pt x="192" y="486" on="0"/>
        <pt x="114" y="385" on="0"/>
        <pt x="114" y="311" on="1"/>
      </contour>
    </TTGlyph>
    <TTGlyph name="chi" xMin="10" yMin="-191" xMax="463" yMax="493">
      <contour>
        <pt x="10" y="-179" on="1"/>
        <pt x="205" y="163" on="1"/>
        <pt x="15" y="478" on="1"/>
        <pt x="66" y="493" on="1"/>
        <pt x="229" y="211" on="1"/>
        <pt x="233" y="211" on="1"/>
        <pt x="375" y="481" on="1"/>
        <pt x="431" y="481" on="1"/>
        <pt x="257" y="163" on="1"/>
        <pt x="463" y="-176" on="1"/>
        <pt x="414" y="-191" on="1"/>
        <pt x="233" y="118" on="1"/>
        <pt x="229" y="118" on="1"/>
        <pt x="61" y="-191" on="1"/>
      </contour>
    </TTGlyph>
    <TTGlyph name="circledotted" xMin="51" yMin="-12" xMax="539" yMax="489">
      <contour>
        <pt x="324" y="489" on="0"/>
        <pt x="343" y="471" on="0"/>
        <pt x="343" y="455" on="1"/>
        <pt x="343" y="439" on="0"/>
        <pt x="324" y="421" on="0"/>
        <pt x="309" y="421" on="1"/>
        <pt x="296" y="421" on="0"/>
        <pt x="278" y="440" on="0"/>
        <pt x="278" y="455" on="1"/>
        <pt x="278" y="471" on="0"/>
        <pt x="296" y="489" on="0"/>
        <pt x="309" y="489" on="1"/>
      </contour>
      <contour>
        <pt x="203" y="466" on="0"/>
        <pt x="221" y="449" on="0"/>
        <pt x="221" y="432" on="1"/>
        <pt x="221" y="417" on="0"/>
        <pt x="203" y="399" on="0"/>
        <pt x="188" y="399" on="1"/>
        <pt x="175" y="399" on="0"/>
        <pt x="157" y="417" on="0"/>
        <pt x="157" y="432" on="1"/>
        <pt x="157" y="449" on="0"/>
        <pt x="174" y="466" on="0"/>
        <pt x="188" y="466" on="1"/>
      </contour>
      <contour>
        <pt x="399" y="386" on="0"/>
        <pt x="381" y="405" on="0"/>
        <pt x="381" y="420" on="1"/>
        <pt x="381" y="436" on="0"/>
        <pt x="399" y="453" on="0"/>
        <pt x="412" y="453" on="1"/>
        <pt x="426" y="453" on="0"/>
        <pt x="444" y="436" on="0"/>
        <pt x="444" y="420" on="1"/>
        <pt x="444" y="406" on="0"/>
        <pt x="436" y="396" on="1"/>
        <pt x="443" y="400" on="0"/>
        <pt x="451" y="400" on="1"/>
        <pt x="465" y="400" on="0"/>
        <pt x="483" y="382" on="0"/>
        <pt x="483" y="367" on="1"/>
        <pt x="483" y="351" on="0"/>
        <pt x="466" y="333" on="0"/>
        <pt x="451" y="333" on="1"/>
        <pt x="438" y="333" on="0"/>
        <pt x="420" y="352" on="0"/>
        <pt x="420" y="367" on="1"/>
        <pt x="420" y="380" on="0"/>
        <pt x="428" y="390" on="1"/>
        <pt x="421" y="386" on="0"/>
        <pt x="412" y="386" on="1"/>
      </contour>
      <contour>
        <pt x="124" y="385" on="0"/>
        <pt x="142" y="368" on="0"/>
        <pt x="142" y="352" on="1"/>
        <pt x="142" y="336" on="0"/>
        <pt x="124" y="317" on="0"/>
        <pt x="109" y="317" on="1"/>
        <pt x="96" y="317" on="0"/>
        <pt x="78" y="336" on="0"/>
        <pt x="78" y="352" on="1"/>
        <pt x="78" y="368" on="0"/>
        <pt x="96" y="385" on="0"/>
        <pt x="109" y="385" on="1"/>
      </contour>
      <contour>
        <pt x="116" y="225" on="0"/>
        <pt x="97" y="207" on="0"/>
        <pt x="81" y="207" on="1"/>
        <pt x="68" y="207" on="0"/>
        <pt x="51" y="225" on="0"/>
        <pt x="51" y="241" on="1"/>
        <pt x="51" y="257" on="0"/>
        <pt x="68" y="274" on="0"/>
        <pt x="81" y="274" on="1"/>
        <pt x="97" y="274" on="0"/>
        <pt x="116" y="257" on="0"/>
        <pt x="116" y="241" on="1"/>
      </contour>
      <contour>
        <pt x="520" y="274" on="0"/>
        <pt x="539" y="257" on="0"/>
        <pt x="539" y="241" on="1"/>
        <pt x="539" y="225" on="0"/>
        <pt x="521" y="207" on="0"/>
        <pt x="506" y="207" on="1"/>
        <pt x="492" y="207" on="0"/>
        <pt x="474" y="225" on="0"/>
        <pt x="474" y="241" on="1"/>
        <pt x="474" y="257" on="0"/>
        <pt x="492" y="274" on="0"/>
        <pt x="506" y="274" on="1"/>
      </contour>
      <contour>
        <pt x="124" y="165" on="0"/>
        <pt x="142" y="147" on="0"/>
        <pt x="142" y="131" on="1"/>
        <pt x="142" y="115" on="0"/>
        <pt x="124" y="97" on="0"/>
        <pt x="109" y="97" on="1"/>
        <pt x="96" y="97" on="0"/>
        <pt x="78" y="116" on="0"/>
        <pt x="78" y="131" on="1"/>
        <pt x="78" y="147" on="0"/>
        <pt x="96" y="165" on="0"/>
        <pt x="109" y="165" on="1"/>
      </contour>
      <contour>
        <pt x="493" y="165" on="0"/>
        <pt x="511" y="147" on="0"/>
        <pt x="511" y="131" on="1"/>
        <pt x="511" y="115" on="0"/>
        <pt x="494" y="97" on="0"/>
        <pt x="479" y="97" on="1"/>
        <pt x="466" y="97" on="0"/>
        <pt x="447" y="116" on="0"/>
        <pt x="447" y="131" on="1"/>
        <pt x="447" y="147" on="0"/>
        <pt x="466" y="165" on="0"/>
        <pt x="479" y="165" on="1"/>
      </contour>
      <contour>
        <pt x="202" y="82" on="0"/>
        <pt x="221" y="65" on="0"/>
        <pt x="221" y="51" on="1"/>
        <pt x="221" y="34" on="0"/>
        <pt x="203" y="15" on="0"/>
        <pt x="188" y="15" on="1"/>
        <pt x="175" y="15" on="0"/>
        <pt x="157" y="34" on="0"/>
        <pt x="157" y="51" on="1"/>
        <pt x="157" y="65" on="0"/>
        <pt x="175" y="82" on="0"/>
        <pt x="188" y="82" on="1"/>
      </contour>
      <contour>
        <pt x="414" y="82" on="0"/>
        <pt x="432" y="66" on="0"/>
        <pt x="432" y="51" on="1"/>
        <pt x="432" y="34" on="0"/>
        <pt x="415" y="15" on="0"/>
        <pt x="399" y="15" on="1"/>
        <pt x="386" y="15" on="0"/>
        <pt x="369" y="34" on="0"/>
        <pt x="369" y="51" on="1"/>
        <pt x="369" y="65" on="0"/>
        <pt x="386" y="82" on="0"/>
        <pt x="399" y="82" on="1"/>
      </contour>
      <contour>
        <pt x="309" y="55" on="0"/>
        <pt x="327" y="37" on="0"/>
        <pt x="327" y="22" on="1"/>
        <pt x="327" y="6" on="0"/>
        <pt x="309" y="-12" on="0"/>
        <pt x="294" y="-12" on="1"/>
        <pt x="281" y="-12" on="0"/>
        <pt x="263" y="6" on="0"/>
        <pt x="263" y="22" on="1"/>
        <pt x="263" y="37" on="0"/>
        <pt x="281" y="55" on="0"/>
        <pt x="294" y="55" on="1"/>
      </contour>
    </TTGlyph>
    <TTGlyph name="circumflex" xMin="126" yMin="572" xMax="409" yMax="737">
      <component glyphName="uni0302" x="268" y="0" flags="0x0"/>
    </TTGlyph>
    <TTGlyph name="colon" xMin="67" yMin="-12" xMax="158" yMax="464">
      <component glyphName="period" x="0" y="378" flags="0x4"/>
      <component glyphName="period" x="0" y="0" flags="0x0"/>
    </TTGlyph>
    <TTGlyph name="comma" xMin="48" yMin="-158" xMax="171" yMax="86">
      <contour>
        <pt x="142" y="86" on="0"/>
        <pt x="171" y="44" on="0"/>
        <pt x="171" y="9" on="1"/>
        <pt x="171" y="-46" on="0"/>
        <pt x="113" y="-132" on="0"/>
        <pt x="63" y="-158" on="1"/>
        <pt x="48" y="-124" on="1"/>
        <pt x="85" y="-105" on="0"/>
        <pt x="127" y="-44" on="0"/>
        <pt x="127" y="-3" on="1"/>
        <pt x="123" y="-4" on="0"/>
        <pt x="116" y="-4" on="1"/>
        <pt x="96" y="-4" on="0"/>
        <pt x="71" y="19" on="0"/>
        <pt x="71" y="41" on="1"/>
        <pt x="71" y="62" on="0"/>
        <pt x="98" y="86" on="0"/>
        <pt x="117" y="86" on="1"/>
      </contour>
    </TTGlyph>
    <TTGlyph name="copyright" xMin="51" yMin="-11" xMax="691" yMax="653">
      <contour>
        <pt x="284" y="-11" on="0"/>
        <pt x="138" y="72" on="0"/>
        <pt x="51" y="224" on="0"/>
        <pt x="51" y="323" on="1"/>
        <pt x="51" y="421" on="0"/>
        <pt x="138" y="571" on="0"/>
        <pt x="284" y="653" on="0"/>
        <pt x="371" y="653" on="1"/>
        <pt x="458" y="653" on="0"/>
        <pt x="604" y="571" on="0"/>
        <pt x="691" y="421" on="0"/>
        <pt x="691" y="323" on="1"/>
        <pt x="691" y="224" on="0"/>
        <pt x="604" y="72" on="0"/>
        <pt x="458" y="-11" on="0"/>
        <pt x="371" y="-11" on="1"/>
      </contour>
      <contour>
        <pt x="448" y="21" on="0"/>
        <pt x="577" y="97" on="0"/>
        <pt x="654" y="235" on="0"/>
        <pt x="654" y="323" on="1"/>
        <pt x="654" y="410" on="0"/>
        <pt x="577" y="545" on="0"/>
        <pt x="448" y="620" on="0"/>
        <pt x="371" y="620" on="1"/>
        <pt x="294" y="620" on="0"/>
        <pt x="165" y="545" on="0"/>
        <pt x="88" y="410" on="0"/>
        <pt x="88" y="323" on="1"/>
        <pt x="88" y="235" on="0"/>
        <pt x="165" y="97" on="0"/>
        <pt x="294" y="21" on="0"/>
        <pt x="371" y="21" on="1"/>
      </contour>
      <contour>
        <pt x="327" y="125" on="0"/>
        <pt x="247" y="172" on="0"/>
        <pt x="200" y="261" on="0"/>
        <pt x="200" y="322" on="1"/>
        <pt x="200" y="379" on="0"/>
        <pt x="250" y="464" on="0"/>
        <pt x="333" y="510" on="0"/>
        <pt x="381" y="510" on="1"/>
        <pt x="419" y="510" on="0"/>
        <pt x="474" y="482" on="0"/>
        <pt x="501" y="455" on="1"/>
        <pt x="477" y="425" on="1"/>
        <pt x="453" y="448" on="0"/>
        <pt x="409" y="469" on="0"/>
        <pt x="381" y="469" on="1"/>
        <pt x="322" y="469" on="0"/>
        <pt x="247" y="388" on="0"/>
        <pt x="247" y="322" on="1"/>
        <pt x="247" y="250" on="0"/>
        <pt x="318" y="165" on="0"/>
        <pt x="378" y="165" on="1"/>
        <pt x="411" y="165" on="0"/>
        <pt x="465" y="190" on="0"/>
        <pt x="491" y="213" on="1"/>
        <pt x="513" y="183" on="1"/>
        <pt x="480" y="154" on="0"/>
        <pt x="419" y="125" on="0"/>
        <pt x="376" y="125" on="1"/>
      </contour>
    </TTGlyph>
    <TTGlyph name="copyright.lat" xMin="51" yMin="-11" xMax="691" yMax="653">
      <contour>
        <pt x="284" y="-11" on="0"/>
        <pt x="138" y="72" on="0"/>
        <pt x="51" y="224" on="0"/>
        <pt x="51" y="323" on="1"/>
        <pt x="51" y="421" on="0"/>
        <pt x="138" y="571" on="0"/>
        <pt x="284" y="653" on="0"/>
        <pt x="371" y="653" on="1"/>
        <pt x="458" y="653" on="0"/>
        <pt x="604" y="571" on="0"/>
        <pt x="691" y="421" on="0"/>
        <pt x="691" y="323" on="1"/>
        <pt x="691" y="224" on="0"/>
        <pt x="604" y="72" on="0"/>
        <pt x="458" y="-11" on="0"/>
        <pt x="371" y="-11" on="1"/>
      </contour>
      <contour>
        <pt x="448" y="21" on="0"/>
        <pt x="577" y="97" on="0"/>
        <pt x="654" y="235" on="0"/>
        <pt x="654" y="323" on="1"/>
        <pt x="654" y="410" on="0"/>
        <pt x="577" y="545" on="0"/>
        <pt x="448" y="620" on="0"/>
        <pt x="371" y="620" on="1"/>
        <pt x="294" y="620" on="0"/>
        <pt x="165" y="545" on="0"/>
        <pt x="88" y="410" on="0"/>
        <pt x="88" y="323" on="1"/>
        <pt x="88" y="235" on="0"/>
        <pt x="165" y="97" on="0"/>
        <pt x="294" y="21" on="0"/>
        <pt x="371" y="21" on="1"/>
      </contour>
      <contour>
        <pt x="327" y="125" on="0"/>
        <pt x="247" y="172" on="0"/>
        <pt x="200" y="261" on="0"/>
        <pt x="200" y="322" on="1"/>
        <pt x="200" y="379" on="0"/>
        <pt x="250" y="464" on="0"/>
        <pt x="333" y="510" on="0"/>
        <pt x="381" y="510" on="1"/>
        <pt x="419" y="510" on="0"/>
        <pt x="474" y="482" on="0"/>
        <pt x="501" y="455" on="1"/>
        <pt x="477" y="425" on="1"/>
        <pt x="453" y="448" on="0"/>
        <pt x="409" y="469" on="0"/>
        <pt x="381" y="469" on="1"/>
        <pt x="322" y="469" on="0"/>
        <pt x="247" y="388" on="0"/>
        <pt x="247" y="322" on="1"/>
        <pt x="247" y="250" on="0"/>
        <pt x="318" y="165" on="0"/>
        <pt x="378" y="165" on="1"/>
        <pt x="411" y="165" on="0"/>
        <pt x="465" y="190" on="0"/>
        <pt x="491" y="213" on="1"/>
        <pt x="513" y="183" on="1"/>
        <pt x="480" y="154" on="0"/>
        <pt x="419" y="125" on="0"/>
        <pt x="376" y="125" on="1"/>
      </contour>
    </TTGlyph>
    <TTGlyph name="currency" xMin="30" yMin="112" xMax="453" yMax="548">
      <contour>
        <pt x="30" y="143" on="1"/>
        <pt x="95" y="210" on="1"/>
        <pt x="58" y="261" on="0"/>
        <pt x="58" y="328" on="1"/>
        <pt x="58" y="398" on="0"/>
        <pt x="95" y="449" on="1"/>
        <pt x="30" y="517" on="1"/>
        <pt x="60" y="548" on="1"/>
        <pt x="126" y="479" on="1"/>
        <pt x="150" y="499" on="0"/>
        <pt x="209" y="522" on="0"/>
        <pt x="241" y="522" on="1"/>
        <pt x="305" y="522" on="0"/>
        <pt x="356" y="479" on="1"/>
        <pt x="423" y="548" on="1"/>
        <pt x="453" y="517" on="1"/>
        <pt x="387" y="449" on="1"/>
        <pt x="425" y="396" on="0"/>
        <pt x="425" y="328" on="1"/>
        <pt x="425" y="263" on="0"/>
        <pt x="387" y="210" on="1"/>
        <pt x="453" y="143" on="1"/>
        <pt x="423" y="112" on="1"/>
        <pt x="356" y="180" on="1"/>
        <pt x="333" y="159" on="0"/>
        <pt x="273" y="137" on="0"/>
        <pt x="241" y="137" on="1"/>
        <pt x="209" y="137" on="0"/>
        <pt x="149" y="159" on="0"/>
        <pt x="126" y="180" on="1"/>
        <pt x="60" y="112" on="1"/>
      </contour>
      <contour>
        <pt x="277" y="178" on="0"/>
        <pt x="339" y="216" on="0"/>
        <pt x="375" y="285" on="0"/>
        <pt x="375" y="328" on="1"/>
        <pt x="375" y="372" on="0"/>
        <pt x="339" y="441" on="0"/>
        <pt x="277" y="480" on="0"/>
        <pt x="241" y="480" on="1"/>
        <pt x="205" y="480" on="0"/>
        <pt x="144" y="441" on="0"/>
        <pt x="108" y="372" on="0"/>
        <pt x="108" y="328" on="1"/>
        <pt x="108" y="285" on="0"/>
        <pt x="144" y="216" on="0"/>
        <pt x="205" y="178" on="0"/>
        <pt x="241" y="178" on="1"/>
      </contour>
    </TTGlyph>
    <TTGlyph name="d" xMin="51" yMin="-12" xMax="455" yMax="718">
      <contour>
        <pt x="158" y="-12" on="0"/>
        <pt x="51" y="120" on="0"/>
        <pt x="51" y="240" on="1"/>
        <pt x="51" y="315" on="0"/>
        <pt x="109" y="430" on="0"/>
        <pt x="206" y="493" on="0"/>
        <pt x="263" y="493" on="1"/>
        <pt x="304" y="493" on="0"/>
        <pt x="369" y="465" on="0"/>
        <pt x="407" y="435" on="1"/>
        <pt x="404" y="522" on="1"/>
        <pt x="404" y="718" on="1"/>
        <pt x="455" y="718" on="1"/>
        <pt x="455" y="0" on="1"/>
        <pt x="412" y="0" on="1"/>
        <pt x="407" y="61" on="1"/>
        <pt x="405" y="61" on="1"/>
        <pt x="332" y="-12" on="0"/>
        <pt x="250" y="-12" on="1"/>
      </contour>
      <contour>
        <pt x="296" y="33" on="0"/>
        <pt x="367" y="71" on="0"/>
        <pt x="404" y="110" on="1"/>
        <pt x="404" y="389" on="1"/>
        <pt x="369" y="420" on="0"/>
        <pt x="304" y="448" on="0"/>
        <pt x="269" y="448" on="1"/>
        <pt x="223" y="448" on="0"/>
        <pt x="148" y="394" on="0"/>
        <pt x="105" y="299" on="0"/>
        <pt x="105" y="240" on="1"/>
        <pt x="105" y="144" on="0"/>
        <pt x="186" y="33" on="0"/>
        <pt x="259" y="33" on="1"/>
      </contour>
    </TTGlyph>
    <TTGlyph name="dagger" xMin="59" yMin="-80" xMax="368" yMax="712">
      <contour>
        <pt x="193" y="517" on="1"/>
        <pt x="59" y="513" on="1"/>
        <pt x="59" y="561" on="1"/>
        <pt x="193" y="558" on="1"/>
        <pt x="190" y="712" on="1"/>
        <pt x="237" y="712" on="1"/>
        <pt x="234" y="558" on="1"/>
        <pt x="368" y="561" on="1"/>
        <pt x="368" y="513" on="1"/>
        <pt x="234" y="517" on="1"/>
        <pt x="237" y="-80" on="1"/>
        <pt x="190" y="-80" on="1"/>
      </contour>
    </TTGlyph>
    <TTGlyph name="dagger.lat" xMin="59" yMin="-80" xMax="368" yMax="712">
      <contour>
        <pt x="193" y="517" on="1"/>
        <pt x="59" y="513" on="1"/>
        <pt x="59" y="561" on="1"/>
        <pt x="193" y="558" on="1"/>
        <pt x="190" y="712" on="1"/>
        <pt x="237" y="712" on="1"/>
        <pt x="234" y="558" on="1"/>
        <pt x="368" y="561" on="1"/>
        <pt x="368" y="513" on="1"/>
        <pt x="234" y="517" on="1"/>
        <pt x="237" y="-80" on="1"/>
        <pt x="190" y="-80" on="1"/>
      </contour>
    </TTGlyph>
    <TTGlyph name="daggerdbl" xMin="59" yMin="-80" xMax="368" yMax="712">
      <contour>
        <pt x="193" y="74" on="1"/>
        <pt x="59" y="71" on="1"/>
        <pt x="59" y="119" on="1"/>
        <pt x="193" y="115" on="1"/>
        <pt x="190" y="316" on="1"/>
        <pt x="193" y="517" on="1"/>
        <pt x="59" y="513" on="1"/>
        <pt x="59" y="561" on="1"/>
        <pt x="193" y="558" on="1"/>
        <pt x="190" y="712" on="1"/>
        <pt x="237" y="712" on="1"/>
        <pt x="234" y="558" on="1"/>
        <pt x="368" y="561" on="1"/>
        <pt x="368" y="513" on="1"/>
        <pt x="234" y="517" on="1"/>
        <pt x="237" y="316" on="1"/>
        <pt x="234" y="115" on="1"/>
        <pt x="368" y="119" on="1"/>
        <pt x="368" y="71" on="1"/>
        <pt x="234" y="74" on="1"/>
        <pt x="237" y="-80" on="1"/>
        <pt x="190" y="-80" on="1"/>
      </contour>
    </TTGlyph>
    <TTGlyph name="daggerdbl.lat" xMin="59" yMin="-80" xMax="368" yMax="712">
      <contour>
        <pt x="193" y="74" on="1"/>
        <pt x="59" y="71" on="1"/>
        <pt x="59" y="119" on="1"/>
        <pt x="193" y="115" on="1"/>
        <pt x="190" y="316" on="1"/>
        <pt x="193" y="517" on="1"/>
        <pt x="59" y="513" on="1"/>
        <pt x="59" y="561" on="1"/>
        <pt x="193" y="558" on="1"/>
        <pt x="190" y="712" on="1"/>
        <pt x="237" y="712" on="1"/>
        <pt x="234" y="558" on="1"/>
        <pt x="368" y="561" on="1"/>
        <pt x="368" y="513" on="1"/>
        <pt x="234" y="517" on="1"/>
        <pt x="237" y="316" on="1"/>
        <pt x="234" y="115" on="1"/>
        <pt x="368" y="119" on="1"/>
        <pt x="368" y="71" on="1"/>
        <pt x="234" y="74" on="1"/>
        <pt x="237" y="-80" on="1"/>
        <pt x="190" y="-80" on="1"/>
      </contour>
    </TTGlyph>
    <TTGlyph name="degree" xMin="41" yMin="444" xMax="274" yMax="684">
      <contour>
        <pt x="110" y="444" on="0"/>
        <pt x="41" y="510" on="0"/>
        <pt x="41" y="563" on="1"/>
        <pt x="41" y="618" on="0"/>
        <pt x="110" y="684" on="0"/>
        <pt x="157" y="684" on="1"/>
        <pt x="205" y="684" on="0"/>
        <pt x="274" y="618" on="0"/>
        <pt x="274" y="563" on="1"/>
        <pt x="274" y="510" on="0"/>
        <pt x="205" y="444" on="0"/>
        <pt x="157" y="444" on="1"/>
      </contour>
      <contour>
        <pt x="192" y="478" on="0"/>
        <pt x="237" y="526" on="0"/>
        <pt x="237" y="563" on="1"/>
        <pt x="237" y="601" on="0"/>
        <pt x="192" y="650" on="0"/>
        <pt x="157" y="650" on="1"/>
        <pt x="122" y="650" on="0"/>
        <pt x="78" y="601" on="0"/>
        <pt x="78" y="563" on="1"/>
        <pt x="78" y="526" on="0"/>
        <pt x="123" y="478" on="0"/>
        <pt x="157" y="478" on="1"/>
      </contour>
    </TTGlyph>
    <TTGlyph name="degree.lat" xMin="41" yMin="444" xMax="274" yMax="684">
      <contour>
        <pt x="110" y="444" on="0"/>
        <pt x="41" y="510" on="0"/>
        <pt x="41" y="563" on="1"/>
        <pt x="41" y="618" on="0"/>
        <pt x="110" y="684" on="0"/>
        <pt x="157" y="684" on="1"/>
        <pt x="205" y="684" on="0"/>
        <pt x="274" y="618" on="0"/>
        <pt x="274" y="563" on="1"/>
        <pt x="274" y="510" on="0"/>
        <pt x="205" y="444" on="0"/>
        <pt x="157" y="444" on="1"/>
      </contour>
      <contour>
        <pt x="192" y="478" on="0"/>
        <pt x="237" y="526" on="0"/>
        <pt x="237" y="563" on="1"/>
        <pt x="237" y="601" on="0"/>
        <pt x="192" y="650" on="0"/>
        <pt x="157" y="650" on="1"/>
        <pt x="122" y="650" on="0"/>
        <pt x="78" y="601" on="0"/>
        <pt x="78" y="563" on="1"/>
        <pt x="78" y="526" on="0"/>
        <pt x="123" y="478" on="0"/>
        <pt x="157" y="478" on="1"/>
      </contour>
    </TTGlyph>
    <TTGlyph name="dieresis" xMin="138" yMin="596" xMax="397" yMax="674">
      <component glyphName="uni0308" x="268" y="0" flags="0x0"/>
    </TTGlyph>
    <TTGlyph name="divide" xMin="34" yMin="107" xMax="448" yMax="552">
      <contour>
        <pt x="224" y="466" on="0"/>
        <pt x="200" y="491" on="0"/>
        <pt x="200" y="510" on="1"/>
        <pt x="200" y="529" on="0"/>
        <pt x="224" y="552" on="0"/>
        <pt x="241" y="552" on="1"/>
        <pt x="259" y="552" on="0"/>
        <pt x="282" y="529" on="0"/>
        <pt x="282" y="510" on="1"/>
        <pt x="282" y="491" on="0"/>
        <pt x="258" y="466" on="0"/>
        <pt x="241" y="466" on="1"/>
      </contour>
      <contour>
        <pt x="34" y="351" on="1"/>
        <pt x="448" y="351" on="1"/>
        <pt x="448" y="309" on="1"/>
        <pt x="34" y="309" on="1"/>
      </contour>
      <contour>
        <pt x="223" y="107" on="0"/>
        <pt x="200" y="131" on="0"/>
        <pt x="200" y="150" on="1"/>
        <pt x="200" y="168" on="0"/>
        <pt x="224" y="192" on="0"/>
        <pt x="241" y="192" on="1"/>
        <pt x="258" y="192" on="0"/>
        <pt x="282" y="168" on="0"/>
        <pt x="282" y="150" on="1"/>
        <pt x="282" y="131" on="0"/>
        <pt x="259" y="107" on="0"/>
        <pt x="241" y="107" on="1"/>
      </contour>
    </TTGlyph>
    <TTGlyph name="dollar" xMin="58" yMin="-110" xMax="422" yMax="749">
      <contour>
        <pt x="422" y="85" on="0"/>
        <pt x="336" y="-4" on="0"/>
        <pt x="268" y="-11" on="1"/>
        <pt x="268" y="-110" on="1"/>
        <pt x="226" y="-110" on="1"/>
        <pt x="226" y="-11" on="1"/>
        <pt x="178" y="-7" on="0"/>
        <pt x="90" y="36" on="0"/>
        <pt x="58" y="66" on="1"/>
        <pt x="84" y="102" on="1"/>
        <pt x="161" y="33" on="0"/>
        <pt x="245" y="33" on="1"/>
        <pt x="305" y="33" on="0"/>
        <pt x="371" y="97" on="0"/>
        <pt x="371" y="151" on="1"/>
        <pt x="371" y="195" on="0"/>
        <pt x="333" y="255" on="0"/>
        <pt x="276" y="293" on="0"/>
        <pt x="230" y="316" on="1"/>
        <pt x="181" y="341" on="0"/>
        <pt x="124" y="380" on="0"/>
        <pt x="84" y="444" on="0"/>
        <pt x="84" y="492" on="1"/>
        <pt x="84" y="555" on="0"/>
        <pt x="163" y="642" on="0"/>
        <pt x="226" y="650" on="1"/>
        <pt x="226" y="749" on="1"/>
        <pt x="268" y="749" on="1"/>
        <pt x="268" y="650" on="1"/>
        <pt x="312" y="647" on="0"/>
        <pt x="376" y="610" on="0"/>
        <pt x="406" y="578" on="1"/>
        <pt x="377" y="547" on="1"/>
        <pt x="344" y="579" on="0"/>
        <pt x="291" y="607" on="0"/>
        <pt x="249" y="607" on="1"/>
        <pt x="199" y="607" on="0"/>
        <pt x="136" y="544" on="0"/>
        <pt x="136" y="495" on="1"/>
        <pt x="136" y="459" on="0"/>
        <pt x="170" y="408" on="0"/>
        <pt x="220" y="375" on="0"/>
        <pt x="263" y="354" on="1"/>
        <pt x="314" y="329" on="0"/>
        <pt x="378" y="286" on="0"/>
        <pt x="422" y="211" on="0"/>
        <pt x="422" y="155" on="1"/>
      </contour>
    </TTGlyph>
    <TTGlyph name="dollar.lat" xMin="58" yMin="-110" xMax="422" yMax="749">
      <contour>
        <pt x="422" y="85" on="0"/>
        <pt x="336" y="-4" on="0"/>
        <pt x="268" y="-11" on="1"/>
        <pt x="268" y="-110" on="1"/>
        <pt x="226" y="-110" on="1"/>
        <pt x="226" y="-11" on="1"/>
        <pt x="178" y="-7" on="0"/>
        <pt x="90" y="36" on="0"/>
        <pt x="58" y="66" on="1"/>
        <pt x="84" y="102" on="1"/>
        <pt x="161" y="33" on="0"/>
        <pt x="245" y="33" on="1"/>
        <pt x="305" y="33" on="0"/>
        <pt x="371" y="97" on="0"/>
        <pt x="371" y="151" on="1"/>
        <pt x="371" y="195" on="0"/>
        <pt x="333" y="255" on="0"/>
        <pt x="276" y="293" on="0"/>
        <pt x="230" y="316" on="1"/>
        <pt x="181" y="341" on="0"/>
        <pt x="124" y="380" on="0"/>
        <pt x="84" y="444" on="0"/>
        <pt x="84" y="492" on="1"/>
        <pt x="84" y="555" on="0"/>
        <pt x="163" y="642" on="0"/>
        <pt x="226" y="650" on="1"/>
        <pt x="226" y="749" on="1"/>
        <pt x="268" y="749" on="1"/>
        <pt x="268" y="650" on="1"/>
        <pt x="312" y="647" on="0"/>
        <pt x="376" y="610" on="0"/>
        <pt x="406" y="578" on="1"/>
        <pt x="377" y="547" on="1"/>
        <pt x="344" y="579" on="0"/>
        <pt x="291" y="607" on="0"/>
        <pt x="249" y="607" on="1"/>
        <pt x="199" y="607" on="0"/>
        <pt x="136" y="544" on="0"/>
        <pt x="136" y="495" on="1"/>
        <pt x="136" y="459" on="0"/>
        <pt x="170" y="408" on="0"/>
        <pt x="220" y="375" on="0"/>
        <pt x="263" y="354" on="1"/>
        <pt x="314" y="329" on="0"/>
        <pt x="378" y="286" on="0"/>
        <pt x="422" y="211" on="0"/>
        <pt x="422" y="155" on="1"/>
      </contour>
    </TTGlyph>
    <TTGlyph name="dotaccent" xMin="227" yMin="594" xMax="309" yMax="680">
      <component glyphName="uni0307" x="268" y="0" flags="0x0"/>
    </TTGlyph>
    <TTGlyph name="dotbelowcomb" xMin="-41" yMin="-197" xMax="41" yMax="-111">
      <contour>
        <pt x="-17" y="-197" on="0"/>
        <pt x="-41" y="-172" on="0"/>
        <pt x="-41" y="-153" on="1"/>
        <pt x="-41" y="-135" on="0"/>
        <pt x="-17" y="-111" on="0"/>
        <pt x="0" y="-111" on="1"/>
        <pt x="17" y="-111" on="0"/>
        <pt x="41" y="-135" on="0"/>
        <pt x="41" y="-153" on="1"/>
        <pt x="41" y="-172" on="0"/>
        <pt x="17" y="-197" on="0"/>
        <pt x="0" y="-197" on="1"/>
      </contour>
    </TTGlyph>
    <TTGlyph name="dotlessi" xMin="90" yMin="0" xMax="141" yMax="481">
      <contour>
        <pt x="90" y="481" on="1"/>
        <pt x="141" y="481" on="1"/>
        <pt x="141" y="0" on="1"/>
        <pt x="90" y="0" on="1"/>
      </contour>
    </TTGlyph>
    <TTGlyph name="dotlessj" xMin="-33" yMin="-227" xMax="143" yMax="481">
      <contour>
        <pt x="-3" y="-227" on="0"/>
        <pt x="-33" y="-215" on="1"/>
        <pt x="-22" y="-174" on="1"/>
        <pt x="7" y="-183" on="0"/>
        <pt x="28" y="-183" on="1"/>
        <pt x="65" y="-183" on="0"/>
        <pt x="92" y="-131" on="0"/>
        <pt x="92" y="-80" on="1"/>
        <pt x="92" y="481" on="1"/>
        <pt x="143" y="481" on="1"/>
        <pt x="143" y="-83" on="1"/>
        <pt x="143" y="-155" on="0"/>
        <pt x="88" y="-227" on="0"/>
        <pt x="30" y="-227" on="1"/>
      </contour>
    </TTGlyph>
    <TTGlyph name="e" xMin="51" yMin="-12" xMax="448" yMax="493">
      <contour>
        <pt x="448" y="250" on="0"/>
        <pt x="445" y="232" on="1"/>
        <pt x="102" y="232" on="1"/>
        <pt x="103" y="170" on="0"/>
        <pt x="151" y="79" on="0"/>
        <pt x="231" y="31" on="0"/>
        <pt x="280" y="31" on="1"/>
        <pt x="348" y="31" on="0"/>
        <pt x="408" y="73" on="1"/>
        <pt x="428" y="36" on="1"/>
        <pt x="392" y="13" on="0"/>
        <pt x="323" y="-12" on="0"/>
        <pt x="275" y="-12" on="1"/>
        <pt x="213" y="-12" on="0"/>
        <pt x="110" y="49" on="0"/>
        <pt x="51" y="163" on="0"/>
        <pt x="51" y="240" on="1"/>
        <pt x="51" y="316" on="0"/>
        <pt x="110" y="431" on="0"/>
        <pt x="207" y="493" on="0"/>
        <pt x="262" y="493" on="1"/>
        <pt x="349" y="493" on="0"/>
        <pt x="448" y="375" on="0"/>
        <pt x="448" y="270" on="1"/>
      </contour>
      <contour>
        <pt x="400" y="273" on="1"/>
        <pt x="400" y="359" on="0"/>
        <pt x="327" y="450" on="0"/>
        <pt x="263" y="450" on="1"/>
        <pt x="225" y="450" on="0"/>
        <pt x="156" y="410" on="0"/>
        <pt x="109" y="330" on="0"/>
        <pt x="104" y="273" on="1"/>
      </contour>
    </TTGlyph>
    <TTGlyph name="e.sups" xMin="30" yMin="396" xMax="302" yMax="730">
      <contour>
        <pt x="116" y="396" on="0"/>
        <pt x="30" y="485" on="0"/>
        <pt x="30" y="563" on="1"/>
        <pt x="30" y="613" on="0"/>
        <pt x="69" y="689" on="0"/>
        <pt x="135" y="730" on="0"/>
        <pt x="175" y="730" on="1"/>
        <pt x="243" y="730" on="0"/>
        <pt x="302" y="640" on="0"/>
        <pt x="302" y="587" on="1"/>
        <pt x="302" y="570" on="0"/>
        <pt x="300" y="555" on="1"/>
        <pt x="73" y="555" on="1"/>
        <pt x="74" y="499" on="0"/>
        <pt x="135" y="431" on="0"/>
        <pt x="186" y="431" on="1"/>
        <pt x="231" y="431" on="0"/>
        <pt x="273" y="460" on="1"/>
        <pt x="291" y="430" on="1"/>
        <pt x="235" y="396" on="0"/>
        <pt x="182" y="396" on="1"/>
      </contour>
      <contour>
        <pt x="264" y="587" on="1"/>
        <pt x="264" y="631" on="0"/>
        <pt x="221" y="695" on="0"/>
        <pt x="176" y="695" on="1"/>
        <pt x="134" y="695" on="0"/>
        <pt x="79" y="637" on="0"/>
        <pt x="73" y="587" on="1"/>
      </contour>
    </TTGlyph>
    <TTGlyph name="eacute" xMin="51" yMin="-12" xMax="448" yMax="759">
      <component glyphName="e" x="0" y="0" flags="0x0"/>
      <component glyphName="acutecomb" x="263" y="0" flags="0x0"/>
    </TTGlyph>
    <TTGlyph name="ebreve" xMin="51" yMin="-12" xMax="448" yMax="724">
      <component glyphName="e" x="0" y="0" flags="0x0"/>
      <component glyphName="uni0306" x="263" y="0" flags="0x0"/>
    </TTGlyph>
    <TTGlyph name="ecircumflex" xMin="51" yMin="-12" xMax="448" yMax="737">
      <component glyphName="e" x="0" y="0" flags="0x0"/>
      <component glyphName="uni0302" x="263" y="0" flags="0x0"/>
    </TTGlyph>
    <TTGlyph name="edieresis" xMin="51" yMin="-12" xMax="448" yMax="674">
      <component glyphName="e" x="0" y="0" flags="0x0"/>
      <component glyphName="uni0308" x="263" y="0" flags="0x0"/>
    </TTGlyph>
    <TTGlyph name="egrave" xMin="51" yMin="-12" xMax="448" yMax="759">
      <component glyphName="e" x="0" y="0" flags="0x0"/>
      <component glyphName="gravecomb" x="263" y="0" flags="0x0"/>
    </TTGlyph>
    <TTGlyph name="eight" xMin="40" yMin="-12" xMax="440" yMax="651">
      <contour>
        <pt x="186" y="-12" on="0"/>
        <pt x="93" y="34" on="0"/>
        <pt x="40" y="114" on="0"/>
        <pt x="40" y="164" on="1"/>
        <pt x="40" y="223" on="0"/>
        <pt x="114" y="315" on="0"/>
        <pt x="166" y="343" on="1"/>
        <pt x="166" y="347" on="1"/>
        <pt x="75" y="407" on="0"/>
        <pt x="75" y="493" on="1"/>
        <pt x="75" y="539" on="0"/>
        <pt x="120" y="611" on="0"/>
        <pt x="198" y="651" on="0"/>
        <pt x="245" y="651" on="1"/>
        <pt x="325" y="651" on="0"/>
        <pt x="419" y="558" on="0"/>
        <pt x="419" y="484" on="1"/>
        <pt x="419" y="437" on="0"/>
        <pt x="363" y="350" on="0"/>
        <pt x="329" y="323" on="1"/>
        <pt x="329" y="319" on="1"/>
        <pt x="380" y="287" on="0"/>
        <pt x="440" y="213" on="0"/>
        <pt x="440" y="156" on="1"/>
        <pt x="440" y="109" on="0"/>
        <pt x="391" y="32" on="0"/>
        <pt x="302" y="-12" on="0"/>
        <pt x="244" y="-12" on="1"/>
      </contour>
      <contour>
        <pt x="371" y="404" on="0"/>
        <pt x="371" y="482" on="1"/>
        <pt x="371" y="536" on="0"/>
        <pt x="303" y="610" on="0"/>
        <pt x="244" y="610" on="1"/>
        <pt x="192" y="610" on="0"/>
        <pt x="125" y="544" on="0"/>
        <pt x="125" y="493" on="1"/>
        <pt x="125" y="452" on="0"/>
        <pt x="170" y="395" on="0"/>
        <pt x="236" y="359" on="0"/>
        <pt x="290" y="337" on="1"/>
      </contour>
      <contour>
        <pt x="310" y="30" on="0"/>
        <pt x="390" y="102" on="0"/>
        <pt x="390" y="157" on="1"/>
        <pt x="390" y="201" on="0"/>
        <pt x="339" y="261" on="0"/>
        <pt x="268" y="297" on="0"/>
        <pt x="199" y="324" on="1"/>
        <pt x="149" y="294" on="0"/>
        <pt x="90" y="215" on="0"/>
        <pt x="90" y="167" on="1"/>
        <pt x="90" y="129" on="0"/>
        <pt x="130" y="66" on="0"/>
        <pt x="201" y="30" on="0"/>
        <pt x="245" y="30" on="1"/>
      </contour>
    </TTGlyph>
    <TTGlyph name="eight.heb" xMin="40" yMin="-12" xMax="440" yMax="651">
      <contour>
        <pt x="186" y="-12" on="0"/>
        <pt x="93" y="34" on="0"/>
        <pt x="40" y="114" on="0"/>
        <pt x="40" y="164" on="1"/>
        <pt x="40" y="223" on="0"/>
        <pt x="114" y="315" on="0"/>
        <pt x="166" y="343" on="1"/>
        <pt x="166" y="347" on="1"/>
        <pt x="75" y="407" on="0"/>
        <pt x="75" y="493" on="1"/>
        <pt x="75" y="539" on="0"/>
        <pt x="120" y="611" on="0"/>
        <pt x="198" y="651" on="0"/>
        <pt x="245" y="651" on="1"/>
        <pt x="325" y="651" on="0"/>
        <pt x="419" y="558" on="0"/>
        <pt x="419" y="484" on="1"/>
        <pt x="419" y="437" on="0"/>
        <pt x="363" y="350" on="0"/>
        <pt x="329" y="323" on="1"/>
        <pt x="329" y="319" on="1"/>
        <pt x="380" y="287" on="0"/>
        <pt x="440" y="213" on="0"/>
        <pt x="440" y="156" on="1"/>
        <pt x="440" y="109" on="0"/>
        <pt x="391" y="32" on="0"/>
        <pt x="302" y="-12" on="0"/>
        <pt x="244" y="-12" on="1"/>
      </contour>
      <contour>
        <pt x="371" y="404" on="0"/>
        <pt x="371" y="482" on="1"/>
        <pt x="371" y="536" on="0"/>
        <pt x="303" y="610" on="0"/>
        <pt x="244" y="610" on="1"/>
        <pt x="192" y="610" on="0"/>
        <pt x="125" y="544" on="0"/>
        <pt x="125" y="493" on="1"/>
        <pt x="125" y="452" on="0"/>
        <pt x="170" y="395" on="0"/>
        <pt x="236" y="359" on="0"/>
        <pt x="290" y="337" on="1"/>
      </contour>
      <contour>
        <pt x="310" y="30" on="0"/>
        <pt x="390" y="102" on="0"/>
        <pt x="390" y="157" on="1"/>
        <pt x="390" y="201" on="0"/>
        <pt x="339" y="261" on="0"/>
        <pt x="268" y="297" on="0"/>
        <pt x="199" y="324" on="1"/>
        <pt x="149" y="294" on="0"/>
        <pt x="90" y="215" on="0"/>
        <pt x="90" y="167" on="1"/>
        <pt x="90" y="129" on="0"/>
        <pt x="130" y="66" on="0"/>
        <pt x="201" y="30" on="0"/>
        <pt x="245" y="30" on="1"/>
      </contour>
    </TTGlyph>
    <TTGlyph name="eight.lat" xMin="40" yMin="-12" xMax="440" yMax="651">
      <contour>
        <pt x="186" y="-12" on="0"/>
        <pt x="93" y="34" on="0"/>
        <pt x="40" y="114" on="0"/>
        <pt x="40" y="164" on="1"/>
        <pt x="40" y="223" on="0"/>
        <pt x="114" y="315" on="0"/>
        <pt x="166" y="343" on="1"/>
        <pt x="166" y="347" on="1"/>
        <pt x="75" y="407" on="0"/>
        <pt x="75" y="493" on="1"/>
        <pt x="75" y="539" on="0"/>
        <pt x="120" y="611" on="0"/>
        <pt x="198" y="651" on="0"/>
        <pt x="245" y="651" on="1"/>
        <pt x="325" y="651" on="0"/>
        <pt x="419" y="558" on="0"/>
        <pt x="419" y="484" on="1"/>
        <pt x="419" y="437" on="0"/>
        <pt x="363" y="350" on="0"/>
        <pt x="329" y="323" on="1"/>
        <pt x="329" y="319" on="1"/>
        <pt x="380" y="287" on="0"/>
        <pt x="440" y="213" on="0"/>
        <pt x="440" y="156" on="1"/>
        <pt x="440" y="109" on="0"/>
        <pt x="391" y="32" on="0"/>
        <pt x="302" y="-12" on="0"/>
        <pt x="244" y="-12" on="1"/>
      </contour>
      <contour>
        <pt x="371" y="404" on="0"/>
        <pt x="371" y="482" on="1"/>
        <pt x="371" y="536" on="0"/>
        <pt x="303" y="610" on="0"/>
        <pt x="244" y="610" on="1"/>
        <pt x="192" y="610" on="0"/>
        <pt x="125" y="544" on="0"/>
        <pt x="125" y="493" on="1"/>
        <pt x="125" y="452" on="0"/>
        <pt x="170" y="395" on="0"/>
        <pt x="236" y="359" on="0"/>
        <pt x="290" y="337" on="1"/>
      </contour>
      <contour>
        <pt x="310" y="30" on="0"/>
        <pt x="390" y="102" on="0"/>
        <pt x="390" y="157" on="1"/>
        <pt x="390" y="201" on="0"/>
        <pt x="339" y="261" on="0"/>
        <pt x="268" y="297" on="0"/>
        <pt x="199" y="324" on="1"/>
        <pt x="149" y="294" on="0"/>
        <pt x="90" y="215" on="0"/>
        <pt x="90" y="167" on="1"/>
        <pt x="90" y="129" on="0"/>
        <pt x="130" y="66" on="0"/>
        <pt x="201" y="30" on="0"/>
        <pt x="245" y="30" on="1"/>
      </contour>
    </TTGlyph>
    <TTGlyph name="ellipsis" xMin="121" yMin="-12" xMax="880" yMax="86">
      <component glyphName="period" x="54" y="0" flags="0x0"/>
      <component glyphName="period" x="388" y="0" flags="0x0"/>
      <component glyphName="period" x="722" y="0" flags="0x0"/>
    </TTGlyph>
    <TTGlyph name="emacron" xMin="51" yMin="-12" xMax="448" yMax="645">
      <component glyphName="e" x="0" y="0" flags="0x0"/>
      <component glyphName="uni0304" x="263" y="0" flags="0x0"/>
    </TTGlyph>
    <TTGlyph name="emdash" xMin="41" yMin="231" xMax="760" yMax="271">
      <contour>
        <pt x="41" y="271" on="1"/>
        <pt x="760" y="271" on="1"/>
        <pt x="760" y="231" on="1"/>
        <pt x="41" y="231" on="1"/>
      </contour>
    </TTGlyph>
    <TTGlyph name="emdash.lat" xMin="41" yMin="231" xMax="760" yMax="271">
      <contour>
        <pt x="41" y="271" on="1"/>
        <pt x="760" y="271" on="1"/>
        <pt x="760" y="231" on="1"/>
        <pt x="41" y="231" on="1"/>
      </contour>
    </TTGlyph>
    <TTGlyph name="endash" xMin="41" yMin="231" xMax="440" yMax="271">
      <contour>
        <pt x="41" y="271" on="1"/>
        <pt x="440" y="271" on="1"/>
        <pt x="440" y="231" on="1"/>
        <pt x="41" y="231" on="1"/>
      </contour>
    </TTGlyph>
    <TTGlyph name="endash.lat" xMin="41" yMin="231" xMax="440" yMax="271">
      <contour>
        <pt x="41" y="271" on="1"/>
        <pt x="440" y="271" on="1"/>
        <pt x="440" y="231" on="1"/>
        <pt x="41" y="231" on="1"/>
      </contour>
    </TTGlyph>
    <TTGlyph name="eogonek" xMin="51" yMin="-203" xMax="448" yMax="493">
      <contour>
        <pt x="319" y="-203" on="0"/>
        <pt x="273" y="-161" on="0"/>
        <pt x="273" y="-121" on="1"/>
        <pt x="273" y="-88" on="0"/>
        <pt x="310" y="-25" on="0"/>
        <pt x="335" y="-3" on="1"/>
        <pt x="309" y="-12" on="0"/>
        <pt x="275" y="-12" on="1"/>
        <pt x="213" y="-12" on="0"/>
        <pt x="110" y="49" on="0"/>
        <pt x="51" y="163" on="0"/>
        <pt x="51" y="240" on="1"/>
        <pt x="51" y="316" on="0"/>
        <pt x="110" y="431" on="0"/>
        <pt x="207" y="493" on="0"/>
        <pt x="262" y="493" on="1"/>
        <pt x="349" y="493" on="0"/>
        <pt x="448" y="375" on="0"/>
        <pt x="448" y="270" on="1"/>
        <pt x="448" y="250" on="0"/>
        <pt x="445" y="232" on="1"/>
        <pt x="103" y="232" on="1"/>
        <pt x="105" y="143" on="0"/>
        <pt x="202" y="31" on="0"/>
        <pt x="280" y="31" on="1"/>
        <pt x="348" y="31" on="0"/>
        <pt x="408" y="73" on="1"/>
        <pt x="428" y="36" on="1"/>
        <pt x="366" y="-10" on="0"/>
        <pt x="315" y="-80" on="0"/>
        <pt x="315" y="-114" on="1"/>
        <pt x="315" y="-138" on="0"/>
        <pt x="343" y="-165" on="0"/>
        <pt x="364" y="-165" on="1"/>
        <pt x="386" y="-165" on="0"/>
        <pt x="406" y="-151" on="1"/>
        <pt x="423" y="-179" on="1"/>
        <pt x="411" y="-189" on="0"/>
        <pt x="373" y="-203" on="0"/>
        <pt x="356" y="-203" on="1"/>
      </contour>
      <contour>
        <pt x="400" y="273" on="1"/>
        <pt x="400" y="359" on="0"/>
        <pt x="326" y="450" on="0"/>
        <pt x="262" y="450" on="1"/>
        <pt x="222" y="450" on="0"/>
        <pt x="153" y="407" on="0"/>
        <pt x="107" y="327" on="0"/>
        <pt x="102" y="273" on="1"/>
      </contour>
    </TTGlyph>
    <TTGlyph name="eogonek.sups" xMin="30" yMin="396" xMax="302" yMax="730">
      <contour>
        <pt x="116" y="396" on="0"/>
        <pt x="30" y="485" on="0"/>
        <pt x="30" y="563" on="1"/>
        <pt x="30" y="613" on="0"/>
        <pt x="69" y="689" on="0"/>
        <pt x="135" y="730" on="0"/>
        <pt x="175" y="730" on="1"/>
        <pt x="243" y="730" on="0"/>
        <pt x="302" y="640" on="0"/>
        <pt x="302" y="587" on="1"/>
        <pt x="302" y="570" on="0"/>
        <pt x="300" y="555" on="1"/>
        <pt x="73" y="555" on="1"/>
        <pt x="74" y="499" on="0"/>
        <pt x="135" y="431" on="0"/>
        <pt x="186" y="431" on="1"/>
        <pt x="231" y="431" on="0"/>
        <pt x="273" y="460" on="1"/>
        <pt x="291" y="430" on="1"/>
        <pt x="235" y="396" on="0"/>
        <pt x="182" y="396" on="1"/>
      </contour>
      <contour>
        <pt x="264" y="587" on="1"/>
        <pt x="264" y="631" on="0"/>
        <pt x="221" y="695" on="0"/>
        <pt x="176" y="695" on="1"/>
        <pt x="134" y="695" on="0"/>
        <pt x="79" y="637" on="0"/>
        <pt x="73" y="587" on="1"/>
      </contour>
    </TTGlyph>
    <TTGlyph name="equal" xMin="34" yMin="206" xMax="448" yMax="454">
      <component glyphName="minus" x="0" y="103" flags="0x4"/>
      <component glyphName="minus" x="0" y="-103" flags="0x4"/>
    </TTGlyph>
    <TTGlyph name="estimated" xMin="46" yMin="-12" xMax="754" yMax="660">
      <contour>
        <pt x="304" y="-12" on="0"/>
        <pt x="141" y="78" on="0"/>
        <pt x="46" y="232" on="0"/>
        <pt x="46" y="324" on="1"/>
        <pt x="46" y="416" on="0"/>
        <pt x="141" y="570" on="0"/>
        <pt x="304" y="660" on="0"/>
        <pt x="400" y="660" on="1"/>
        <pt x="496" y="660" on="0"/>
        <pt x="659" y="570" on="0"/>
        <pt x="754" y="416" on="0"/>
        <pt x="754" y="324" on="1"/>
        <pt x="754" y="316" on="1"/>
        <pt x="180" y="316" on="1"/>
        <pt x="176" y="316" on="0"/>
        <pt x="176" y="312" on="1"/>
        <pt x="176" y="128" on="1"/>
        <pt x="176" y="120" on="0"/>
        <pt x="184" y="108" on="1"/>
        <pt x="225" y="61" on="0"/>
        <pt x="338" y="8" on="0"/>
        <pt x="402" y="8" on="1"/>
        <pt x="468" y="8" on="0"/>
        <pt x="587" y="68" on="0"/>
        <pt x="630" y="120" on="1"/>
        <pt x="682" y="120" on="1"/>
        <pt x="631" y="59" on="0"/>
        <pt x="484" y="-12" on="0"/>
        <pt x="400" y="-12" on="1"/>
      </contour>
      <contour>
        <pt x="620" y="334" on="1"/>
        <pt x="626" y="334" on="0"/>
        <pt x="626" y="340" on="1"/>
        <pt x="626" y="524" on="1"/>
        <pt x="626" y="536" on="0"/>
        <pt x="616" y="546" on="1"/>
        <pt x="573" y="590" on="0"/>
        <pt x="462" y="640" on="0"/>
        <pt x="402" y="640" on="1"/>
        <pt x="339" y="640" on="0"/>
        <pt x="227" y="588" on="0"/>
        <pt x="184" y="542" on="1"/>
        <pt x="176" y="530" on="0"/>
        <pt x="176" y="520" on="1"/>
        <pt x="176" y="340" on="1"/>
        <pt x="176" y="334" on="0"/>
        <pt x="180" y="334" on="1"/>
      </contour>
    </TTGlyph>
    <TTGlyph name="eth" xMin="58" yMin="-12" xMax="472" yMax="725">
      <contour>
        <pt x="472" y="468" on="0"/>
        <pt x="472" y="253" on="1"/>
        <pt x="472" y="174" on="0"/>
        <pt x="420" y="54" on="0"/>
        <pt x="327" y="-12" on="0"/>
        <pt x="267" y="-12" on="1"/>
        <pt x="212" y="-12" on="0"/>
        <pt x="116" y="45" on="0"/>
        <pt x="58" y="150" on="0"/>
        <pt x="58" y="220" on="1"/>
        <pt x="58" y="285" on="0"/>
        <pt x="111" y="387" on="0"/>
        <pt x="205" y="443" on="0"/>
        <pt x="265" y="443" on="1"/>
        <pt x="307" y="443" on="0"/>
        <pt x="382" y="405" on="0"/>
        <pt x="411" y="369" on="1"/>
        <pt x="385" y="498" on="0"/>
        <pt x="296" y="585" on="1"/>
        <pt x="155" y="512" on="1"/>
        <pt x="138" y="542" on="1"/>
        <pt x="269" y="610" on="1"/>
        <pt x="223" y="648" on="0"/>
        <pt x="148" y="691" on="1"/>
        <pt x="172" y="725" on="1"/>
        <pt x="251" y="683" on="0"/>
        <pt x="310" y="631" on="1"/>
        <pt x="453" y="705" on="1"/>
        <pt x="469" y="675" on="1"/>
        <pt x="337" y="606" on="1"/>
      </contour>
      <contour>
        <pt x="343" y="33" on="0"/>
        <pt x="421" y="154" on="0"/>
        <pt x="421" y="251" on="1"/>
        <pt x="421" y="283" on="0"/>
        <pt x="418" y="313" on="1"/>
        <pt x="384" y="362" on="0"/>
        <pt x="311" y="400" on="0"/>
        <pt x="269" y="400" on="1"/>
        <pt x="193" y="400" on="0"/>
        <pt x="109" y="297" on="0"/>
        <pt x="109" y="220" on="1"/>
        <pt x="109" y="166" on="0"/>
        <pt x="152" y="81" on="0"/>
        <pt x="225" y="33" on="0"/>
        <pt x="268" y="33" on="1"/>
      </contour>
    </TTGlyph>
    <TTGlyph name="exclam" xMin="87" yMin="-12" xMax="178" yMax="670">
      <contour>
        <pt x="107" y="595" on="1"/>
        <pt x="106" y="670" on="1"/>
        <pt x="159" y="670" on="1"/>
        <pt x="158" y="595" on="1"/>
        <pt x="151" y="183" on="1"/>
        <pt x="114" y="183" on="1"/>
      </contour>
      <contour>
        <pt x="114" y="-12" on="0"/>
        <pt x="87" y="15" on="0"/>
        <pt x="87" y="36" on="1"/>
        <pt x="87" y="58" on="0"/>
        <pt x="114" y="86" on="0"/>
        <pt x="133" y="86" on="1"/>
        <pt x="152" y="86" on="0"/>
        <pt x="178" y="59" on="0"/>
        <pt x="178" y="36" on="1"/>
        <pt x="178" y="15" on="0"/>
        <pt x="152" y="-12" on="0"/>
        <pt x="133" y="-12" on="1"/>
      </contour>
    </TTGlyph>
    <TTGlyph name="exclam.lat" xMin="87" yMin="-12" xMax="178" yMax="670">
      <contour>
        <pt x="107" y="595" on="1"/>
        <pt x="106" y="670" on="1"/>
        <pt x="159" y="670" on="1"/>
        <pt x="158" y="595" on="1"/>
        <pt x="151" y="183" on="1"/>
        <pt x="114" y="183" on="1"/>
      </contour>
      <contour>
        <pt x="114" y="-12" on="0"/>
        <pt x="87" y="15" on="0"/>
        <pt x="87" y="36" on="1"/>
        <pt x="87" y="58" on="0"/>
        <pt x="114" y="86" on="0"/>
        <pt x="133" y="86" on="1"/>
        <pt x="152" y="86" on="0"/>
        <pt x="178" y="59" on="0"/>
        <pt x="178" y="36" on="1"/>
        <pt x="178" y="15" on="0"/>
        <pt x="152" y="-12" on="0"/>
        <pt x="133" y="-12" on="1"/>
      </contour>
    </TTGlyph>
    <TTGlyph name="exclamdown" xMin="87" yMin="-189" xMax="178" yMax="493">
      <contour>
        <pt x="114" y="396" on="0"/>
        <pt x="87" y="423" on="0"/>
        <pt x="87" y="445" on="1"/>
        <pt x="87" y="466" on="0"/>
        <pt x="114" y="493" on="0"/>
        <pt x="133" y="493" on="1"/>
        <pt x="152" y="493" on="0"/>
        <pt x="178" y="466" on="0"/>
        <pt x="178" y="445" on="1"/>
        <pt x="178" y="423" on="0"/>
        <pt x="152" y="396" on="0"/>
        <pt x="133" y="396" on="1"/>
      </contour>
      <contour>
        <pt x="107" y="-114" on="1"/>
        <pt x="114" y="299" on="1"/>
        <pt x="151" y="299" on="1"/>
        <pt x="158" y="-114" on="1"/>
        <pt x="159" y="-189" on="1"/>
        <pt x="106" y="-189" on="1"/>
      </contour>
    </TTGlyph>
    <TTGlyph name="f" xMin="32" yMin="0" xMax="293" yMax="730">
      <contour>
        <pt x="149" y="686" on="0"/>
        <pt x="149" y="580" on="1"/>
        <pt x="149" y="481" on="1"/>
        <pt x="259" y="481" on="1"/>
        <pt x="259" y="437" on="1"/>
        <pt x="149" y="437" on="1"/>
        <pt x="149" y="0" on="1"/>
        <pt x="98" y="0" on="1"/>
        <pt x="98" y="437" on="1"/>
        <pt x="32" y="437" on="1"/>
        <pt x="32" y="477" on="1"/>
        <pt x="98" y="481" on="1"/>
        <pt x="98" y="582" on="1"/>
        <pt x="98" y="654" on="0"/>
        <pt x="161" y="730" on="0"/>
        <pt x="221" y="730" on="1"/>
        <pt x="258" y="730" on="0"/>
        <pt x="293" y="714" on="1"/>
        <pt x="280" y="673" on="1"/>
        <pt x="253" y="686" on="0"/>
        <pt x="223" y="686" on="1"/>
      </contour>
    </TTGlyph>
    <TTGlyph name="fi" xMin="32" yMin="0" xMax="426" yMax="730">
      <component glyphName="f" x="0" y="0" flags="0x0"/>
      <component glyphName="dotlessi" x="268" y="0" flags="0x0"/>
      <component glyphName="uni0307" x="385" y="0" flags="0x0"/>
    </TTGlyph>
    <TTGlyph name="five" xMin="25" yMin="-12" xMax="434" yMax="639">
      <contour>
        <pt x="159" y="-12" on="0"/>
        <pt x="64" y="36" on="0"/>
        <pt x="25" y="75" on="1"/>
        <pt x="53" y="110" on="1"/>
        <pt x="87" y="74" on="0"/>
        <pt x="167" y="33" on="0"/>
        <pt x="226" y="33" on="1"/>
        <pt x="268" y="33" on="0"/>
        <pt x="339" y="75" on="0"/>
        <pt x="381" y="151" on="0"/>
        <pt x="381" y="200" on="1"/>
        <pt x="381" y="274" on="0"/>
        <pt x="298" y="360" on="0"/>
        <pt x="228" y="360" on="1"/>
        <pt x="195" y="360" on="0"/>
        <pt x="144" y="340" on="0"/>
        <pt x="112" y="318" on="1"/>
        <pt x="78" y="339" on="1"/>
        <pt x="101" y="639" on="1"/>
        <pt x="401" y="639" on="1"/>
        <pt x="401" y="594" on="1"/>
        <pt x="147" y="594" on="1"/>
        <pt x="127" y="371" on="1"/>
        <pt x="181" y="403" on="0"/>
        <pt x="238" y="403" on="1"/>
        <pt x="325" y="403" on="0"/>
        <pt x="434" y="302" on="0"/>
        <pt x="434" y="202" on="1"/>
        <pt x="434" y="136" on="0"/>
        <pt x="376" y="39" on="0"/>
        <pt x="281" y="-12" on="0"/>
        <pt x="228" y="-12" on="1"/>
      </contour>
    </TTGlyph>
    <TTGlyph name="five.heb" xMin="25" yMin="-12" xMax="434" yMax="639">
      <contour>
        <pt x="159" y="-12" on="0"/>
        <pt x="64" y="36" on="0"/>
        <pt x="25" y="75" on="1"/>
        <pt x="53" y="110" on="1"/>
        <pt x="87" y="74" on="0"/>
        <pt x="167" y="33" on="0"/>
        <pt x="226" y="33" on="1"/>
        <pt x="268" y="33" on="0"/>
        <pt x="339" y="75" on="0"/>
        <pt x="381" y="151" on="0"/>
        <pt x="381" y="200" on="1"/>
        <pt x="381" y="274" on="0"/>
        <pt x="298" y="360" on="0"/>
        <pt x="228" y="360" on="1"/>
        <pt x="195" y="360" on="0"/>
        <pt x="144" y="340" on="0"/>
        <pt x="112" y="318" on="1"/>
        <pt x="78" y="339" on="1"/>
        <pt x="101" y="639" on="1"/>
        <pt x="401" y="639" on="1"/>
        <pt x="401" y="594" on="1"/>
        <pt x="147" y="594" on="1"/>
        <pt x="127" y="371" on="1"/>
        <pt x="181" y="403" on="0"/>
        <pt x="238" y="403" on="1"/>
        <pt x="325" y="403" on="0"/>
        <pt x="434" y="302" on="0"/>
        <pt x="434" y="202" on="1"/>
        <pt x="434" y="136" on="0"/>
        <pt x="376" y="39" on="0"/>
        <pt x="281" y="-12" on="0"/>
        <pt x="228" y="-12" on="1"/>
      </contour>
    </TTGlyph>
    <TTGlyph name="five.lat" xMin="25" yMin="-12" xMax="434" yMax="639">
      <contour>
        <pt x="159" y="-12" on="0"/>
        <pt x="64" y="36" on="0"/>
        <pt x="25" y="75" on="1"/>
        <pt x="53" y="110" on="1"/>
        <pt x="87" y="74" on="0"/>
        <pt x="167" y="33" on="0"/>
        <pt x="226" y="33" on="1"/>
        <pt x="268" y="33" on="0"/>
        <pt x="339" y="75" on="0"/>
        <pt x="381" y="151" on="0"/>
        <pt x="381" y="200" on="1"/>
        <pt x="381" y="274" on="0"/>
        <pt x="298" y="360" on="0"/>
        <pt x="228" y="360" on="1"/>
        <pt x="195" y="360" on="0"/>
        <pt x="144" y="340" on="0"/>
        <pt x="112" y="318" on="1"/>
        <pt x="78" y="339" on="1"/>
        <pt x="101" y="639" on="1"/>
        <pt x="401" y="639" on="1"/>
        <pt x="401" y="594" on="1"/>
        <pt x="147" y="594" on="1"/>
        <pt x="127" y="371" on="1"/>
        <pt x="181" y="403" on="0"/>
        <pt x="238" y="403" on="1"/>
        <pt x="325" y="403" on="0"/>
        <pt x="434" y="302" on="0"/>
        <pt x="434" y="202" on="1"/>
        <pt x="434" y="136" on="0"/>
        <pt x="376" y="39" on="0"/>
        <pt x="281" y="-12" on="0"/>
        <pt x="228" y="-12" on="1"/>
      </contour>
    </TTGlyph>
    <TTGlyph name="fl" xMin="32" yMin="-12" xMax="457" yMax="730">
      <component glyphName="f" x="0" y="0" flags="0x0"/>
      <component glyphName="l" x="268" y="0" flags="0x0"/>
    </TTGlyph>
    <TTGlyph name="florin" xMin="12" yMin="-98" xMax="446" yMax="671">
      <contour>
        <pt x="290" y="626" on="0"/>
        <pt x="272" y="471" on="1"/>
        <pt x="265" y="406" on="1"/>
        <pt x="401" y="406" on="1"/>
        <pt x="401" y="363" on="1"/>
        <pt x="260" y="363" on="1"/>
        <pt x="232" y="103" on="1"/>
        <pt x="222" y="5" on="0"/>
        <pt x="150" y="-98" on="0"/>
        <pt x="78" y="-98" on="1"/>
        <pt x="39" y="-98" on="0"/>
        <pt x="12" y="-82" on="1"/>
        <pt x="25" y="-42" on="1"/>
        <pt x="49" y="-54" on="0"/>
        <pt x="78" y="-54" on="1"/>
        <pt x="127" y="-53" on="0"/>
        <pt x="175" y="31" on="0"/>
        <pt x="183" y="109" on="1"/>
        <pt x="211" y="363" on="1"/>
        <pt x="117" y="363" on="1"/>
        <pt x="117" y="401" on="1"/>
        <pt x="184" y="406" on="1"/>
        <pt x="215" y="406" on="1"/>
        <pt x="222" y="468" on="1"/>
        <pt x="233" y="567" on="0"/>
        <pt x="304" y="671" on="0"/>
        <pt x="372" y="671" on="1"/>
        <pt x="408" y="671" on="0"/>
        <pt x="446" y="652" on="1"/>
        <pt x="433" y="611" on="1"/>
        <pt x="418" y="618" on="0"/>
        <pt x="391" y="626" on="0"/>
        <pt x="372" y="626" on="1"/>
      </contour>
    </TTGlyph>
    <TTGlyph name="florin.lat" xMin="12" yMin="-98" xMax="446" yMax="671">
      <contour>
        <pt x="290" y="626" on="0"/>
        <pt x="272" y="471" on="1"/>
        <pt x="265" y="406" on="1"/>
        <pt x="401" y="406" on="1"/>
        <pt x="401" y="363" on="1"/>
        <pt x="260" y="363" on="1"/>
        <pt x="232" y="103" on="1"/>
        <pt x="222" y="5" on="0"/>
        <pt x="150" y="-98" on="0"/>
        <pt x="78" y="-98" on="1"/>
        <pt x="39" y="-98" on="0"/>
        <pt x="12" y="-82" on="1"/>
        <pt x="25" y="-42" on="1"/>
        <pt x="49" y="-54" on="0"/>
        <pt x="78" y="-54" on="1"/>
        <pt x="127" y="-53" on="0"/>
        <pt x="175" y="31" on="0"/>
        <pt x="183" y="109" on="1"/>
        <pt x="211" y="363" on="1"/>
        <pt x="117" y="363" on="1"/>
        <pt x="117" y="401" on="1"/>
        <pt x="184" y="406" on="1"/>
        <pt x="215" y="406" on="1"/>
        <pt x="222" y="468" on="1"/>
        <pt x="233" y="567" on="0"/>
        <pt x="304" y="671" on="0"/>
        <pt x="372" y="671" on="1"/>
        <pt x="408" y="671" on="0"/>
        <pt x="446" y="652" on="1"/>
        <pt x="433" y="611" on="1"/>
        <pt x="418" y="618" on="0"/>
        <pt x="391" y="626" on="0"/>
        <pt x="372" y="626" on="1"/>
      </contour>
    </TTGlyph>
    <TTGlyph name="four" xMin="17" yMin="0" xMax="452" yMax="639">
      <contour>
        <pt x="452" y="188" on="1"/>
        <pt x="359" y="188" on="1"/>
        <pt x="359" y="0" on="1"/>
        <pt x="309" y="0" on="1"/>
        <pt x="309" y="188" on="1"/>
        <pt x="17" y="188" on="1"/>
        <pt x="17" y="219" on="1"/>
        <pt x="309" y="639" on="1"/>
        <pt x="359" y="639" on="1"/>
        <pt x="359" y="231" on="1"/>
        <pt x="452" y="231" on="1"/>
      </contour>
      <contour>
        <pt x="309" y="231" on="1"/>
        <pt x="309" y="456" on="1"/>
        <pt x="309" y="509" on="0"/>
        <pt x="313" y="569" on="1"/>
        <pt x="309" y="569" on="1"/>
        <pt x="282" y="526" on="1"/>
        <pt x="277" y="518" on="0"/>
        <pt x="264" y="499" on="0"/>
        <pt x="257" y="487" on="1"/>
        <pt x="77" y="231" on="1"/>
      </contour>
    </TTGlyph>
    <TTGlyph name="four.heb" xMin="17" yMin="0" xMax="452" yMax="639">
      <contour>
        <pt x="452" y="188" on="1"/>
        <pt x="359" y="188" on="1"/>
        <pt x="359" y="0" on="1"/>
        <pt x="309" y="0" on="1"/>
        <pt x="309" y="188" on="1"/>
        <pt x="17" y="188" on="1"/>
        <pt x="17" y="219" on="1"/>
        <pt x="309" y="639" on="1"/>
        <pt x="359" y="639" on="1"/>
        <pt x="359" y="231" on="1"/>
        <pt x="452" y="231" on="1"/>
      </contour>
      <contour>
        <pt x="309" y="231" on="1"/>
        <pt x="309" y="456" on="1"/>
        <pt x="309" y="509" on="0"/>
        <pt x="313" y="569" on="1"/>
        <pt x="309" y="569" on="1"/>
        <pt x="282" y="526" on="1"/>
        <pt x="277" y="518" on="0"/>
        <pt x="264" y="499" on="0"/>
        <pt x="257" y="487" on="1"/>
        <pt x="77" y="231" on="1"/>
      </contour>
    </TTGlyph>
    <TTGlyph name="four.lat" xMin="17" yMin="0" xMax="452" yMax="639">
      <contour>
        <pt x="452" y="188" on="1"/>
        <pt x="359" y="188" on="1"/>
        <pt x="359" y="0" on="1"/>
        <pt x="309" y="0" on="1"/>
        <pt x="309" y="188" on="1"/>
        <pt x="17" y="188" on="1"/>
        <pt x="17" y="219" on="1"/>
        <pt x="309" y="639" on="1"/>
        <pt x="359" y="639" on="1"/>
        <pt x="359" y="231" on="1"/>
        <pt x="452" y="231" on="1"/>
      </contour>
      <contour>
        <pt x="309" y="231" on="1"/>
        <pt x="309" y="456" on="1"/>
        <pt x="309" y="509" on="0"/>
        <pt x="313" y="569" on="1"/>
        <pt x="309" y="569" on="1"/>
        <pt x="282" y="526" on="1"/>
        <pt x="277" y="518" on="0"/>
        <pt x="264" y="499" on="0"/>
        <pt x="257" y="487" on="1"/>
        <pt x="77" y="231" on="1"/>
      </contour>
    </TTGlyph>
    <TTGlyph name="fraction" xMin="-165" yMin="-12" xMax="243" yMax="671">
      <contour>
        <pt x="201" y="671" on="1"/>
        <pt x="243" y="671" on="1"/>
        <pt x="-124" y="-12" on="1"/>
        <pt x="-165" y="-12" on="1"/>
      </contour>
    </TTGlyph>
    <TTGlyph name="fraction.lat" xMin="-165" yMin="-12" xMax="243" yMax="671">
      <contour>
        <pt x="201" y="671" on="1"/>
        <pt x="243" y="671" on="1"/>
        <pt x="-124" y="-12" on="1"/>
        <pt x="-165" y="-12" on="1"/>
      </contour>
    </TTGlyph>
    <TTGlyph name="g" xMin="50" yMin="-230" xMax="479" yMax="493">
      <contour>
        <pt x="157" y="-230" on="0"/>
        <pt x="50" y="-158" on="0"/>
        <pt x="50" y="-97" on="1"/>
        <pt x="50" y="-66" on="0"/>
        <pt x="88" y="-6" on="0"/>
        <pt x="122" y="17" on="1"/>
        <pt x="122" y="21" on="1"/>
        <pt x="102" y="33" on="0"/>
        <pt x="79" y="72" on="0"/>
        <pt x="79" y="99" on="1"/>
        <pt x="79" y="127" on="0"/>
        <pt x="111" y="173" on="0"/>
        <pt x="132" y="188" on="1"/>
        <pt x="132" y="192" on="1"/>
        <pt x="106" y="213" on="0"/>
        <pt x="71" y="282" on="0"/>
        <pt x="71" y="323" on="1"/>
        <pt x="71" y="372" on="0"/>
        <pt x="117" y="450" on="0"/>
        <pt x="195" y="493" on="0"/>
        <pt x="242" y="493" on="1"/>
        <pt x="280" y="493" on="0"/>
        <pt x="307" y="481" on="1"/>
        <pt x="471" y="481" on="1"/>
        <pt x="471" y="439" on="1"/>
        <pt x="361" y="439" on="1"/>
        <pt x="384" y="419" on="0"/>
        <pt x="412" y="358" on="0"/>
        <pt x="412" y="322" on="1"/>
        <pt x="412" y="273" on="0"/>
        <pt x="367" y="196" on="0"/>
        <pt x="289" y="153" on="0"/>
        <pt x="242" y="153" on="1"/>
        <pt x="222" y="153" on="0"/>
        <pt x="180" y="163" on="0"/>
        <pt x="164" y="173" on="1"/>
        <pt x="146" y="158" on="0"/>
        <pt x="126" y="126" on="0"/>
        <pt x="126" y="105" on="1"/>
        <pt x="126" y="45" on="0"/>
        <pt x="217" y="45" on="1"/>
        <pt x="318" y="45" on="1"/>
        <pt x="400" y="45" on="0"/>
        <pt x="479" y="-9" on="0"/>
        <pt x="479" y="-66" on="1"/>
        <pt x="479" y="-109" on="0"/>
        <pt x="421" y="-184" on="0"/>
        <pt x="316" y="-230" on="0"/>
        <pt x="248" y="-230" on="1"/>
      </contour>
      <contour>
        <pt x="292" y="192" on="0"/>
        <pt x="363" y="266" on="0"/>
        <pt x="363" y="323" on="1"/>
        <pt x="363" y="381" on="0"/>
        <pt x="293" y="452" on="0"/>
        <pt x="242" y="452" on="1"/>
        <pt x="191" y="452" on="0"/>
        <pt x="122" y="381" on="0"/>
        <pt x="122" y="323" on="1"/>
        <pt x="122" y="285" on="0"/>
        <pt x="155" y="225" on="0"/>
        <pt x="210" y="192" on="0"/>
        <pt x="242" y="192" on="1"/>
      </contour>
      <contour>
        <pt x="305" y="-190" on="0"/>
        <pt x="384" y="-156" on="0"/>
        <pt x="428" y="-102" on="0"/>
        <pt x="428" y="-73" on="1"/>
        <pt x="428" y="-35" on="0"/>
        <pt x="374" y="-2" on="0"/>
        <pt x="319" y="-2" on="1"/>
        <pt x="220" y="-2" on="1"/>
        <pt x="192" y="-2" on="0"/>
        <pt x="159" y="6" on="1"/>
        <pt x="129" y="-15" on="0"/>
        <pt x="99" y="-66" on="0"/>
        <pt x="99" y="-91" on="1"/>
        <pt x="99" y="-137" on="0"/>
        <pt x="182" y="-190" on="0"/>
        <pt x="255" y="-190" on="1"/>
      </contour>
    </TTGlyph>
    <TTGlyph name="gammalatin" xMin="12" yMin="-214" xMax="428" yMax="481">
      <contour>
        <pt x="239" y="27" on="1"/>
        <pt x="250" y="-6" on="1"/>
        <pt x="267" y="-52" on="0"/>
        <pt x="282" y="-107" on="0"/>
        <pt x="282" y="-130" on="1"/>
        <pt x="282" y="-168" on="0"/>
        <pt x="252" y="-214" on="0"/>
        <pt x="222" y="-214" on="1"/>
        <pt x="192" y="-214" on="0"/>
        <pt x="162" y="-169" on="0"/>
        <pt x="162" y="-130" on="1"/>
        <pt x="162" y="-106" on="0"/>
        <pt x="177" y="-52" on="0"/>
        <pt x="195" y="2" on="1"/>
        <pt x="204" y="27" on="1"/>
        <pt x="191" y="27" on="1"/>
        <pt x="12" y="481" on="1"/>
        <pt x="67" y="481" on="1"/>
        <pt x="172" y="198" on="1"/>
        <pt x="179" y="177" on="0"/>
        <pt x="201" y="122" on="1"/>
        <pt x="205" y="112" on="0"/>
        <pt x="215" y="88" on="0"/>
        <pt x="220" y="73" on="1"/>
        <pt x="224" y="73" on="1"/>
        <pt x="248" y="136" on="1"/>
        <pt x="272" y="198" on="1"/>
        <pt x="376" y="481" on="1"/>
        <pt x="428" y="481" on="1"/>
        <pt x="252" y="27" on="1"/>
      </contour>
      <contour>
        <pt x="230" y="-206" on="0"/>
        <pt x="234" y="-171" on="0"/>
        <pt x="234" y="-130" on="1"/>
        <pt x="234" y="-92" on="0"/>
        <pt x="222" y="-30" on="1"/>
        <pt x="210" y="-93" on="0"/>
        <pt x="210" y="-130" on="1"/>
        <pt x="210" y="-171" on="0"/>
        <pt x="214" y="-206" on="0"/>
        <pt x="222" y="-206" on="1"/>
      </contour>
    </TTGlyph>
    <TTGlyph name="gcaron" xMin="50" yMin="-230" xMax="479" yMax="739">
      <component glyphName="g" x="0" y="0" flags="0x0"/>
      <component glyphName="uni030C" x="253" y="0" flags="0x0"/>
    </TTGlyph>
    <TTGlyph name="gdotaccent" xMin="50" yMin="-230" xMax="479" yMax="680">
      <component glyphName="g" x="0" y="0" flags="0x0"/>
      <component glyphName="uni0307" x="253" y="0" flags="0x0"/>
    </TTGlyph>
    <TTGlyph name="germandbls" xMin="90" yMin="-12" xMax="519" yMax="728">
      <contour>
        <pt x="295" y="-12" on="0"/>
        <pt x="234" y="39" on="1"/>
        <pt x="258" y="77" on="1"/>
        <pt x="286" y="53" on="0"/>
        <pt x="339" y="31" on="0"/>
        <pt x="370" y="31" on="1"/>
        <pt x="416" y="31" on="0"/>
        <pt x="468" y="87" on="0"/>
        <pt x="468" y="126" on="1"/>
        <pt x="468" y="157" on="0"/>
        <pt x="441" y="200" on="0"/>
        <pt x="401" y="227" on="0"/>
        <pt x="367" y="244" on="1"/>
        <pt x="332" y="262" on="0"/>
        <pt x="290" y="291" on="0"/>
        <pt x="261" y="337" on="0"/>
        <pt x="261" y="371" on="1"/>
        <pt x="261" y="404" on="0"/>
        <pt x="286" y="452" on="0"/>
        <pt x="310" y="483" on="1"/>
        <pt x="334" y="514" on="0"/>
        <pt x="357" y="558" on="0"/>
        <pt x="357" y="587" on="1"/>
        <pt x="357" y="631" on="0"/>
        <pt x="309" y="684" on="0"/>
        <pt x="264" y="684" on="1"/>
        <pt x="206" y="684" on="0"/>
        <pt x="141" y="599" on="0"/>
        <pt x="141" y="514" on="1"/>
        <pt x="141" y="0" on="1"/>
        <pt x="90" y="0" on="1"/>
        <pt x="90" y="529" on="1"/>
        <pt x="90" y="621" on="0"/>
        <pt x="185" y="728" on="0"/>
        <pt x="266" y="728" on="1"/>
        <pt x="332" y="728" on="0"/>
        <pt x="409" y="651" on="0"/>
        <pt x="409" y="592" on="1"/>
        <pt x="409" y="555" on="0"/>
        <pt x="381" y="501" on="0"/>
        <pt x="355" y="468" on="1"/>
        <pt x="333" y="439" on="0"/>
        <pt x="312" y="400" on="0"/>
        <pt x="312" y="376" on="1"/>
        <pt x="312" y="342" on="0"/>
        <pt x="356" y="303" on="0"/>
        <pt x="400" y="281" on="1"/>
        <pt x="439" y="261" on="0"/>
        <pt x="485" y="228" on="0"/>
        <pt x="519" y="172" on="0"/>
        <pt x="519" y="129" on="1"/>
        <pt x="519" y="68" on="0"/>
        <pt x="436" y="-12" on="0"/>
        <pt x="371" y="-12" on="1"/>
      </contour>
    </TTGlyph>
    <TTGlyph name="glottalstopreversedsupmod" xMin="18" yMin="404" xMax="277" yMax="884">
      <contour>
        <pt x="134" y="598" on="1"/>
        <pt x="76" y="635" on="0"/>
        <pt x="18" y="707" on="0"/>
        <pt x="18" y="760" on="1"/>
        <pt x="18" y="819" on="0"/>
        <pt x="96" y="884" on="0"/>
        <pt x="156" y="884" on="1"/>
        <pt x="228" y="884" on="0"/>
        <pt x="277" y="827" on="1"/>
        <pt x="254" y="800" on="1"/>
        <pt x="213" y="849" on="0"/>
        <pt x="158" y="849" on="1"/>
        <pt x="112" y="849" on="0"/>
        <pt x="61" y="800" on="0"/>
        <pt x="61" y="760" on="1"/>
        <pt x="61" y="716" on="0"/>
        <pt x="115" y="652" on="0"/>
        <pt x="176" y="619" on="1"/>
        <pt x="176" y="404" on="1"/>
        <pt x="134" y="404" on="1"/>
      </contour>
    </TTGlyph>
    <TTGlyph name="grave" xMin="148" yMin="574" xMax="322" yMax="759">
      <component glyphName="gravecomb" x="268" y="0" flags="0x0"/>
    </TTGlyph>
    <TTGlyph name="gravecomb" xMin="-120" yMin="574" xMax="54" yMax="759">
      <contour>
        <pt x="-120" y="725" on="1"/>
        <pt x="-82" y="759" on="1"/>
        <pt x="54" y="600" on="1"/>
        <pt x="26" y="574" on="1"/>
      </contour>
    </TTGlyph>
    <TTGlyph name="gravecomb.cap" xMin="-116" yMin="705" xMax="44" yMax="855">
      <contour>
        <pt x="-116" y="818" on="1"/>
        <pt x="-84" y="855" on="1"/>
        <pt x="44" y="731" on="1"/>
        <pt x="20" y="705" on="1"/>
      </contour>
    </TTGlyph>
    <TTGlyph name="greater" xMin="34" yMin="143" xMax="448" yMax="521">
      <contour>
        <pt x="34" y="192" on="1"/>
        <pt x="395" y="330" on="1"/>
        <pt x="395" y="334" on="1"/>
        <pt x="34" y="472" on="1"/>
        <pt x="34" y="521" on="1"/>
        <pt x="448" y="356" on="1"/>
        <pt x="448" y="308" on="1"/>
        <pt x="34" y="143" on="1"/>
      </contour>
    </TTGlyph>
    <TTGlyph name="greaterequal" xMin="34" yMin="0" xMax="448" yMax="521">
      <contour>
        <pt x="34" y="201" on="1"/>
        <pt x="262" y="286" on="1"/>
        <pt x="395" y="334" on="1"/>
        <pt x="395" y="339" on="1"/>
        <pt x="262" y="387" on="1"/>
        <pt x="34" y="472" on="1"/>
        <pt x="34" y="521" on="1"/>
        <pt x="448" y="362" on="1"/>
        <pt x="448" y="311" on="1"/>
        <pt x="34" y="152" on="1"/>
      </contour>
      <contour>
        <pt x="34" y="42" on="1"/>
        <pt x="448" y="42" on="1"/>
        <pt x="448" y="0" on="1"/>
        <pt x="34" y="0" on="1"/>
      </contour>
    </TTGlyph>
    <TTGlyph name="guillemotleft" xMin="43" yMin="71" xMax="351" yMax="433">
      <component glyphName="guilsinglleft" x="0" y="0" flags="0x0"/>
      <component glyphName="guilsinglleft" x="144" y="0" flags="0x0"/>
    </TTGlyph>
    <TTGlyph name="guillemotleft.lat" xMin="43" yMin="71" xMax="351" yMax="433">
      <contour>
        <pt x="43" y="231" on="1"/>
        <pt x="43" y="273" on="1"/>
        <pt x="180" y="433" on="1"/>
        <pt x="207" y="410" on="1"/>
        <pt x="85" y="252" on="1"/>
        <pt x="207" y="92" on="1"/>
        <pt x="180" y="71" on="1"/>
      </contour>
      <contour>
        <pt x="187" y="231" on="1"/>
        <pt x="187" y="273" on="1"/>
        <pt x="324" y="433" on="1"/>
        <pt x="351" y="410" on="1"/>
        <pt x="229" y="252" on="1"/>
        <pt x="351" y="92" on="1"/>
        <pt x="324" y="71" on="1"/>
      </contour>
    </TTGlyph>
    <TTGlyph name="guillemotright" xMin="54" yMin="71" xMax="362" yMax="433">
      <component glyphName="guilsinglright" x="0" y="0" flags="0x0"/>
      <component glyphName="guilsinglright" x="144" y="0" flags="0x0"/>
    </TTGlyph>
    <TTGlyph name="guillemotright.lat" xMin="54" yMin="71" xMax="362" yMax="433">
      <contour>
        <pt x="54" y="92" on="1"/>
        <pt x="176" y="252" on="1"/>
        <pt x="54" y="410" on="1"/>
        <pt x="80" y="433" on="1"/>
        <pt x="218" y="273" on="1"/>
        <pt x="218" y="231" on="1"/>
        <pt x="80" y="71" on="1"/>
      </contour>
      <contour>
        <pt x="198" y="92" on="1"/>
        <pt x="320" y="252" on="1"/>
        <pt x="198" y="410" on="1"/>
        <pt x="224" y="433" on="1"/>
        <pt x="362" y="273" on="1"/>
        <pt x="362" y="231" on="1"/>
        <pt x="224" y="71" on="1"/>
      </contour>
    </TTGlyph>
    <TTGlyph name="guilsinglleft" xMin="43" yMin="71" xMax="207" yMax="433">
      <contour>
        <pt x="43" y="231" on="1"/>
        <pt x="43" y="273" on="1"/>
        <pt x="180" y="433" on="1"/>
        <pt x="207" y="410" on="1"/>
        <pt x="85" y="252" on="1"/>
        <pt x="207" y="92" on="1"/>
        <pt x="180" y="71" on="1"/>
      </contour>
    </TTGlyph>
    <TTGlyph name="guilsinglleft.lat" xMin="43" yMin="71" xMax="207" yMax="433">
      <contour>
        <pt x="43" y="231" on="1"/>
        <pt x="43" y="273" on="1"/>
        <pt x="180" y="433" on="1"/>
        <pt x="207" y="410" on="1"/>
        <pt x="85" y="252" on="1"/>
        <pt x="207" y="92" on="1"/>
        <pt x="180" y="71" on="1"/>
      </contour>
    </TTGlyph>
    <TTGlyph name="guilsinglright" xMin="54" yMin="71" xMax="218" yMax="433">
      <contour>
        <pt x="54" y="92" on="1"/>
        <pt x="176" y="252" on="1"/>
        <pt x="54" y="410" on="1"/>
        <pt x="80" y="433" on="1"/>
        <pt x="218" y="273" on="1"/>
        <pt x="218" y="231" on="1"/>
        <pt x="80" y="71" on="1"/>
      </contour>
    </TTGlyph>
    <TTGlyph name="guilsinglright.lat" xMin="54" yMin="71" xMax="218" yMax="433">
      <contour>
        <pt x="54" y="92" on="1"/>
        <pt x="176" y="252" on="1"/>
        <pt x="54" y="410" on="1"/>
        <pt x="80" y="433" on="1"/>
        <pt x="218" y="273" on="1"/>
        <pt x="218" y="231" on="1"/>
        <pt x="80" y="71" on="1"/>
      </contour>
    </TTGlyph>
    <TTGlyph name="h" xMin="90" yMin="0" xMax="451" yMax="718">
      <contour>
        <pt x="90" y="718" on="1"/>
        <pt x="141" y="718" on="1"/>
        <pt x="141" y="512" on="1"/>
        <pt x="140" y="407" on="1"/>
        <pt x="182" y="449" on="0"/>
        <pt x="259" y="493" on="0"/>
        <pt x="305" y="493" on="1"/>
        <pt x="380" y="493" on="0"/>
        <pt x="451" y="402" on="0"/>
        <pt x="451" y="308" on="1"/>
        <pt x="451" y="0" on="1"/>
        <pt x="400" y="0" on="1"/>
        <pt x="400" y="301" on="1"/>
        <pt x="400" y="377" on="0"/>
        <pt x="350" y="448" on="0"/>
        <pt x="294" y="448" on="1"/>
        <pt x="254" y="448" on="0"/>
        <pt x="187" y="407" on="0"/>
        <pt x="141" y="360" on="1"/>
        <pt x="141" y="0" on="1"/>
        <pt x="90" y="0" on="1"/>
      </contour>
    </TTGlyph>
    <TTGlyph name="hbar" xMin="14" yMin="0" xMax="451" yMax="718">
      <contour>
        <pt x="380" y="458" on="0"/>
        <pt x="451" y="367" on="0"/>
        <pt x="451" y="273" on="1"/>
        <pt x="451" y="0" on="1"/>
        <pt x="400" y="0" on="1"/>
        <pt x="400" y="266" on="1"/>
        <pt x="400" y="342" on="0"/>
        <pt x="350" y="413" on="0"/>
        <pt x="294" y="413" on="1"/>
        <pt x="254" y="413" on="0"/>
        <pt x="187" y="372" on="0"/>
        <pt x="141" y="325" on="1"/>
        <pt x="141" y="0" on="1"/>
        <pt x="90" y="0" on="1"/>
        <pt x="90" y="579" on="1"/>
        <pt x="14" y="579" on="1"/>
        <pt x="14" y="610" on="1"/>
        <pt x="90" y="615" on="1"/>
        <pt x="90" y="718" on="1"/>
        <pt x="141" y="718" on="1"/>
        <pt x="141" y="615" on="1"/>
        <pt x="329" y="615" on="1"/>
        <pt x="329" y="579" on="1"/>
        <pt x="141" y="579" on="1"/>
        <pt x="141" y="477" on="1"/>
        <pt x="140" y="372" on="1"/>
        <pt x="182" y="414" on="0"/>
        <pt x="259" y="458" on="0"/>
        <pt x="305" y="458" on="1"/>
      </contour>
    </TTGlyph>
    <TTGlyph name="hungarumlaut" xMin="187" yMin="569" xMax="449" yMax="752">
      <component glyphName="uni030B" x="268" y="0" flags="0x0"/>
    </TTGlyph>
    <TTGlyph name="hyphen" xMin="41" yMin="228" xMax="262" yMax="272">
      <contour>
        <pt x="41" y="272" on="1"/>
        <pt x="262" y="272" on="1"/>
        <pt x="262" y="228" on="1"/>
        <pt x="41" y="228" on="1"/>
      </contour>
    </TTGlyph>
    <TTGlyph name="i" xMin="76" yMin="0" xMax="158" yMax="680">
      <component glyphName="dotlessi" x="0" y="0" flags="0x0"/>
      <component glyphName="uni0307" x="117" y="0" flags="0x0"/>
    </TTGlyph>
    <TTGlyph name="iacute" xMin="63" yMin="0" xMax="237" yMax="759">
      <component glyphName="dotlessi" x="0" y="0" flags="0x0"/>
      <component glyphName="acutecomb" x="117" y="0" flags="0x0"/>
    </TTGlyph>
    <TTGlyph name="icircumflex" xMin="-25" yMin="0" xMax="258" yMax="737">
      <component glyphName="dotlessi" x="0" y="0" flags="0x0"/>
      <component glyphName="uni0302" x="117" y="0" flags="0x0"/>
    </TTGlyph>
    <TTGlyph name="idieresis" xMin="-13" yMin="0" xMax="246" yMax="674">
      <component glyphName="dotlessi" x="0" y="0" flags="0x0"/>
      <component glyphName="uni0308" x="117" y="0" flags="0x0"/>
    </TTGlyph>
    <TTGlyph name="igrave" xMin="-3" yMin="0" xMax="171" yMax="759">
      <component glyphName="dotlessi" x="0" y="0" flags="0x0"/>
      <component glyphName="gravecomb" x="117" y="0" flags="0x0"/>
    </TTGlyph>
    <TTGlyph name="imacron" xMin="-8" yMin="0" xMax="242" yMax="645">
      <component glyphName="dotlessi" x="0" y="0" flags="0x0"/>
      <component glyphName="uni0304" x="117" y="0" flags="0x0"/>
    </TTGlyph>
    <TTGlyph name="infinity" xMin="41" yMin="163" xMax="725" yMax="497">
      <contour>
        <pt x="506" y="163" on="0"/>
        <pt x="416" y="225" on="0"/>
        <pt x="364" y="287" on="1"/>
        <pt x="360" y="287" on="1"/>
        <pt x="356" y="282" on="0"/>
        <pt x="299" y="220" on="0"/>
        <pt x="223" y="179" on="0"/>
        <pt x="183" y="179" on="1"/>
        <pt x="145" y="179" on="0"/>
        <pt x="80" y="218" on="0"/>
        <pt x="41" y="287" on="0"/>
        <pt x="41" y="328" on="1"/>
        <pt x="41" y="397" on="0"/>
        <pt x="127" y="481" on="0"/>
        <pt x="192" y="481" on="1"/>
        <pt x="246" y="481" on="0"/>
        <pt x="327" y="419" on="0"/>
        <pt x="364" y="371" on="1"/>
        <pt x="368" y="371" on="1"/>
        <pt x="409" y="427" on="0"/>
        <pt x="504" y="497" on="0"/>
        <pt x="563" y="497" on="1"/>
        <pt x="635" y="497" on="0"/>
        <pt x="725" y="406" on="0"/>
        <pt x="725" y="333" on="1"/>
        <pt x="725" y="259" on="0"/>
        <pt x="636" y="163" on="0"/>
        <pt x="565" y="163" on="1"/>
      </contour>
      <contour>
        <pt x="619" y="214" on="0"/>
        <pt x="681" y="281" on="0"/>
        <pt x="681" y="331" on="1"/>
        <pt x="681" y="386" on="0"/>
        <pt x="616" y="455" on="0"/>
        <pt x="559" y="455" on="1"/>
        <pt x="513" y="455" on="0"/>
        <pt x="432" y="395" on="0"/>
        <pt x="390" y="335" on="1"/>
        <pt x="439" y="271" on="0"/>
        <pt x="520" y="214" on="0"/>
        <pt x="567" y="214" on="1"/>
      </contour>
      <contour>
        <pt x="232" y="221" on="0"/>
        <pt x="307" y="278" on="0"/>
        <pt x="338" y="325" on="1"/>
        <pt x="299" y="377" on="0"/>
        <pt x="228" y="430" on="0"/>
        <pt x="188" y="430" on="1"/>
        <pt x="143" y="430" on="0"/>
        <pt x="85" y="377" on="0"/>
        <pt x="85" y="330" on="1"/>
        <pt x="85" y="283" on="0"/>
        <pt x="146" y="221" on="0"/>
        <pt x="189" y="221" on="1"/>
      </contour>
    </TTGlyph>
    <TTGlyph name="integral" xMin="57" yMin="-158" xMax="281" yMax="789">
      <contour>
        <pt x="71" y="-158" on="0"/>
        <pt x="57" y="-152" on="1"/>
        <pt x="65" y="-111" on="1"/>
        <pt x="81" y="-115" on="0"/>
        <pt x="99" y="-115" on="1"/>
        <pt x="140" y="-115" on="0"/>
        <pt x="168" y="-31" on="0"/>
        <pt x="168" y="58" on="1"/>
        <pt x="168" y="137" on="0"/>
        <pt x="145" y="315" on="1"/>
        <pt x="134" y="407" on="0"/>
        <pt x="123" y="522" on="0"/>
        <pt x="123" y="569" on="1"/>
        <pt x="123" y="673" on="0"/>
        <pt x="173" y="789" on="0"/>
        <pt x="239" y="789" on="1"/>
        <pt x="269" y="789" on="0"/>
        <pt x="281" y="782" on="1"/>
        <pt x="273" y="742" on="1"/>
        <pt x="257" y="746" on="0"/>
        <pt x="239" y="746" on="1"/>
        <pt x="199" y="746" on="0"/>
        <pt x="172" y="660" on="0"/>
        <pt x="172" y="571" on="1"/>
        <pt x="172" y="524" on="0"/>
        <pt x="183" y="406" on="0"/>
        <pt x="194" y="315" on="1"/>
        <pt x="196" y="299" on="0"/>
        <pt x="208" y="184" on="0"/>
        <pt x="215" y="94" on="0"/>
        <pt x="215" y="62" on="1"/>
        <pt x="215" y="-43" on="0"/>
        <pt x="165" y="-158" on="0"/>
        <pt x="100" y="-158" on="1"/>
      </contour>
    </TTGlyph>
    <TTGlyph name="ismall" xMin="44" yMin="0" xMax="272" yMax="481">
      <contour>
        <pt x="44" y="44" on="1"/>
        <pt x="132" y="44" on="1"/>
        <pt x="132" y="437" on="1"/>
        <pt x="44" y="437" on="1"/>
        <pt x="44" y="481" on="1"/>
        <pt x="272" y="481" on="1"/>
        <pt x="272" y="437" on="1"/>
        <pt x="184" y="437" on="1"/>
        <pt x="184" y="44" on="1"/>
        <pt x="272" y="44" on="1"/>
        <pt x="272" y="0" on="1"/>
        <pt x="44" y="0" on="1"/>
      </contour>
    </TTGlyph>
    <TTGlyph name="j" xMin="-33" yMin="-227" xMax="158" yMax="680">
      <contour>
        <pt x="134" y="680" on="0"/>
        <pt x="158" y="656" on="0"/>
        <pt x="158" y="638" on="1"/>
        <pt x="158" y="619" on="0"/>
        <pt x="134" y="594" on="0"/>
        <pt x="117" y="594" on="1"/>
        <pt x="100" y="594" on="0"/>
        <pt x="76" y="619" on="0"/>
        <pt x="76" y="638" on="1"/>
        <pt x="76" y="656" on="0"/>
        <pt x="100" y="680" on="0"/>
        <pt x="117" y="680" on="1"/>
      </contour>
      <contour>
        <pt x="92" y="481" on="1"/>
        <pt x="143" y="481" on="1"/>
        <pt x="143" y="-83" on="1"/>
        <pt x="143" y="-155" on="0"/>
        <pt x="88" y="-227" on="0"/>
        <pt x="30" y="-227" on="1"/>
        <pt x="-3" y="-227" on="0"/>
        <pt x="-33" y="-215" on="1"/>
        <pt x="-22" y="-174" on="1"/>
        <pt x="7" y="-183" on="0"/>
        <pt x="28" y="-183" on="1"/>
        <pt x="65" y="-183" on="0"/>
        <pt x="92" y="-131" on="0"/>
        <pt x="92" y="-80" on="1"/>
      </contour>
    </TTGlyph>
    <TTGlyph name="j.sups" xMin="-23" yMin="255" xMax="115" yMax="857">
      <contour>
        <pt x="67" y="792" on="0"/>
        <pt x="48" y="811" on="0"/>
        <pt x="48" y="825" on="1"/>
        <pt x="48" y="839" on="0"/>
        <pt x="67" y="857" on="0"/>
        <pt x="82" y="857" on="1"/>
        <pt x="96" y="857" on="0"/>
        <pt x="115" y="839" on="0"/>
        <pt x="115" y="825" on="1"/>
        <pt x="115" y="811" on="0"/>
        <pt x="96" y="792" on="0"/>
        <pt x="82" y="792" on="1"/>
      </contour>
      <contour>
        <pt x="7" y="255" on="0"/>
        <pt x="-11" y="258" on="0"/>
        <pt x="-23" y="263" on="1"/>
        <pt x="-13" y="298" on="1"/>
        <pt x="1" y="292" on="0"/>
        <pt x="16" y="292" on="1"/>
        <pt x="40" y="292" on="0"/>
        <pt x="58" y="324" on="0"/>
        <pt x="58" y="356" on="1"/>
        <pt x="58" y="722" on="1"/>
        <pt x="100" y="722" on="1"/>
        <pt x="100" y="360" on="1"/>
        <pt x="100" y="307" on="0"/>
        <pt x="61" y="255" on="0"/>
        <pt x="21" y="255" on="1"/>
      </contour>
    </TTGlyph>
    <TTGlyph name="k" xMin="90" yMin="0" xMax="458" yMax="718">
      <contour>
        <pt x="90" y="718" on="1"/>
        <pt x="141" y="718" on="1"/>
        <pt x="141" y="197" on="1"/>
        <pt x="143" y="197" on="1"/>
        <pt x="374" y="481" on="1"/>
        <pt x="433" y="481" on="1"/>
        <pt x="275" y="290" on="1"/>
        <pt x="458" y="0" on="1"/>
        <pt x="401" y="0" on="1"/>
        <pt x="245" y="253" on="1"/>
        <pt x="141" y="130" on="1"/>
        <pt x="141" y="0" on="1"/>
        <pt x="90" y="0" on="1"/>
      </contour>
    </TTGlyph>
    <TTGlyph name="l" xMin="90" yMin="-12" xMax="189" yMax="718">
      <contour>
        <pt x="90" y="-12" on="0"/>
        <pt x="90" y="71" on="1"/>
        <pt x="90" y="718" on="1"/>
        <pt x="141" y="718" on="1"/>
        <pt x="141" y="65" on="1"/>
        <pt x="141" y="49" on="0"/>
        <pt x="153" y="33" on="0"/>
        <pt x="163" y="33" on="1"/>
        <pt x="171" y="33" on="0"/>
        <pt x="181" y="35" on="1"/>
        <pt x="189" y="-6" on="1"/>
        <pt x="169" y="-12" on="0"/>
        <pt x="154" y="-12" on="1"/>
      </contour>
    </TTGlyph>
    <TTGlyph name="lefttorightembed" xMin="-129" yMin="767" xMax="144" yMax="984">
      <contour>
        <pt x="14" y="792" on="1"/>
        <pt x="77" y="858" on="1"/>
        <pt x="1" y="858" on="1"/>
        <pt x="1" y="894" on="1"/>
        <pt x="77" y="894" on="1"/>
        <pt x="14" y="957" on="1"/>
        <pt x="39" y="984" on="1"/>
        <pt x="144" y="875" on="1"/>
        <pt x="39" y="767" on="1"/>
      </contour>
      <contour>
        <pt x="-129" y="894" on="1"/>
        <pt x="-41" y="894" on="1"/>
        <pt x="-41" y="858" on="1"/>
        <pt x="-129" y="858" on="1"/>
      </contour>
    </TTGlyph>
    <TTGlyph name="less" xMin="34" yMin="143" xMax="448" yMax="521">
      <contour>
        <pt x="34" y="308" on="1"/>
        <pt x="34" y="356" on="1"/>
        <pt x="448" y="521" on="1"/>
        <pt x="448" y="472" on="1"/>
        <pt x="87" y="334" on="1"/>
        <pt x="87" y="330" on="1"/>
        <pt x="448" y="192" on="1"/>
        <pt x="448" y="143" on="1"/>
      </contour>
    </TTGlyph>
    <TTGlyph name="lessequal" xMin="34" yMin="0" xMax="448" yMax="521">
      <contour>
        <pt x="34" y="311" on="1"/>
        <pt x="34" y="362" on="1"/>
        <pt x="448" y="521" on="1"/>
        <pt x="448" y="472" on="1"/>
        <pt x="221" y="387" on="1"/>
        <pt x="87" y="339" on="1"/>
        <pt x="87" y="334" on="1"/>
        <pt x="221" y="286" on="1"/>
        <pt x="448" y="201" on="1"/>
        <pt x="448" y="152" on="1"/>
      </contour>
      <contour>
        <pt x="34" y="42" on="1"/>
        <pt x="448" y="42" on="1"/>
        <pt x="448" y="0" on="1"/>
        <pt x="34" y="0" on="1"/>
      </contour>
    </TTGlyph>
    <TTGlyph name="litre" xMin="26" yMin="-12" xMax="366" yMax="730">
      <contour>
        <pt x="366" y="44" on="1"/>
        <pt x="339" y="19" on="0"/>
        <pt x="282" y="-12" on="0"/>
        <pt x="246" y="-12" on="1"/>
        <pt x="186" y="-12" on="0"/>
        <pt x="106" y="82" on="0"/>
        <pt x="106" y="167" on="1"/>
        <pt x="106" y="173" on="1"/>
        <pt x="78" y="151" on="0"/>
        <pt x="49" y="131" on="1"/>
        <pt x="26" y="165" on="1"/>
        <pt x="68" y="193" on="0"/>
        <pt x="106" y="227" on="1"/>
        <pt x="106" y="526" on="1"/>
        <pt x="106" y="631" on="0"/>
        <pt x="175" y="730" on="0"/>
        <pt x="232" y="730" on="1"/>
        <pt x="283" y="730" on="0"/>
        <pt x="348" y="653" on="0"/>
        <pt x="348" y="583" on="1"/>
        <pt x="348" y="491" on="0"/>
        <pt x="244" y="299" on="0"/>
        <pt x="157" y="217" on="1"/>
        <pt x="157" y="178" on="1"/>
        <pt x="157" y="103" on="0"/>
        <pt x="210" y="33" on="0"/>
        <pt x="252" y="33" on="1"/>
        <pt x="280" y="33" on="0"/>
        <pt x="321" y="56" on="0"/>
        <pt x="343" y="77" on="1"/>
      </contour>
      <contour>
        <pt x="200" y="688" on="0"/>
        <pt x="157" y="611" on="0"/>
        <pt x="157" y="537" on="1"/>
        <pt x="157" y="277" on="1"/>
        <pt x="224" y="347" on="0"/>
        <pt x="300" y="505" on="0"/>
        <pt x="300" y="582" on="1"/>
        <pt x="300" y="637" on="0"/>
        <pt x="264" y="688" on="0"/>
        <pt x="233" y="688" on="1"/>
      </contour>
    </TTGlyph>
    <TTGlyph name="logicalnot" xMin="34" yMin="109" xMax="448" yMax="351">
      <contour>
        <pt x="402" y="309" on="1"/>
        <pt x="34" y="309" on="1"/>
        <pt x="34" y="351" on="1"/>
        <pt x="448" y="351" on="1"/>
        <pt x="448" y="109" on="1"/>
        <pt x="402" y="109" on="1"/>
      </contour>
    </TTGlyph>
    <TTGlyph name="lozenge" xMin="58" yMin="-10" xMax="443" yMax="670">
      <contour>
        <pt x="58" y="330" on="1"/>
        <pt x="223" y="670" on="1"/>
        <pt x="278" y="670" on="1"/>
        <pt x="443" y="330" on="1"/>
        <pt x="278" y="-10" on="1"/>
        <pt x="223" y="-10" on="1"/>
      </contour>
      <contour>
        <pt x="253" y="34" on="1"/>
        <pt x="320" y="172" on="1"/>
        <pt x="393" y="330" on="1"/>
        <pt x="320" y="486" on="1"/>
        <pt x="253" y="626" on="1"/>
        <pt x="249" y="626" on="1"/>
        <pt x="182" y="486" on="1"/>
        <pt x="108" y="330" on="1"/>
        <pt x="182" y="172" on="1"/>
        <pt x="249" y="34" on="1"/>
      </contour>
    </TTGlyph>
    <TTGlyph name="lslash" xMin="8" yMin="-12" xMax="221" yMax="718">
      <contour>
        <pt x="173" y="33" on="0"/>
        <pt x="183" y="35" on="1"/>
        <pt x="191" y="-6" on="1"/>
        <pt x="171" y="-12" on="0"/>
        <pt x="156" y="-12" on="1"/>
        <pt x="92" y="-12" on="0"/>
        <pt x="92" y="71" on="1"/>
        <pt x="92" y="358" on="1"/>
        <pt x="29" y="317" on="1"/>
        <pt x="8" y="352" on="1"/>
        <pt x="92" y="405" on="1"/>
        <pt x="92" y="718" on="1"/>
        <pt x="143" y="718" on="1"/>
        <pt x="143" y="433" on="1"/>
        <pt x="200" y="471" on="1"/>
        <pt x="221" y="436" on="1"/>
        <pt x="143" y="386" on="1"/>
        <pt x="143" y="65" on="1"/>
        <pt x="143" y="49" on="0"/>
        <pt x="155" y="33" on="0"/>
        <pt x="165" y="33" on="1"/>
      </contour>
    </TTGlyph>
    <TTGlyph name="m" xMin="90" yMin="0" xMax="732" yMax="493">
      <contour>
        <pt x="90" y="481" on="1"/>
        <pt x="133" y="481" on="1"/>
        <pt x="138" y="408" on="1"/>
        <pt x="141" y="408" on="1"/>
        <pt x="176" y="447" on="0"/>
        <pt x="254" y="493" on="0"/>
        <pt x="292" y="493" on="1"/>
        <pt x="397" y="493" on="0"/>
        <pt x="425" y="396" on="1"/>
        <pt x="468" y="443" on="0"/>
        <pt x="548" y="493" on="0"/>
        <pt x="588" y="493" on="1"/>
        <pt x="732" y="493" on="0"/>
        <pt x="732" y="308" on="1"/>
        <pt x="732" y="0" on="1"/>
        <pt x="681" y="0" on="1"/>
        <pt x="681" y="301" on="1"/>
        <pt x="681" y="376" on="0"/>
        <pt x="630" y="448" on="0"/>
        <pt x="576" y="448" on="1"/>
        <pt x="513" y="448" on="0"/>
        <pt x="437" y="360" on="1"/>
        <pt x="437" y="0" on="1"/>
        <pt x="385" y="0" on="1"/>
        <pt x="385" y="301" on="1"/>
        <pt x="385" y="376" on="0"/>
        <pt x="334" y="448" on="0"/>
        <pt x="281" y="448" on="1"/>
        <pt x="219" y="448" on="0"/>
        <pt x="141" y="360" on="1"/>
        <pt x="141" y="0" on="1"/>
        <pt x="90" y="0" on="1"/>
      </contour>
    </TTGlyph>
    <TTGlyph name="macron" xMin="143" yMin="605" xMax="393" yMax="645">
      <component glyphName="uni0304" x="268" y="0" flags="0x0"/>
    </TTGlyph>
    <TTGlyph name="minus" xMin="34" yMin="309" xMax="448" yMax="351">
      <contour>
        <pt x="34" y="351" on="1"/>
        <pt x="448" y="351" on="1"/>
        <pt x="448" y="309" on="1"/>
        <pt x="34" y="309" on="1"/>
      </contour>
    </TTGlyph>
    <TTGlyph name="multiply" xMin="51" yMin="133" xMax="431" yMax="527">
      <contour>
        <pt x="51" y="165" on="1"/>
        <pt x="211" y="330" on="1"/>
        <pt x="51" y="495" on="1"/>
        <pt x="81" y="527" on="1"/>
        <pt x="241" y="360" on="1"/>
        <pt x="401" y="527" on="1"/>
        <pt x="431" y="495" on="1"/>
        <pt x="271" y="330" on="1"/>
        <pt x="431" y="165" on="1"/>
        <pt x="401" y="133" on="1"/>
        <pt x="241" y="300" on="1"/>
        <pt x="81" y="133" on="1"/>
      </contour>
    </TTGlyph>
    <TTGlyph name="n" xMin="90" yMin="0" xMax="451" yMax="493">
      <contour>
        <pt x="90" y="481" on="1"/>
        <pt x="133" y="481" on="1"/>
        <pt x="138" y="408" on="1"/>
        <pt x="141" y="408" on="1"/>
        <pt x="182" y="449" on="0"/>
        <pt x="259" y="493" on="0"/>
        <pt x="305" y="493" on="1"/>
        <pt x="380" y="493" on="0"/>
        <pt x="451" y="402" on="0"/>
        <pt x="451" y="308" on="1"/>
        <pt x="451" y="0" on="1"/>
        <pt x="400" y="0" on="1"/>
        <pt x="400" y="301" on="1"/>
        <pt x="400" y="377" on="0"/>
        <pt x="350" y="448" on="0"/>
        <pt x="294" y="448" on="1"/>
        <pt x="254" y="448" on="0"/>
        <pt x="187" y="407" on="0"/>
        <pt x="141" y="360" on="1"/>
        <pt x="141" y="0" on="1"/>
        <pt x="90" y="0" on="1"/>
      </contour>
    </TTGlyph>
    <TTGlyph name="nine" xMin="42" yMin="-12" xMax="430" yMax="651">
      <contour>
        <pt x="317" y="651" on="0"/>
        <pt x="430" y="493" on="0"/>
        <pt x="430" y="348" on="1"/>
        <pt x="430" y="222" on="0"/>
        <pt x="366" y="61" on="0"/>
        <pt x="260" y="-12" on="0"/>
        <pt x="194" y="-12" on="1"/>
        <pt x="111" y="-12" on="0"/>
        <pt x="55" y="51" on="1"/>
        <pt x="86" y="85" on="1"/>
        <pt x="106" y="60" on="0"/>
        <pt x="162" y="33" on="0"/>
        <pt x="194" y="33" on="1"/>
        <pt x="276" y="33" on="0"/>
        <pt x="379" y="179" on="0"/>
        <pt x="380" y="340" on="1"/>
        <pt x="346" y="299" on="0"/>
        <pt x="263" y="253" on="0"/>
        <pt x="220" y="253" on="1"/>
        <pt x="136" y="253" on="0"/>
        <pt x="42" y="354" on="0"/>
        <pt x="42" y="450" on="1"/>
        <pt x="42" y="508" on="0"/>
        <pt x="90" y="599" on="0"/>
        <pt x="172" y="651" on="0"/>
        <pt x="220" y="651" on="1"/>
      </contour>
      <contour>
        <pt x="264" y="294" on="0"/>
        <pt x="344" y="340" on="0"/>
        <pt x="379" y="389" on="1"/>
        <pt x="372" y="492" on="0"/>
        <pt x="291" y="608" on="0"/>
        <pt x="218" y="608" on="1"/>
        <pt x="183" y="608" on="0"/>
        <pt x="126" y="567" on="0"/>
        <pt x="93" y="494" on="0"/>
        <pt x="93" y="450" on="1"/>
        <pt x="93" y="379" on="0"/>
        <pt x="159" y="294" on="0"/>
        <pt x="227" y="294" on="1"/>
      </contour>
    </TTGlyph>
    <TTGlyph name="nine.heb" xMin="42" yMin="-12" xMax="430" yMax="651">
      <contour>
        <pt x="317" y="651" on="0"/>
        <pt x="430" y="493" on="0"/>
        <pt x="430" y="348" on="1"/>
        <pt x="430" y="222" on="0"/>
        <pt x="366" y="61" on="0"/>
        <pt x="260" y="-12" on="0"/>
        <pt x="194" y="-12" on="1"/>
        <pt x="111" y="-12" on="0"/>
        <pt x="55" y="51" on="1"/>
        <pt x="86" y="85" on="1"/>
        <pt x="106" y="60" on="0"/>
        <pt x="162" y="33" on="0"/>
        <pt x="194" y="33" on="1"/>
        <pt x="276" y="33" on="0"/>
        <pt x="379" y="179" on="0"/>
        <pt x="380" y="340" on="1"/>
        <pt x="346" y="299" on="0"/>
        <pt x="263" y="253" on="0"/>
        <pt x="220" y="253" on="1"/>
        <pt x="136" y="253" on="0"/>
        <pt x="42" y="354" on="0"/>
        <pt x="42" y="450" on="1"/>
        <pt x="42" y="508" on="0"/>
        <pt x="90" y="599" on="0"/>
        <pt x="172" y="651" on="0"/>
        <pt x="220" y="651" on="1"/>
      </contour>
      <contour>
        <pt x="264" y="294" on="0"/>
        <pt x="344" y="340" on="0"/>
        <pt x="379" y="389" on="1"/>
        <pt x="372" y="492" on="0"/>
        <pt x="291" y="608" on="0"/>
        <pt x="218" y="608" on="1"/>
        <pt x="183" y="608" on="0"/>
        <pt x="126" y="567" on="0"/>
        <pt x="93" y="494" on="0"/>
        <pt x="93" y="450" on="1"/>
        <pt x="93" y="379" on="0"/>
        <pt x="159" y="294" on="0"/>
        <pt x="227" y="294" on="1"/>
      </contour>
    </TTGlyph>
    <TTGlyph name="nine.lat" xMin="42" yMin="-12" xMax="430" yMax="651">
      <contour>
        <pt x="317" y="651" on="0"/>
        <pt x="430" y="493" on="0"/>
        <pt x="430" y="348" on="1"/>
        <pt x="430" y="222" on="0"/>
        <pt x="366" y="61" on="0"/>
        <pt x="260" y="-12" on="0"/>
        <pt x="194" y="-12" on="1"/>
        <pt x="111" y="-12" on="0"/>
        <pt x="55" y="51" on="1"/>
        <pt x="86" y="85" on="1"/>
        <pt x="106" y="60" on="0"/>
        <pt x="162" y="33" on="0"/>
        <pt x="194" y="33" on="1"/>
        <pt x="276" y="33" on="0"/>
        <pt x="379" y="179" on="0"/>
        <pt x="380" y="340" on="1"/>
        <pt x="346" y="299" on="0"/>
        <pt x="263" y="253" on="0"/>
        <pt x="220" y="253" on="1"/>
        <pt x="136" y="253" on="0"/>
        <pt x="42" y="354" on="0"/>
        <pt x="42" y="450" on="1"/>
        <pt x="42" y="508" on="0"/>
        <pt x="90" y="599" on="0"/>
        <pt x="172" y="651" on="0"/>
        <pt x="220" y="651" on="1"/>
      </contour>
      <contour>
        <pt x="264" y="294" on="0"/>
        <pt x="344" y="340" on="0"/>
        <pt x="379" y="389" on="1"/>
        <pt x="372" y="492" on="0"/>
        <pt x="291" y="608" on="0"/>
        <pt x="218" y="608" on="1"/>
        <pt x="183" y="608" on="0"/>
        <pt x="126" y="567" on="0"/>
        <pt x="93" y="494" on="0"/>
        <pt x="93" y="450" on="1"/>
        <pt x="93" y="379" on="0"/>
        <pt x="159" y="294" on="0"/>
        <pt x="227" y="294" on="1"/>
      </contour>
    </TTGlyph>
    <TTGlyph name="notequal" xMin="34" yMin="78" xMax="448" yMax="582">
      <contour>
        <pt x="144" y="206" on="1"/>
        <pt x="34" y="206" on="1"/>
        <pt x="34" y="248" on="1"/>
        <pt x="169" y="248" on="1"/>
        <pt x="269" y="412" on="1"/>
        <pt x="34" y="412" on="1"/>
        <pt x="34" y="454" on="1"/>
        <pt x="294" y="454" on="1"/>
        <pt x="372" y="582" on="1"/>
        <pt x="417" y="582" on="1"/>
        <pt x="339" y="454" on="1"/>
        <pt x="448" y="454" on="1"/>
        <pt x="448" y="412" on="1"/>
        <pt x="314" y="412" on="1"/>
        <pt x="213" y="248" on="1"/>
        <pt x="448" y="248" on="1"/>
        <pt x="448" y="206" on="1"/>
        <pt x="188" y="206" on="1"/>
        <pt x="110" y="78" on="1"/>
        <pt x="65" y="78" on="1"/>
      </contour>
    </TTGlyph>
    <TTGlyph name="ntilde" xMin="90" yMin="0" xMax="451" yMax="712">
      <component glyphName="n" x="0" y="0" flags="0x0"/>
      <component glyphName="tildecomb" x="284" y="0" flags="0x0"/>
    </TTGlyph>
    <TTGlyph name="numbersign" xMin="36" yMin="0" xMax="452" yMax="650">
      <contour>
        <pt x="118" y="212" on="1"/>
        <pt x="36" y="212" on="1"/>
        <pt x="36" y="252" on="1"/>
        <pt x="123" y="252" on="1"/>
        <pt x="144" y="418" on="1"/>
        <pt x="56" y="418" on="1"/>
        <pt x="56" y="458" on="1"/>
        <pt x="148" y="458" on="1"/>
        <pt x="173" y="650" on="1"/>
        <pt x="211" y="650" on="1"/>
        <pt x="186" y="458" on="1"/>
        <pt x="333" y="458" on="1"/>
        <pt x="358" y="650" on="1"/>
        <pt x="396" y="650" on="1"/>
        <pt x="371" y="458" on="1"/>
        <pt x="452" y="458" on="1"/>
        <pt x="452" y="418" on="1"/>
        <pt x="367" y="418" on="1"/>
        <pt x="347" y="252" on="1"/>
        <pt x="432" y="252" on="1"/>
        <pt x="432" y="212" on="1"/>
        <pt x="342" y="212" on="1"/>
        <pt x="316" y="0" on="1"/>
        <pt x="278" y="0" on="1"/>
        <pt x="303" y="212" on="1"/>
        <pt x="157" y="212" on="1"/>
        <pt x="131" y="0" on="1"/>
        <pt x="93" y="0" on="1"/>
      </contour>
      <contour>
        <pt x="308" y="252" on="1"/>
        <pt x="329" y="418" on="1"/>
        <pt x="182" y="418" on="1"/>
        <pt x="162" y="252" on="1"/>
      </contour>
    </TTGlyph>
    <TTGlyph name="numbersign.lat" xMin="36" yMin="0" xMax="452" yMax="650">
      <contour>
        <pt x="118" y="212" on="1"/>
        <pt x="36" y="212" on="1"/>
        <pt x="36" y="252" on="1"/>
        <pt x="123" y="252" on="1"/>
        <pt x="144" y="418" on="1"/>
        <pt x="56" y="418" on="1"/>
        <pt x="56" y="458" on="1"/>
        <pt x="148" y="458" on="1"/>
        <pt x="173" y="650" on="1"/>
        <pt x="211" y="650" on="1"/>
        <pt x="186" y="458" on="1"/>
        <pt x="333" y="458" on="1"/>
        <pt x="358" y="650" on="1"/>
        <pt x="396" y="650" on="1"/>
        <pt x="371" y="458" on="1"/>
        <pt x="452" y="458" on="1"/>
        <pt x="452" y="418" on="1"/>
        <pt x="367" y="418" on="1"/>
        <pt x="347" y="252" on="1"/>
        <pt x="432" y="252" on="1"/>
        <pt x="432" y="212" on="1"/>
        <pt x="342" y="212" on="1"/>
        <pt x="316" y="0" on="1"/>
        <pt x="278" y="0" on="1"/>
        <pt x="303" y="212" on="1"/>
        <pt x="157" y="212" on="1"/>
        <pt x="131" y="0" on="1"/>
        <pt x="93" y="0" on="1"/>
      </contour>
      <contour>
        <pt x="308" y="252" on="1"/>
        <pt x="329" y="418" on="1"/>
        <pt x="182" y="418" on="1"/>
        <pt x="162" y="252" on="1"/>
      </contour>
    </TTGlyph>
    <TTGlyph name="o" xMin="51" yMin="-12" xMax="486" yMax="493">
      <contour>
        <pt x="209" y="-12" on="0"/>
        <pt x="110" y="49" on="0"/>
        <pt x="51" y="163" on="0"/>
        <pt x="51" y="240" on="1"/>
        <pt x="51" y="318" on="0"/>
        <pt x="110" y="433" on="0"/>
        <pt x="209" y="493" on="0"/>
        <pt x="268" y="493" on="1"/>
        <pt x="327" y="493" on="0"/>
        <pt x="427" y="433" on="0"/>
        <pt x="486" y="318" on="0"/>
        <pt x="486" y="240" on="1"/>
        <pt x="486" y="163" on="0"/>
        <pt x="427" y="49" on="0"/>
        <pt x="327" y="-12" on="0"/>
        <pt x="268" y="-12" on="1"/>
      </contour>
      <contour>
        <pt x="315" y="33" on="0"/>
        <pt x="389" y="85" on="0"/>
        <pt x="432" y="179" on="0"/>
        <pt x="432" y="240" on="1"/>
        <pt x="432" y="301" on="0"/>
        <pt x="389" y="396" on="0"/>
        <pt x="315" y="449" on="0"/>
        <pt x="268" y="449" on="1"/>
        <pt x="221" y="449" on="0"/>
        <pt x="146" y="396" on="0"/>
        <pt x="104" y="301" on="0"/>
        <pt x="104" y="240" on="1"/>
        <pt x="104" y="179" on="0"/>
        <pt x="146" y="85" on="0"/>
        <pt x="221" y="33" on="0"/>
        <pt x="268" y="33" on="1"/>
      </contour>
    </TTGlyph>
    <TTGlyph name="o.sups" xMin="32" yMin="396" xMax="327" yMax="730">
      <contour>
        <pt x="138" y="396" on="0"/>
        <pt x="71" y="436" on="0"/>
        <pt x="32" y="512" on="0"/>
        <pt x="32" y="563" on="1"/>
        <pt x="32" y="640" on="0"/>
        <pt x="116" y="730" on="0"/>
        <pt x="179" y="730" on="1"/>
        <pt x="220" y="730" on="0"/>
        <pt x="287" y="690" on="0"/>
        <pt x="327" y="614" on="0"/>
        <pt x="327" y="563" on="1"/>
        <pt x="327" y="512" on="0"/>
        <pt x="287" y="436" on="0"/>
        <pt x="220" y="396" on="0"/>
        <pt x="179" y="396" on="1"/>
      </contour>
      <contour>
        <pt x="226" y="432" on="0"/>
        <pt x="283" y="505" on="0"/>
        <pt x="283" y="563" on="1"/>
        <pt x="283" y="622" on="0"/>
        <pt x="227" y="694" on="0"/>
        <pt x="180" y="694" on="1"/>
        <pt x="133" y="694" on="0"/>
        <pt x="76" y="622" on="0"/>
        <pt x="76" y="563" on="1"/>
        <pt x="76" y="505" on="0"/>
        <pt x="133" y="432" on="0"/>
        <pt x="180" y="432" on="1"/>
      </contour>
    </TTGlyph>
    <TTGlyph name="oacute" xMin="51" yMin="-12" xMax="486" yMax="759">
      <component glyphName="o" x="0" y="0" flags="0x0"/>
      <component glyphName="acutecomb" x="268" y="0" flags="0x0"/>
    </TTGlyph>
    <TTGlyph name="obreve" xMin="51" yMin="-12" xMax="486" yMax="724">
      <component glyphName="o" x="0" y="0" flags="0x0"/>
      <component glyphName="uni0306" x="268" y="0" flags="0x0"/>
    </TTGlyph>
    <TTGlyph name="ocircumflex" xMin="51" yMin="-12" xMax="486" yMax="737">
      <component glyphName="o" x="0" y="0" flags="0x0"/>
      <component glyphName="uni0302" x="268" y="0" flags="0x0"/>
    </TTGlyph>
    <TTGlyph name="odieresis" xMin="51" yMin="-12" xMax="486" yMax="674">
      <component glyphName="o" x="0" y="0" flags="0x0"/>
      <component glyphName="uni0308" x="268" y="0" flags="0x0"/>
    </TTGlyph>
    <TTGlyph name="oe" xMin="51" yMin="-12" xMax="809" yMax="493">
      <contour>
        <pt x="206" y="-12" on="0"/>
        <pt x="109" y="49" on="0"/>
        <pt x="51" y="163" on="0"/>
        <pt x="51" y="240" on="1"/>
        <pt x="51" y="318" on="0"/>
        <pt x="109" y="433" on="0"/>
        <pt x="207" y="493" on="0"/>
        <pt x="264" y="493" on="1"/>
        <pt x="323" y="493" on="0"/>
        <pt x="423" y="421" on="0"/>
        <pt x="448" y="355" on="1"/>
        <pt x="475" y="419" on="0"/>
        <pt x="569" y="493" on="0"/>
        <pt x="626" y="493" on="1"/>
        <pt x="712" y="493" on="0"/>
        <pt x="809" y="374" on="0"/>
        <pt x="809" y="269" on="1"/>
        <pt x="809" y="244" on="0"/>
        <pt x="806" y="232" on="1"/>
        <pt x="473" y="232" on="1"/>
        <pt x="473" y="175" on="0"/>
        <pt x="518" y="83" on="0"/>
        <pt x="595" y="32" on="0"/>
        <pt x="642" y="32" on="1"/>
        <pt x="709" y="32" on="0"/>
        <pt x="769" y="74" on="1"/>
        <pt x="789" y="36" on="1"/>
        <pt x="755" y="13" on="0"/>
        <pt x="684" y="-12" on="0"/>
        <pt x="636" y="-12" on="1"/>
        <pt x="575" y="-12" on="0"/>
        <pt x="475" y="62" on="0"/>
        <pt x="449" y="125" on="1"/>
        <pt x="421" y="57" on="0"/>
        <pt x="326" y="-12" on="0"/>
        <pt x="263" y="-12" on="1"/>
      </contour>
      <contour>
        <pt x="761" y="270" on="1"/>
        <pt x="761" y="358" on="0"/>
        <pt x="688" y="450" on="0"/>
        <pt x="624" y="450" on="1"/>
        <pt x="586" y="450" on="0"/>
        <pt x="520" y="404" on="0"/>
        <pt x="477" y="323" on="0"/>
        <pt x="472" y="270" on="1"/>
      </contour>
      <contour>
        <pt x="310" y="33" on="0"/>
        <pt x="382" y="85" on="0"/>
        <pt x="423" y="179" on="0"/>
        <pt x="423" y="240" on="1"/>
        <pt x="423" y="301" on="0"/>
        <pt x="382" y="396" on="0"/>
        <pt x="309" y="449" on="0"/>
        <pt x="263" y="449" on="1"/>
        <pt x="218" y="449" on="0"/>
        <pt x="145" y="396" on="0"/>
        <pt x="104" y="300" on="0"/>
        <pt x="104" y="240" on="1"/>
        <pt x="104" y="179" on="0"/>
        <pt x="145" y="85" on="0"/>
        <pt x="218" y="33" on="0"/>
        <pt x="263" y="33" on="1"/>
      </contour>
    </TTGlyph>
    <TTGlyph name="ograve" xMin="51" yMin="-12" xMax="486" yMax="759">
      <component glyphName="o" x="0" y="0" flags="0x0"/>
      <component glyphName="gravecomb" x="268" y="0" flags="0x0"/>
    </TTGlyph>
    <TTGlyph name="omacron" xMin="51" yMin="-12" xMax="486" yMax="645">
      <component glyphName="o" x="0" y="0" flags="0x0"/>
      <component glyphName="uni0304" x="268" y="0" flags="0x0"/>
    </TTGlyph>
    <TTGlyph name="one" xMin="83" yMin="0" xMax="422" yMax="639">
      <contour>
        <pt x="83" y="45" on="1"/>
        <pt x="233" y="45" on="1"/>
        <pt x="233" y="563" on="1"/>
        <pt x="118" y="563" on="1"/>
        <pt x="118" y="598" on="1"/>
        <pt x="191" y="609" on="0"/>
        <pt x="243" y="639" on="1"/>
        <pt x="284" y="639" on="1"/>
        <pt x="284" y="45" on="1"/>
        <pt x="422" y="45" on="1"/>
        <pt x="422" y="0" on="1"/>
        <pt x="83" y="0" on="1"/>
      </contour>
    </TTGlyph>
    <TTGlyph name="one.heb" xMin="83" yMin="0" xMax="422" yMax="639">
      <contour>
        <pt x="83" y="45" on="1"/>
        <pt x="233" y="45" on="1"/>
        <pt x="233" y="563" on="1"/>
        <pt x="118" y="563" on="1"/>
        <pt x="118" y="598" on="1"/>
        <pt x="191" y="609" on="0"/>
        <pt x="243" y="639" on="1"/>
        <pt x="284" y="639" on="1"/>
        <pt x="284" y="45" on="1"/>
        <pt x="422" y="45" on="1"/>
        <pt x="422" y="0" on="1"/>
        <pt x="83" y="0" on="1"/>
      </contour>
    </TTGlyph>
</ttFont>
